<?xml version="1.0" encoding="UTF-8" standalone="no"?>
<svg
   xmlns:dc="http://purl.org/dc/elements/1.1/"
   xmlns:cc="http://creativecommons.org/ns#"
   xmlns:rdf="http://www.w3.org/1999/02/22-rdf-syntax-ns#"
   xmlns:svg="http://www.w3.org/2000/svg"
   xmlns="http://www.w3.org/2000/svg"
   xmlns:sodipodi="http://sodipodi.sourceforge.net/DTD/sodipodi-0.dtd"
   xmlns:inkscape="http://www.inkscape.org/namespaces/inkscape"
   width="8.6007566in"
   height="2.7757387in"
   viewBox="0 0 619.25537 199.85337"
   version="1.1"
   id="svg"
   sodipodi:docname="about-path.svg"
   inkscape:version="0.92.3 (2405546, 2018-03-11)">
  <style
     id="style2">svg{cursor: pointer;-webkit-touch-callout: none;-webkit-user-select: none;-khtml-user-select: none;-moz-user-select: none;-ms-user-select: none;user-select: none;cursor: url("/content/selectcursor.gif"), auto;}</style>
  <metadata
     id="metadata841">
    <rdf:RDF>
      <cc:Work
         rdf:about="">
        <dc:format>image/svg+xml</dc:format>
        <dc:type
           rdf:resource="http://purl.org/dc/dcmitype/StillImage" />
        <dc:title />
      </cc:Work>
    </rdf:RDF>
  </metadata>
  <defs
     id="defs839">
    <inkscape:path-effect
       effect="powerstroke"
       id="path-effect894"
       is_visible="true"
       offset_points="0.20533754,-3.7368265 | 0.69740774,-2.6338983 | 1.4512911,-2.4802492 | 1.7499136,-1.9871148 | 2.0416581,-1.7732256 | 2.8904161,-2.3873599 | 4.5466552,-3.1588993 | 5.4469397,-2.8371958 | 7.0972323,-2.6669596 | 8,-1.399986"
       sort_points="true"
       interpolator_type="CentripetalCatmullRom"
       interpolator_beta="0.5"
       start_linecap_type="round"
       linejoin_type="spiro"
       miter_limit="100"
       end_linecap_type="round" />
    <inkscape:path-effect
       effect="powerstroke"
       id="path-effect892"
       is_visible="true"
       offset_points="0.096367449,3.7927525 | 0.62084458,3.0639345 | 2.0866019,2.6003903 | 3.3249433,3.063703 | 4.9226902,2.8237619 | 5,3.1479875"
       sort_points="true"
       interpolator_type="CentripetalCatmullRom"
       interpolator_beta="0.5"
       start_linecap_type="round"
       linejoin_type="spiro"
       miter_limit="100"
       end_linecap_type="round" />
    <inkscape:path-effect
       effect="powerstroke"
       id="path-effect890"
       is_visible="true"
       offset_points="0.057718182,3.0557308 | 0.24908798,2.5153655 | 0.82048546,2.5018371 | 3.8877617,2.7915705 | 4.9978673,2.7010243 | 7.6940335,2.5765539"
       sort_points="true"
       interpolator_type="CentripetalCatmullRom"
       interpolator_beta="0.5"
       start_linecap_type="round"
       linejoin_type="spiro"
       miter_limit="100"
       end_linecap_type="round" />
    <inkscape:path-effect
       effect="powerstroke"
       id="path-effect888"
       is_visible="true"
       offset_points="0,3.3379367 | 0.2392634,2.5225669 | 2.8606521,2.9004827 | 5.8501288,2.767961 | 6.2997722,2.4971411 | 6.7834933,2.2424212 | 7.5050581,2.6239358 | 0.80249201,2.5552705 | 11.834836,2.1693396 | 10.524146,2.7662092"
       sort_points="true"
       interpolator_type="CentripetalCatmullRom"
       interpolator_beta="0.5"
       start_linecap_type="round"
       linejoin_type="spiro"
       miter_limit="100"
       end_linecap_type="round" />
    <inkscape:path-effect
       effect="powerstroke"
       id="path-effect857"
       is_visible="true"
       offset_points="0.233298,4.4027107 | 1.5774761,3.1392097 | 2.4103789,1.6090341 | 2.1663476,2.2683809"
       sort_points="true"
       interpolator_type="CentripetalCatmullRom"
       interpolator_beta="0.5"
       start_linecap_type="round"
       linejoin_type="spiro"
       miter_limit="100"
       end_linecap_type="zerowidth" />
    <inkscape:path-effect
       effect="powerstroke"
       id="path-effect855"
       is_visible="true"
       offset_points="0.012508059,3.9186378 | 0.72657072,3.3540424 | 2.6864179,3.0861049 | 3.4134204,2.709377 | 2.2267915,3.2347193 | 1.983965,2.5834654 | 3.9207676,3.353543"
       sort_points="true"
       interpolator_type="SpiroInterpolator"
       interpolator_beta="0.5"
       start_linecap_type="round"
       linejoin_type="spiro"
       miter_limit="100"
       end_linecap_type="round" />
  </defs>
  <sodipodi:namedview
     pagecolor="#ffffff"
     bordercolor="#666666"
     borderopacity="1"
     objecttolerance="10"
     gridtolerance="10"
     guidetolerance="10"
     inkscape:pageopacity="0"
     inkscape:pageshadow="2"
     inkscape:window-width="2560"
     inkscape:window-height="1346"
     id="namedview837"
     showgrid="false"
     inkscape:zoom="1.8197367"
     inkscape:cx="291.1682"
     inkscape:cy="60.943471"
     inkscape:window-x="-11"
     inkscape:window-y="-11"
     inkscape:window-maximized="1"
     inkscape:current-layer="svg835" />
  <path
     style="fill:#000000;fill-rule:nonzero;stroke:none;stroke-width:1"
     d="m 7.5199868,197.47945 0.4245236,-0.98976 c 8.0703966,-18.83804 15.9758646,-37.74682 23.7164066,-56.72634 2.964012,-7.26764 5.903842,-14.54566 8.846337,-21.82254 0.01749,-0.0433 0.03719,-0.0857 0.05202,-0.12991 5.678077,-16.93369 11.391354,-33.854256 18.415615,-50.286422 0.11447,-0.267784 0.229288,-0.535438 0.344391,-0.802985 l -0.01942,0.05052 c 1.876065,-4.171998 3.48183,-6.611437 4.633661,-7.876825 0.112129,-0.123184 0.216645,-0.23157 0.313529,-0.326522 0.520822,-0.510441 0.790453,-0.554272 0.614025,-0.491235 -0.09833,0.03513 -0.26814,0.06408 -0.464267,0.03767 -0.191616,-0.0258 -0.328436,-0.09422 -0.379744,-0.142396 0.116605,0.109495 -0.02962,-0.221513 0.552232,0.40843 0.184188,0.199413 0.387159,0.454935 0.604695,0.767683 0.224709,0.323059 0.456898,0.69548 0.696091,1.11352 0.961918,1.681164 1.903964,3.855547 2.933361,6.202547 0.466776,1.056726 1.166466,2.894343 2.028905,5.324964 0.860475,2.425084 1.877151,5.422692 2.992614,8.825836 1.458123,4.448559 3.082962,9.583684 4.747003,15.032858 0.881542,2.886754 1.773923,5.861106 2.658475,8.867606 2.55478,8.68343 5.042028,17.62749 7.012427,25.49437 0.985116,3.93311 1.83903,7.58904 2.506004,10.79915 0.244083,1.17476 0.462709,2.2878 0.65327,3.33093 0.380548,1.77752 0.678971,3.33495 0.886727,4.64144 0.486519,3.78513 0.671905,8.76291 0.729499,12.87987 0.05732,4.09711 -0.01303,7.22424 -0.01243,7.19741 a 3.353543,3.353543 90 0 0 6.705388,0.15092 c 5e-4,-0.0222 0.07244,-3.22714 0.01347,-7.44215 -0.05854,-4.18434 -0.246864,-9.49761 -0.790404,-13.69407 -0.004,-0.031 -0.0085,-0.062 -0.01336,-0.0929 -0.232985,-1.47374 -0.559698,-3.17291 -0.960425,-5.04464 -0.263218,-1.07658 -0.551495,-2.21729 -0.86119,-3.41144 -0.844981,-3.25815 -1.858026,-6.94738 -2.97758,-10.88638 -2.239378,-7.87895 -4.926856,-16.8344 -7.606838,-25.51561 -0.928769,-3.008549 -1.857419,-5.986689 -2.767247,-8.878902 -1.717082,-5.458354 -3.368334,-10.614495 -4.829744,-15.093928 -1.117336,-3.424795 -2.126495,-6.462589 -2.969971,-8.938813 -0.834838,-2.450869 -1.533326,-4.42862 -2.010666,-5.660655 -0.856884,-2.226299 -1.772498,-4.778195 -2.697037,-6.807776 -0.244483,-0.536697 -0.501669,-1.065053 -0.7732,-1.568865 -0.261782,-0.485723 -0.545939,-0.965542 -0.857464,-1.418485 -0.606083,-0.881217 -1.443371,-1.849902 -2.611448,-2.480731 -0.606401,-0.327491 -1.306785,-0.565742 -2.084933,-0.636507 -0.782246,-0.07114 -1.550318,0.03573 -2.271039,0.288246 -1.401327,0.490972 -2.500406,1.480767 -3.362267,2.577088 -0.16601,0.211171 -0.327601,0.431772 -0.485157,0.661133 -1.480765,2.155608 -2.844907,5.45976 -4.377428,9.872696 -0.003,0.0085 -0.0063,0.01689 -0.0099,0.02518 -0.0036,0.0083 -0.0068,0.01674 -0.0095,0.02534 -0.08801,0.277642 -0.176299,0.555178 -0.264939,0.832585 -5.439296,17.022643 -12.189575,33.55688 -18.975055,50.078004 l 0.05202,-0.12991 c -3.244298,7.14743 -6.491262,14.29372 -9.714043,21.45037 -8.416317,18.68967 -16.6677062,37.45008 -24.75416771,56.28123 l -0.42452352,0.98976 a 3.9186378,3.9186378 90 0 0 7.20269803,3.08934 z"
     id="path853"
     inkscape:path-effect="#path-effect855"
     inkscape:original-d="m 3.9186378,195.93478 33.9400002,-79.13 19,-50.999998 c 7.52,-18.98 10.706778,-9.636963 14.511778,-0.396963 3.805,9.24 21.455091,65.292421 24.238222,82.896961 1.034535,7.98726 0.75,20.63 0.75,20.63"
     inkscape:connector-curvature="0"
     sodipodi:nodetypes="cccccc" />
  <path
     style="fill:#000000;fill-rule:nonzero;stroke:none;stroke-width:1"
     d="m 17.205672,137.60673 c -0.101383,0.01 0.313562,0.0261 1.534485,-0.17811 0.615957,-0.10302 2.332453,-0.40785 4.392086,-0.8613 2.881029,-0.63429 7.436292,-1.77173 11.242108,-3.54099 0.755605,-0.35323 2.29483,-1.08219 3.830466,-1.81022 0.288122,-0.13659 5.705621,-2.70772 5.993744,-2.84432 0.353865,-0.16801 15.704668,-7.46049 16.058534,-7.62851 -0.309566,0.14712 5.759957,-2.7381 5.45039,-2.59098 1.975104,-0.93927 9.78013,-4.64893 11.755233,-5.5882 5.777735,-2.74632 10.368404,-4.92925 13.167078,-6.27092 0.02263,-0.0108 0.04582,-0.0205 0.06901,-0.03 0.02319,-0.01 0.04561,-0.021 0.06721,-0.0337 1.21611,-0.7196 2.287754,-1.30477 3.144342,-1.76297 1.134725,-0.60699 2.866741,-1.55084 3.61382,-1.91756 0.963464,-0.47293 2.251507,-1.05496 2.965869,-1.44585 0.75494,-0.41309 0.86364,-0.63207 0.86859,-0.79824 0.004,-0.13473 -0.10928,-0.448028 -1.02024,-0.69082 -0.959177,-0.255645 -2.293914,-0.289562 -3.64276,-0.174659 -1.316268,0.112127 -2.725994,0.298789 -4.486138,0.821259 -1.053256,0.31265 -2.3096,0.75612 -3.758243,1.37959 l 0.136219,-0.0638 c -3.047152,1.18514 -7.552805,3.07626 -13.539542,5.66024 -3.637586,1.57005 -7.621408,3.30905 -11.948524,5.20459 -0.320627,0.14046 -5.207824,2.28517 -5.528452,2.42562 -5.040653,2.21389 -11.434614,5.02713 -16.269458,7.12061 -2.27078,0.98324 -4.349166,1.8739 -6.058958,2.58935 -1.659527,0.69442 -2.978322,1.22632 -3.759619,1.50644 -3.164089,1.12248 -7.044409,1.80737 -9.836225,2.18139 -1.945287,0.26061 -3.418059,0.379 -4.021075,0.42939 -1.612464,0.13475 -0.889749,0.11137 -1.274021,0.14882 a 4.4027107,4.4027107 90 0 0 0.854068,8.7639 z"
     id="path851"
     inkscape:path-effect="#path-effect857"
     inkscape:original-d="m 16.778638,133.22478 c 0,0 9.578889,-0.93349 16.15,-3.67 6.571111,-2.73651 43.829927,-20.05608 56.68,-25.62 7.450618,-3.758 11.750002,-3.63 11.750002,-3.63"
     inkscape:connector-curvature="0"
     sodipodi:nodetypes="czcc" />
  <path
     style="fill:#000000;fill-rule:nonzero;stroke:none;stroke-width:1"
     d="m 207.20444,173.42269 c 0,0 0.17702,0.29547 0,0 -0.52897,-0.88295 -1.4532,-2.37273 -2.82949,-4.81437 -1.35891,-2.41081 -3.01829,-5.50688 -4.73506,-8.99438 -0.12467,-0.25325 -0.25003,-0.50901 -0.37608,-0.76728 -2.59628,-5.31948 -5.64692,-12.03843 -8.9387,-19.66529 -2.53778,-5.87988 -5.52352,-13.01446 -8.1099,-19.59831 -0.48013,-1.22224 -0.95211,-2.43985 -1.40735,-3.63466 -0.59248,-1.55498 -1.16259,-3.09384 -1.68539,-4.56553 -0.82682,-2.32754 -1.53472,-4.48568 -2.01934,-6.25327 -1.08765,-4.12493 -1.75416,-7.716938 -2.19031,-11.430557 -0.39429,-3.357132 -0.52313,-5.943208 -0.83699,-9.674481 0.19031,-7.022047 1.28925,-12.378186 3.22909,-16.719956 1.4038,-3.142014 3.25887,-5.778589 5.56032,-8.161259 0.87055,-0.901274 1.83976,-1.801496 2.92888,-2.710691 3.52881,-2.860081 7.46597,-5.030269 12.02216,-6.485155 4.19052,-1.338123 8.76076,-2.027865 13.86426,-2.212597 2.39918,-0.03103 4.53655,0.03135 6.39676,0.257568 1.89322,0.230235 3.35938,0.614594 4.46717,1.145748 1.09436,0.524713 1.81138,1.177291 2.28929,1.979608 0.51428,0.863363 0.87213,2.106553 0.87805,3.936954 3e-5,0.0088 2e-5,0.01765 1.2e-4,0.02647 0.0358,3.231357 -1.19715,6.70451 -3.40379,10.273094 -2.44107,3.947712 -5.95441,7.820812 -9.82596,11.376387 -6.85243,6.29319 -14.84734,11.62464 -20.81411,15.253172 -3.77872,2.297931 -7.24842,4.222134 -10.05613,5.712142 -5.3196,2.595212 -9.51295,4.451802 -11.7011,5.422172 -0.48374,0.21453 -0.99478,0.44099 -1.42606,0.6341 -0.64674,0.28959 -1.18742,0.54107 -1.62633,0.76395 -0.35122,0.17834 -0.70326,0.37121 -1.00578,0.57807 -0.14214,0.0972 -0.36654,0.25999 -0.5811,0.4803 -0.11044,0.1134 -0.26633,0.29055 -0.40747,0.53002 -0.14081,0.23892 -0.31202,0.6166 -0.34537,1.10535 -0.0358,0.52494 0.0988,1.03339 0.36522,1.45815 0.24494,0.39053 0.54841,0.62935 0.76249,0.76537 0.39367,0.25012 0.7759,0.33511 0.94564,0.36851 0.20974,0.0413 0.41525,0.0609 0.58653,0.0723 0.17606,0.0117 0.36417,0.0177 0.55295,0.0208 0.68414,0.0113 1.7435,-0.0117 3.04477,-0.0239 0.34557,-0.003 0.71793,-0.006 1.11598,-0.007 2.57217,-0.009 6.02614,0.0451 10.45678,0.31692 1.16319,0.15798 2.9477,0.36027 5.71681,0.64042 2.2299,0.2256 5.09794,0.49853 8.70597,0.8552 -0.001,-1.1e-4 0.19589,0.0194 0.19478,0.0193 4.69692,0.46505 12.7419,1.30237 18.99699,2.41656 4.79949,1.02922 9.03332,2.58123 11.90551,4.95805 1.30765,1.08212 2.31212,2.31713 2.99169,3.7477 0.65967,1.38868 1.05406,3.04701 1.05812,5.06978 -0.10509,5.11488 -1.32726,9.09745 -3.14288,12.20712 -1.91536,3.28049 -4.52989,5.65574 -7.31732,7.37728 -3.16591,1.95268 -5.52538,2.92566 -7.90406,3.53733 -0.13137,0.0338 -0.26248,0.0663 -0.39336,0.0977 -2.62752,0.63018 -5.64419,0.91956 -9.71225,0.96878 -7.5647,-0.60084 -12.38629,-1.57876 -15.98769,-2.44156 -2.68979,-0.6444 -7.10988,-1.86925 -8.33112,-2.20042 -2.19228,-0.5945 -3.61444,-0.9636 -4.51788,-1.17929 a 2.1693396,2.1693396 90 0 0 -1.00752,4.22008 c 0.82957,0.19805 2.26891,0.53256 4.3543,1.13687 1.9596,0.56786 4.63871,1.48014 8.3192,2.52842 3.78636,1.07844 8.88012,2.32359 16.84858,3.12229 0.0712,0.007 0.14273,0.009 0.21422,0.0103 4.27134,0.10218 7.7991,-0.0668 11.0453,-0.7704 0.16129,-0.035 0.32333,-0.0715 0.4861,-0.10974 3.02853,-0.71133 5.94502,-1.90356 9.54433,-4.09418 3.448,-2.10321 6.80327,-5.10557 9.27179,-9.33621 2.35247,-4.03175 3.78926,-8.99247 3.88913,-14.99613 3.2e-4,-0.019 5.3e-4,-0.0381 4.6e-4,-0.0571 -0.0103,-2.80031 -0.5731,-5.3084 -1.64435,-7.52577 -1.09431,-2.2651 -2.66653,-4.11829 -4.5258,-5.63136 -3.94018,-3.20649 -9.25401,-4.94674 -14.3625,-5.9876 -0.0298,-0.006 -0.0596,-0.0121 -0.0896,-0.0171 -6.56763,-1.11228 -14.74793,-1.8768 -19.51116,-2.27739 -4.1e-4,-3e-5 -0.19659,-0.0165 -0.197,-0.0165 -3.57755,-0.29875 -6.62135,-0.49561 -8.78621,-0.62043 -2.66121,-0.15343 -4.7255,-0.23902 -5.70135,-0.2823 -0.031,-0.001 -0.0619,-0.005 -0.093,-0.007 -4.56329,-0.18626 -8.18052,-0.17364 -10.79026,-0.16473 1.01616,-0.003 -2.14288,0.007 -1.12672,0.004 -1.36947,0.003 -2.2777,-0.005 -2.82233,-0.0497 -0.13482,-0.011 -0.23494,-0.0234 -0.29662,-0.0355 -0.0378,-0.007 -0.10116,-0.0279 -0.016,-0.0173 0.017,0.002 0.2659,0.0343 0.59016,0.23905 0.17542,0.11078 0.45048,0.32223 0.67743,0.68359 0.24834,0.39543 0.37522,0.87252 0.34196,1.36394 -0.0308,0.45505 -0.18914,0.79707 -0.30683,0.99782 -0.11771,0.20077 -0.24066,0.33844 -0.30712,0.40837 -0.15222,0.16016 -0.19885,0.18482 -0.19493,0.1913 0.005,0.008 0.22142,-0.0876 0.50867,-0.20598 0.39342,-0.16212 0.83068,-0.33623 1.50943,-0.60768 0.29947,-0.11976 1.13795,-0.45291 1.43741,-0.57267 2.36794,-0.94384 6.5105,-2.60014 12.13308,-5.23467 0.028,-0.0131 0.0556,-0.0274 0.0831,-0.0415 2.92007,-1.49553 6.50364,-3.427913 10.43691,-5.775727 6.14437,-3.66764 14.51563,-9.169601 21.79537,-15.797394 4.09859,-3.731527 8.03681,-7.99129 10.87279,-12.540255 2.5461,-4.083983 4.34938,-8.636214 4.31247,-13.359903 l 1.2e-4,0.02647 c 0.006,-2.554959 -0.48091,-4.896876 -1.6557,-6.896484 -1.14044,-1.941135 -2.79524,-3.330692 -4.76696,-4.284454 -1.88591,-0.912255 -4.03849,-1.417104 -6.29409,-1.694565 -2.24389,-0.276021 -4.68928,-0.338049 -7.21864,-0.305056 -0.022,2.87e-4 -0.0439,8.27e-4 -0.0658,0.0016 -5.51498,0.195992 -10.64827,0.949447 -15.47272,2.498066 -5.26917,1.691374 -9.84839,4.231531 -13.92108,7.557173 -0.0101,0.0083 -0.0203,0.01659 -0.0303,0.02501 -1.24226,1.042648 -2.36894,2.094101 -3.39622,3.166368 -2.72102,2.84017 -4.95255,6.047913 -6.62137,9.868572 -2.30676,5.281156 -3.42981,11.48375 -3.55747,19.055461 -0.002,0.10642 6.6e-4,0.212942 0.0116,0.318813 0.37398,3.618923 0.58985,6.516212 1.07279,10.015232 0.54597,3.955753 1.32633,7.766337 2.52442,12.098517 0.002,0.006 0.003,0.0122 0.005,0.0183 0.54703,1.93872 1.31583,4.23034 2.17429,6.61332 0.54477,1.51219 1.13427,3.085 1.74191,4.66489 0.46728,1.21493 0.95239,2.44851 1.44664,3.68407 2.66884,6.67168 5.75182,13.77131 8.36792,19.67856 2.96818,6.70224 5.90219,13.11934 8.87037,19.82158 -0.002,-0.005 0.34955,0.7912 0.34739,0.78632 1.5499,3.5145 2.97449,6.90551 4.01889,9.43168 1.05771,2.55837 1.7712,4.34112 2.16652,5.2691 0.13942,0.32729 0,0 0,0 a 3.3379367,3.3379367 90 0 0 5.9516,-3.02418 z"
     id="path849"
     inkscape:path-effect="#path-effect888"
     inkscape:original-d="m 204.22864,174.93478 c -7.5,-14.76 -25.67,-54.93 -29.62,-69.13 -2.5,-9.249998 -2.68,-14.889998 -3.32,-21.699998 0.31,-14.8 4.5243,-23.112518 12.65785,-29.918222 8.10356,-6.596593 17.28215,-9.011778 27.66215,-9.381778 9.88,-0.13 17,1.25 17,10.25 0.14,15.32 -22.77,33.062851 -45.77,45.049998 -21.22287,10.14897 -21.25857,6.68713 -0.29,7.76 4.81,0.44 22.44,1.57 33.94,3.57 10.74,2.24 18.24,6.87 18.26,16.48 -0.2,11.04 -5.24,17.94 -11.81,21.97 -6.09,3.73 -10.65,4.85 -19.58,4.79 -14.52,-1.3 -19.7,-4.03 -29.25,-6.31"
     inkscape:connector-curvature="0"
     sodipodi:nodetypes="ccccccccccccc" />
  <path
     style="fill:#000000;fill-rule:nonzero;stroke:none;stroke-width:1"
     d="m 305.48521,45.384561 c -0.42499,0.02556 -1.25275,0.05913 -2.24512,0.310066 -1.78041,0.450207 -3.97037,1.605614 -6.60165,3.519447 0,-3e-6 -0.0294,0.0214 -0.0294,0.0214 -2.27013,1.654931 -4.86579,3.98696 -7.46609,7.205851 -2.35658,2.917189 -5.05905,7.007536 -7.11979,11.990681 -0.85524,2.068071 -1.69439,4.506779 -2.25176,7.099382 -0.003,0.01298 -0.005,0.02601 -0.008,0.03903 -0.32811,1.637222 -0.75842,3.450166 -1.4308,6.390603 -0.53979,2.360561 -1.22094,5.39579 -1.84954,8.673281 -1.12467,5.863918 -2.25981,13.381698 -2.1724,20.868118 2e-4,0.0174 7.4e-4,0.0348 0.001,0.0521 0.14685,4.82441 0.0993,8.87531 0.49689,12.30759 0.2073,1.78944 0.53817,3.49764 1.08328,5.2433 0.5564,1.78178 1.31591,3.53722 2.32448,5.3863 0.0312,0.0572 0.0652,0.11287 0.10036,0.16777 1.75496,2.742 3.979,4.46436 6.24644,5.5134 2.09044,0.96716 4.17585,1.34362 5.89605,1.47316 0.60881,0.0459 1.1957,0.0627 1.75135,0.0596 0.0191,-1e-4 0.0382,-3.4e-4 0.0573,-8.3e-4 1.8143,-0.0469 3.55935,-0.14559 5.52264,-0.54001 2.17742,-0.43744 4.44629,-1.21124 6.89546,-2.51364 3.99938,-2.12674 9.82542,-6.33787 18.06353,-16.45626 -8e-5,1e-4 0.0938,-0.11531 0.0937,-0.11522 0.0306,-0.0377 0.0604,-0.0761 0.0889,-0.11547 4.36591,-6.02554 9.63933,-17.28773 10.20083,-31.682781 6.3e-4,-0.01632 0.001,-0.03263 0.002,-0.04896 0.11863,-5.80904 -0.81051,-12.165536 -3.32368,-17.91541 -2.68324,-6.138974 -6.98155,-11.153552 -12.98907,-14.313479 -0.12178,-0.06406 -0.24816,-0.119095 -0.37866,-0.162738 -1.98082,-0.66245 -4.22746,-1.868132 -5.744,-2.747434 -0.86167,-0.499606 -1.58841,-0.951853 -2.07811,-1.263402 -0.19143,-0.121782 -0.36966,-0.236764 -0.53347,-0.343589 -1.04709,-0.682828 -1.68488,-1.149736 -1.84107,-1.263612 a 2.5765539,2.5765539 90 0 0 -3.0359,4.163868 c 0.20119,0.14669 0.92312,0.66706 2.05794,1.410946 0.17775,0.116515 0.3709,0.241951 0.57785,0.374723 0.52817,0.338846 1.31484,0.833467 2.25084,1.382308 1.52388,0.893556 4.03131,2.278572 6.46444,3.1401 4.74635,2.559738 8.21344,6.588148 10.43955,11.717671 2.13128,4.910986 2.96022,10.473199 2.84197,15.676379 -0.55186,13.200487 -5.42923,23.408547 -9.23315,28.634597 -0.023,0.0282 -0.0465,0.0569 -0.0465,0.057 -7.9244,9.6959 -13.23139,13.32679 -16.44397,15.00226 -1.99088,1.0383 -3.75922,1.61247 -5.40597,1.93065 -1.49638,0.28912 -2.86271,0.36972 -4.55186,0.41063 -0.41719,6.2e-4 -0.84769,-0.0129 -1.2854,-0.0454 -1.27876,-0.0951 -2.67591,-0.35514 -4.00506,-0.95191 -1.37384,-0.61684 -2.75995,-1.62816 -3.92674,-3.36994 -0.8462,-1.53289 -1.45476,-2.92418 -1.8978,-4.28897 -0.44304,-1.36481 -0.73059,-2.73288 -0.92412,-4.24987 -0.39841,-3.12294 -0.38034,-6.66249 -0.5767,-11.82474 -0.11669,-6.95944 0.90438,-14.074893 1.96985,-19.808331 0.59248,-3.18826 1.24027,-6.160002 1.76191,-8.509283 0.63824,-2.8744 1.08055,-4.798752 1.41342,-6.522555 0.46946,-2.218595 1.1931,-4.355047 1.9575,-6.212563 1.84644,-4.486886 4.22086,-8.228073 6.29744,-10.861438 2.30222,-2.919514 4.52938,-4.880751 6.47965,-6.078336 0,-2e-6 0.0249,-0.01526 0.0249,-0.01526 2.22994,-1.363603 4.02979,-1.554399 5.07414,-1.715803 0.6346,-0.09808 1.06508,-0.168769 1.32723,-0.184533 a 3.0557308,3.0557308 90 0 0 -0.36686,-6.100442 z"
     id="path847"
     inkscape:connector-curvature="0"
     sodipodi:nodetypes="ccccccccc"
     inkscape:path-effect="#path-effect890"
     inkscape:original-d="m 305.66864,48.434782 c -10.31,0.62 -20.87425,15.574269 -23.44,27.62 -1.34445,6.84269 -5.5,21.5 -5.3,35.409998 0.35,10.2 -0.1443,14.76393 3.68,21.71 2.76,4.26 7,5.76 11.59,5.74 6.20139,-0.15428 14.16,-0.86 28.55,-18.54 5.35,-7.35 9.27,-18.55 9.74,-30.199998 0.24,-11 -3.5,-23.87 -14.88,-29.87 -3.96857,-1.344276 -8.96572,-4.604284 -10.88,-6" />
  <path
     style="fill:#000000;fill-rule:nonzero;stroke:none;stroke-width:1"
     d="m 377.79949,40.968521 c 0.0371,0.277155 0.086,0.887234 0.20742,1.644848 0.2834,1.7678 1.02261,4.93473 1.72675,9.262632 0.32991,2.027754 0.80162,4.946621 1.51603,8.562713 0.74175,6.171026 1.71428,14.163644 4.29975,28.57424 0.0163,0.09096 0.0374,0.181002 0.0633,0.269713 1.18558,4.063602 2.29484,7.755752 3.34886,11.140523 2.0582,6.6095 3.94023,12.1703 5.74135,16.89965 2.83218,7.43671 5.52369,12.97369 8.39461,17.09834 2.94687,4.23377 6.16595,7.09606 9.99289,8.85108 3.76579,1.72699 7.9003,2.28122 12.56063,2.2516 l -0.0125,1.5e-4 c 5.0542,-0.015 10.12679,-1.74211 14.86241,-5.17664 1.3714,-0.99461 2.71577,-2.13323 4.02466,-3.41647 2.8106,-2.7555 5.64425,-6.36712 8.28236,-11.02272 6.5648,-11.58523 11.6251,-29.191472 11.96003,-53.305004 l -2e-4,0.01105 c 0.21118,-13.581813 -0.81743,-21.080827 -1.98094,-26.35531 -0.67823,-3.074569 -1.51282,-5.7811 -2.03133,-7.522618 -0.64757,-2.175035 -1.02391,-3.545475 -1.23463,-4.641842 -0.22186,-1.154332 -0.19308,-1.881459 -0.22365,-2.242021 -0.0113,-0.13327 0,0 0,0 a 3.1479875,3.1479875 90 0 0 -6.13728,1.4047 c 0,0 -0.0511,-0.139336 0,0 0.14751,0.402264 0.48971,1.073637 0.90519,2.29656 0.21476,0.632151 1.00136,3.104163 1.50809,4.75114 0.55038,1.788836 1.27564,4.216432 1.86461,7.093317 0.98049,4.789314 1.84812,11.863781 1.51156,25.097192 -9e-5,0.0037 -1.3e-4,0.0074 -2e-4,0.01105 -0.4553,23.386048 -5.47404,39.90508 -11.45747,50.37749 -2.39688,4.19511 -4.89597,7.34245 -7.2625,9.67823 -1.10353,1.08919 -2.21557,2.03791 -3.32642,2.85477 -3.81313,2.80398 -7.66188,4.09634 -11.32414,4.16867 -0.004,8e-5 -0.008,5e-5 -0.0125,1.5e-4 -4.19784,0.0971 -7.41203,-0.33214 -10.16061,-1.50871 -2.74177,-1.17366 -5.29617,-3.21179 -7.87587,-6.79111 -2.56229,-3.55515 -5.12636,-8.59631 -7.92913,-15.84258 -1.77193,-4.58115 -3.63265,-10.02355 -5.67379,-16.56755 -1.03272,-3.310933 -2.12037,-6.928316 -3.28324,-10.915008 -2.51521,-14.101689 -3.38358,-22.408669 -3.7843,-28.238409 -0.005,-0.07885 -0.0196,-0.156746 -0.0322,-0.234769 -0.57688,-3.568069 -0.85801,-6.317093 -1.00877,-8.337063 -0.31418,-4.209646 -0.12756,-7.540536 -0.27889,-9.432027 -0.0653,-0.816415 -0.18085,-1.452964 -0.22165,-1.757431 a 3.7927525,3.7927525 90 0 0 -7.5183,1.007478 z"
     id="path845"
     inkscape:path-effect="#path-effect892"
     inkscape:original-d="m 381.55864,40.464782 c 0.8,5.97 0.93178,10.897482 2.48481,19.523926 0.56697,5.993407 1.5025,14.251751 4.06519,28.566074 13.38,45.879998 20,54.249998 37.5,53.999998 17.86,-0.18 35.5,-24.91 36.25,-69.999998 0.52,-25.45 -3.3,-29.82 -5.63,-40"
     inkscape:connector-curvature="0"
     sodipodi:nodetypes="cccccc" />
  <path
     style="fill:#000000;fill-rule:nonzero;stroke:none;stroke-width:1"
     d="m 484.55118,14.866746 c 0.97452,-0.357654 3.36275,-1.324389 6.31552,-2.10677 2.81073,-0.744744 6.81244,-1.471549 12.07645,-2.160799 3.08889,-0.404447 6.52571,-0.7856571 10.4712,-1.1699541 5.31502,-0.5176908 12.0507,-1.0758037 20.82848,-1.3841312 2.65892,-0.1946391 7.18955,-0.4941692 12.07263,-0.8076483 4.45379,-0.2859198 9.81839,-0.6232414 13.71546,-0.844162 1.23092,-0.06978 2.40432,-0.1342198 3.53064,-0.1946566 6.53303,-0.3505529 12.39991,-0.6017478 17.42752,-0.9960762 0,0 0.005,-4.294e-4 0.005,-4.293e-4 2.77264,-0.2174961 5.15429,-0.4273289 7.20465,-0.6495123 1.89147,-0.2049659 3.78155,-0.4510033 5.31816,-0.7421297 1.21561,-0.2287237 2.44458,-0.4587762 3.66487,-0.6854886 5.18002,-0.9623737 10.04292,-1.8468372 13.68105,-2.42818825 1.86853,-0.29858064 3.464,-0.52531611 4.58468,-0.63004648 0.51621,-0.04824069 1.03544,-0.08134255 1.45793,-0.06029845 0.19765,0.00984469 0.49385,0.03565343 0.80402,0.13507797 0.15669,0.0502275 0.39454,0.14332346 0.6421,0.32144493 0.25217,0.18144586 0.58357,0.50307332 0.77067,1.01306838 0.19484,0.5310834 0.15121,1.0437637 0.0208,1.4399616 -0.11859,0.3602144 -0.30467,0.6198467 -0.43056,0.7723174 -0.2411,0.2920087 -0.51804,0.4956197 -0.68376,0.6092412 -0.36214,0.2483036 -0.80889,0.4780427 -1.29513,0.6987115 -0.97517,0.4425592 -2.40145,0.9769126 -4.32019,1.6169788 -2.10697,0.7028597 -4.83482,1.5417084 -8.2278,2.5226338 -2.50282,0.7235758 -5.45982,1.5540889 -8.94565,2.5055739 -4.3527,1.375502 -9.96717,2.674554 -16.57409,3.929027 -6.0415,1.147116 -12.29976,2.140534 -17.64256,2.958989 l 0.0668,-0.01008 c -4.13877,0.71101 -7.37962,1.379289 -10.05786,2.181313 -2.90856,0.870992 -4.85499,1.817711 -6.2612,2.858303 -0.2824,0.208971 -0.54173,0.42094 -0.78097,0.635527 -1.11157,0.997027 -1.89584,2.146372 -2.47205,3.496265 -0.80872,1.894585 -1.27806,4.365139 -1.37697,7.587033 l 4.6e-4,-0.05306 c -0.0223,0.793456 -0.0518,1.919456 -0.0889,3.455307 -0.0352,1.458512 -0.0758,3.231777 -0.12068,5.319273 -0.0645,3.001749 -0.13601,6.564591 -0.21234,10.705931 -0.001,0.06304 -0.055,3.047378 -0.0561,3.110415 -0.0384,2.166938 -0.19893,11.789588 -0.23731,13.956526 -0.0668,3.969321 -0.12554,7.387327 -0.16326,9.161108 -0.10949,7.476823 -0.88741,18.109089 -1.93059,28.028888 -0.53437,5.08143 -1.12398,9.83896 -1.71465,13.85467 -0.63782,4.33633 -1.26384,7.72891 -1.85352,10.00779 -0.11381,0.5562 -0.15958,1.02577 -0.16754,1.41785 -0.0136,0.6682 0.0799,1.2048 0.23057,1.64029 0.24613,0.71147 0.70143,1.30642 1.37553,1.79188 0.74466,0.53627 1.62193,0.8395 2.3745,0.9772 0.44321,0.0811 0.82015,0.10158 1.10684,0.0972 0.37473,-0.006 0.62472,-0.0552 0.71458,-0.0735 0.0236,-0.005 0,0 0,0 a 1.399986,1.399986 90 0 1 1.59924,2.29832 c 0,0 0.0742,-0.0632 0,0 -0.34799,0.29659 -0.84955,0.62399 -1.56777,0.88438 -0.52402,0.19 -1.16087,0.34248 -1.89831,0.40839 -1.20668,0.10784 -2.77815,-0.0142 -4.353,-0.68436 -1.45469,-0.61907 -2.9243,-1.72214 -3.88947,-3.48843 -0.58845,-1.07691 -0.9374,-2.31022 -1.02332,-3.66246 -0.0534,-0.84088 -0.007,-1.75383 0.15978,-2.7409 0.008,-0.0445 0.0187,-0.0882 0.0283,-0.13232 0.44578,-2.0467 0.98775,-5.24387 1.58227,-9.5384 0.54537,-3.93952 1.10979,-8.62292 1.63285,-13.65002 1.02453,-9.846614 1.81429,-20.29112 1.94437,-27.530968 1.5e-4,-0.0081 2.7e-4,-0.01625 5e-4,-0.02437 0.0496,-1.736963 0.1194,-5.153712 0.18909,-9.138714 0.0764,-4.369939 0.1517,-9.355212 0.20738,-13.944415 -2.6e-4,0.02134 0.0356,-3.129565 0.0353,-3.108225 0.0433,-4.116742 0.0681,-7.719855 0.0772,-10.695123 0.006,-2.079048 0.005,-3.857914 -0.003,-5.303649 -0.008,-1.502817 -0.0235,-2.667572 -0.0452,-3.399577 -5.2e-4,-0.01768 3.6e-4,-0.03537 4.6e-4,-0.05306 0.0219,-3.640914 0.46682,-6.975952 1.64397,-9.880153 0.86935,-2.144812 2.16382,-4.12028 4.06414,-5.810815 0.39564,-0.351964 0.81502,-0.68947 1.2594,-1.012707 2.20704,-1.60536 4.91833,-2.781075 8.26662,-3.720761 3.06026,-0.858852 6.61033,-1.511372 10.81681,-2.157121 0.0222,-0.0034 0.0444,-0.0073 0.0668,-0.01008 5.36252,-0.675007 11.53795,-1.479007 17.52993,-2.426012 6.55469,-1.0359378 12.00446,-2.1044985 16.14352,-3.2228487 0.0203,-0.00548 0.0404,-0.011717 0.0607,-0.016993 3.50261,-0.9085452 6.46663,-1.695462 8.96883,-2.3756601 3.38112,-0.9191205 6.07253,-1.6796447 8.13666,-2.2946261 1.90905,-0.5687792 3.19754,-0.9881805 4.02224,-1.29055498 0.4051,-0.14852812 0.67331,-0.27228324 0.69716,-0.26558681 0.0121,0.0034 -0.0444,0.0214454 -0.229,0.24974846 -0.0798,0.0987202 -0.23546,0.30969693 -0.33812,0.62326673 -0.11451,0.3497927 -0.15742,0.8196426 0.0234,1.3113937 0.17303,0.4704949 0.47525,0.7560067 0.68365,0.9050009 0.20413,0.14594 0.3817,0.2088025 0.46552,0.2338723 0.38288,0.1145201 0.0285,-0.03135 0.18265,0.021476 -0.0901,-0.030875 -0.40741,-0.050284 -0.85424,-0.041036 -0.95887,0.019845 -2.43307,0.15825 -4.29076,0.3966554 -3.56889,0.4580124 -8.40621,1.2644426 -13.56551,2.2235611 -1.21768,0.2263671 -2.43489,0.4571227 -3.63922,0.6890687 -1.61201,0.3246051 -3.64949,0.6452574 -5.52831,0.9163053 -2.06551,0.2979813 -4.51502,0.6188603 -7.28308,0.9403309 -10e-6,2e-7 -0.006,6.401e-4 -0.006,6.401e-4 -5.00625,0.5813175 -10.97346,1.2893598 -17.46338,1.8778538 -1.12727,0.102219 -2.30317,0.204291 -3.53552,0.30588 -4.20388,0.346548 -8.97837,0.669098 -13.73776,0.967802 -4.92577,0.309147 -9.4413,0.567632 -12.07942,0.75166 -0.0311,0.0022 -0.0622,0.0039 -0.0933,0.0049 -8.62197,0.289504 -15.32679,0.879528 -20.43122,1.594291 -3.8005,0.532174 -7.10699,1.196339 -9.9819,1.899882 -4.90832,1.201154 -8.51731,2.511389 -11.04573,3.360554 -2.61769,0.879143 -4.99267,1.636296 -5.8798,1.961877 a 3.7368265,3.7368265 90 0 1 -2.57492,-7.016072 z"
     id="about"
     inkscape:path-effect="#path-effect894"
     inkscape:original-d="m 485.83864,18.374782 c 8.91,-3.27 22,-6.91 48.54,-7.82 10.48,-0.7500002 47.98,-2.7500002 59.48,-5.0000002 30.40909,-5.78839758 31.51,-4.47 0.7,3.73 -9.12,2.6800002 -23.2,4.7700002 -33.95,6.2700002 -16.12,2.62 -23.25,5.38 -23.5,19.67 0,6.08 -0.5,38.83 -0.67,45.66 -0.24,14.76 -3.15,42.219998 -5.33,51.309998 -1.5,7.98 6.69,9.3 9.09,7.63"
     inkscape:connector-curvature="0"
     sodipodi:nodetypes="ccccccccc" />
</svg>
