<?xml version="1.0" encoding="UTF-8" standalone="no"?>
<svg
   xmlns:dc="http://purl.org/dc/elements/1.1/"
   xmlns:cc="http://creativecommons.org/ns#"
   xmlns:rdf="http://www.w3.org/1999/02/22-rdf-syntax-ns#"
   xmlns:svg="http://www.w3.org/2000/svg"
   xmlns="http://www.w3.org/2000/svg"
   xmlns:sodipodi="http://sodipodi.sourceforge.net/DTD/sodipodi-0.dtd"
   xmlns:inkscape="http://www.inkscape.org/namespaces/inkscape"
   width="8.1974154in"
   height="3.0322449in"
   viewBox="0 0 590.21476 218.32183"
   version="1.1"
   id="svg"
   sodipodi:docname="art-path.svg"
   inkscape:version="0.92.3 (2405546, 2018-03-11)">
  <style
     id="style2">svg{cursor: pointer;-webkit-touch-callout: none;-webkit-user-select: none;-khtml-user-select: none;-moz-user-select: none;-ms-user-select: none;user-select: none;cursor: url("/content/selectcursor.gif"), auto;}</style>
  <metadata
     id="metadata372">
    <rdf:RDF>
      <cc:Work
         rdf:about="">
        <dc:format>image/svg+xml</dc:format>
        <dc:type
           rdf:resource="http://purl.org/dc/dcmitype/StillImage" />
        <dc:title />
      </cc:Work>
    </rdf:RDF>
  </metadata>
  <defs
     id="defs370">
    <inkscape:path-effect
       effect="powerstroke"
       id="path-effect4909"
       is_visible="true"
       offset_points="0.044000884,-0.76307115 | 1.0528475,-3.6587868 | 1.988677,-3.4404293 | 3.982469,-3.8340104 | 2.9842403,-3.2560424"
       sort_points="true"
       interpolator_type="CentripetalCatmullRom"
       interpolator_beta="0.5"
       start_linecap_type="round"
       linejoin_type="spiro"
       miter_limit="100"
       end_linecap_type="round" />
    <inkscape:path-effect
       effect="powerstroke"
       id="path-effect4907"
       is_visible="true"
       offset_points="0,-3.9180061 | 1.400952,-3.2723521 | 2.7603183,-3.1957943"
       sort_points="true"
       interpolator_type="CentripetalCatmullRom"
       interpolator_beta="0.5"
       start_linecap_type="round"
       linejoin_type="spiro"
       miter_limit="100"
       end_linecap_type="round" />
    <inkscape:path-effect
       effect="powerstroke"
       id="path-effect4905"
       is_visible="true"
       offset_points="0.2279012,-3.934036 | 1.8679463,-2.8313981 | 2.825723,-2.4694996 | 3.3897961,-2.7310464 | 1.2284406,-2.8859938 | 4.1914631,-2.3412838 | 3.8709672,-2.8320936 | 5.7736791,-3.3664501"
       sort_points="true"
       interpolator_type="CentripetalCatmullRom"
       interpolator_beta="0.5"
       start_linecap_type="round"
       linejoin_type="spiro"
       miter_limit="100"
       end_linecap_type="round" />
    <inkscape:path-effect
       effect="powerstroke"
       id="path-effect4903"
       is_visible="true"
       offset_points="0.18962319,-3.5661892 | 0.99831687,-2.1644312 | 0.87861328,-2.6727636 | 2,-0.63696411"
       sort_points="true"
       interpolator_type="CentripetalCatmullRom"
       interpolator_beta="0.5"
       start_linecap_type="round"
       linejoin_type="spiro"
       miter_limit="100"
       end_linecap_type="round" />
    <inkscape:path-effect
       effect="powerstroke"
       id="path-effect4870"
       is_visible="true"
       offset_points="0.014556282,-4.3488084 | 0.37618159,-3.1238512 | 1.4634672,-3.0670415 | 2.0119367,-3.7764162 | 2.2527187,-2.6428243 | 3.8685295,-4.0369848"
       sort_points="true"
       interpolator_type="CentripetalCatmullRom"
       interpolator_beta="0.5"
       start_linecap_type="round"
       linejoin_type="spiro"
       miter_limit="100"
       end_linecap_type="round" />
  </defs>
  <sodipodi:namedview
     pagecolor="#ffffff"
     bordercolor="#666666"
     borderopacity="1"
     objecttolerance="10"
     gridtolerance="10"
     guidetolerance="10"
     inkscape:pageopacity="0"
     inkscape:pageshadow="2"
     inkscape:window-width="2560"
     inkscape:window-height="1346"
     id="namedview368"
     showgrid="false"
     inkscape:zoom="1.1373504"
     inkscape:cx="356.14575"
     inkscape:cy="156.35384"
     inkscape:window-x="-11"
     inkscape:window-y="-11"
     inkscape:window-maximized="1"
     inkscape:current-layer="svg366" />
  <path
     style="fill:#000000;fill-rule:nonzero;stroke:none;stroke-width:1"
     inkscape:path-effect="#path-effect4870"
     inkscape:original-d="m 4.3488084,213.97308 c 5.7499996,-12.92 19.6102856,-41.022 38.0499996,-82.08 9.486569,-22.32371 20.95,-60.580009 31.87,-78.500009 11.42,22.25 22.42,77.580009 24.02,110.700009 0.73,10.73 3.600002,17.9 5.350002,23.67"
     d="m 0.37570519,212.20486 c 0.0422021,-0.0948 0.10164334,-0.26202 0.26054069,-0.58347 0.39852222,-0.80623 1.59115192,-2.86615 3.45797432,-6.2504 1.8614522,-3.37451 4.4274215,-8.13638 7.1744228,-13.64006 1.302706,-2.61 2.864442,-5.79546 4.658938,-9.51231 5.629938,-11.661 14.068205,-29.62151 23.839669,-51.46883 4.393647,-10.42786 10.265269,-27.33985 13.966195,-37.610745 0.103899,-0.288345 1.056049,-2.936401 1.159949,-3.224746 2.854603,-7.944617 5.353683,-14.908182 7.87056,-21.224691 2.948307,-7.399258 5.607924,-13.095671 8.264768,-17.270963 0.396939,-0.6238 0.811186,-1.252149 1.381636,-1.722547 0.570449,-0.470398 1.299126,-0.76426 2.038269,-0.745414 0.739142,0.01885 1.453895,0.35216 1.986855,0.864644 0.532961,0.512484 0.882035,1.181995 1.208939,1.845185 0.141373,0.286804 0.280442,0.575982 0.417152,0.86713 1.582522,3.370269 2.601977,6.569385 3.457528,9.446902 0.462667,1.556107 2.360337,8.171335 3.631174,12.680483 -5.56e-4,-0.002 0.08314,0.295152 0.08258,0.293175 1.788473,6.353234 4.39946,15.992563 7.22501,29.192037 3.91663,18.29642 7.699136,41.17709 8.813736,59.80874 l -0.003,-0.0586 c 0.59831,5.657 1.84414,10.09411 2.97178,13.44925 1.1235,3.34282 2.08472,5.632 2.50071,6.83307 0.44617,1.28818 0.63259,1.99419 0.76134,2.4187 a 4.0369848,4.0369848 90 0 1 -7.726421,2.34336 c -0.10937,-0.3606 -0.345381,-1.02687 -0.720437,-2.28781 -0.234903,-0.78975 -1.131721,-4.04826 -1.855753,-7.38489 -0.821606,-3.78629 -1.682878,-8.7726 -1.889982,-14.96628 -6.54e-4,-0.0196 -0.0027,-0.0391 -0.0034,-0.0586 -0.662206,-18.16411 -4.078506,-40.93221 -7.841266,-59.04376 -2.703493,-13.012905 -5.347363,-22.626432 -7.294529,-28.726048 -0.03046,-0.09541 -0.06079,-0.190095 -0.09101,-0.284061 C 78.248199,70.488808 76.689511,66.89417 75.462197,64.260087 74.46236,62.11422 72.608756,58.385884 71.293556,55.88014 71.160073,55.625825 71.02662,55.374223 70.893198,55.125634 l 6.615695,0.241865 c -2.260924,3.899155 -4.966942,8.948939 -8.240258,16.101745 -2.734905,5.976277 -5.585508,12.811629 -8.569485,20.599822 -0.403032,1.051915 -0.805935,2.114525 -1.208704,3.187505 -3.709266,9.881519 -9.99493,27.354649 -14.451145,37.758599 -0.0076,0.0178 -0.01533,0.0356 -0.0233,0.0533 -9.733689,21.58327 -18.432198,40.19152 -23.713248,51.68254 -1.740401,3.78693 -3.181622,6.9525 -4.385192,9.64893 -2.536729,5.68318 -4.520865,10.5497 -5.915874,14.18541 -1.373257,3.57901 -2.1029181,5.78296 -2.4278315,6.5917 -0.1303138,0.32437 -0.2108408,0.47187 -0.2519399,0.56422 a 4.3488084,4.3488084 90 0 1 -7.94620641,-3.53644 z"
     id="path4899"
     inkscape:connector-curvature="0" />
  <path
     style="fill:#000000;fill-rule:nonzero;stroke:none;stroke-width:-3.57313037"
     d="m 17.104651,144.35102 c 1.154769,-0.13502 4.383625,-0.57572 9.804269,-1.15735 1.126244,-0.12084 2.545195,-0.27111 4.170984,-0.44082 4.822902,-0.50342 12.610886,-1.29837 21.010911,-2.07249 7.141398,-0.65813 14.242375,-1.25758 20.937151,-1.73953 6.654538,-0.47906 11.897679,-0.76805 15.516043,-0.90675 5.289354,-0.20276 5.70133,-0.0525 10.841167,-0.11657 0.005,-6e-5 0.140626,-0.002 0.145603,-0.002 0.0062,-7e-5 0.01234,-5.9e-4 0.01849,-0.001 0.0062,-6e-4 0.01234,-6.4e-4 0.01851,-1.8e-4 3.026775,0.22637 6.942255,0.0249 10.523145,-0.83901 3.25072,-0.78422 5.30991,-1.73555 6.14752,-2.00418 0.0584,-0.0187 0,0 0,0 a 0.63696411,0.63696411 90 0 1 0.56072,1.14388 c 0,0 0.0486,-0.0337 0,0 -0.31797,0.22063 -2.86643,2.06869 -5.87498,3.34832 -3.96852,1.68794 -7.748,2.23641 -11.234339,2.66849 l 0.037,-0.001 c -2.33e-4,2e-5 -0.143305,0.0113 -0.143538,0.0114 -5.066928,0.40353 -5.454513,0.61422 -10.677018,1.12548 -3.988168,0.39042 -8.344173,0.79362 -15.356274,1.52072 -6.72123,0.69694 -13.600035,1.45898 -20.778217,2.30026 -8.554286,1.00256 -15.874782,1.92359 -20.882203,2.56032 -1.16642,0.14832 -2.983426,0.38056 -4.149845,0.52888 -5.740664,0.73085 -8.44817,0.99878 -9.806777,1.15764 a 3.5661892,3.5661892 90 0 1 -0.828314,-7.08412 z"
     id="path4897"
     inkscape:connector-curvature="0"
     inkscape:path-effect="#path-effect4903"
     inkscape:original-d="m 17.518808,147.89308 c 12.23,-1.43 53.5,-6.52 82.11,-7.82 9.549992,-0.27 13.829992,-2.93 16.889992,-4.43" />
  <path
     style="fill:#000000;fill-rule:nonzero;stroke:none;stroke-width:-3.57313037"
     d="m 241.09793,193.04545 c -0.71858,-1.53001 -2.42033,-5.07381 -4.01296,-9.48773 -1.06562,-2.95336 -2.39274,-7.15364 -3.53102,-12.34707 -1.70711,-7.78883 -2.73459,-16.58351 -2.88442,-27.20233 -4.3e-4,-0.03 -0.002,-0.06 -0.001,-0.09 0.0711,-9.15037 1.83666,-18.09734 4.10248,-25.75739 3.24612,-10.97419 7.96764,-20.857814 12.94964,-28.784677 4.83744,-7.696844 10.6705,-14.75866 17.17819,-19.905444 2.8523,-2.255821 5.97346,-4.252615 9.30212,-5.716284 3.41559,-1.501895 7.13662,-2.480402 11.02704,-2.519689 l -0.0232,4.39e-4 c 6.07971,-0.07615 12.16897,1.954953 16.82215,5.339561 2.4001,1.745773 4.27579,3.748945 5.58613,5.837914 0.43538,0.694087 0.80429,1.390791 1.11088,2.085103 0.76747,1.738057 1.16507,3.5091 1.19043,5.265218 2.9e-4,0.02052 -3.7e-4,0.04103 -7.6e-4,0.06155 -0.0646,3.437383 -1.14279,6.68272 -2.80921,9.654679 -1.72891,3.083386 -4.15279,5.985257 -6.98888,8.671752 -3.20434,3.035302 -7.05161,5.906162 -11.3134,8.566622 -3.34579,2.08865 -6.9447,4.05735 -10.6863,5.88144 -8.75269,4.26707 -18.05985,7.63617 -26.51164,9.92536 -4.41579,1.19603 -8.55227,2.08619 -12.29633,2.68612 -1.20578,0.19321 -2.3509,0.35151 -3.43844,0.47932 1.22878,0.77899 2.63198,1.65747 4.25441,2.6596 1.23938,0.76554 2.6602,1.63683 4.27039,2.61877 5.17836,3.15791 12.37663,7.49673 20.86886,12.58262 13.21117,7.91199 29.13108,17.37682 38.27528,22.72267 0.002,0.001 0.004,0.002 0.005,0.003 0.002,0.001 0.004,0.002 0.005,0.003 0.78625,0.39378 1.80745,0.83736 3.00569,1.29822 1.30462,0.50178 2.66131,0.96364 3.93805,1.35888 1.70994,0.52934 3.06573,0.87568 4.04868,1.11595 0.12734,0.0311 0.247,0.0601 0.35866,0.0872 1.62499,0.39372 2.5737,0.56882 2.92702,0.61626 a 3.3664501,3.3664501 90 0 1 -0.89592,6.67302 c -0.59696,-0.0801 -1.83855,-0.23671 -3.75364,-0.78045 -0.12955,-0.0368 -0.26726,-0.077 -0.41287,-0.12078 -1.10036,-0.33076 -2.63326,-0.85875 -4.43663,-1.59686 -1.35285,-0.55371 -2.81707,-1.20977 -4.21351,-1.92019 -1.26262,-0.64233 -2.46512,-1.32682 -3.44525,-2.00521 l 0.0107,0.006 c -8.63196,-5.36872 -25.14937,-15.51664 -37.91222,-23.34483 -8.24352,-5.05622 -15.80762,-9.68818 -20.79583,-12.72269 -1.61132,-0.98023 -3.03981,-1.84625 -4.2875,-2.59853 -5.85636,-3.53101 -8.86952,-5.2324 -11.30727,-6.59932 -0.57865,-0.32446 -1.16532,-0.67845 -1.55332,-1.21658 -0.19399,-0.26906 -0.33519,-0.57769 -0.39881,-0.90323 -0.0636,-0.32555 -0.0488,-0.66644 0.0456,-0.98443 0.0944,-0.31799 0.26758,-0.61141 0.49534,-0.85256 0.22777,-0.24114 0.50858,-0.4297 0.81186,-0.56403 0.60657,-0.26868 1.28543,-0.31119 1.94821,-0.34012 2.6849,-0.11718 6.25403,-0.49581 10.64783,-1.26245 3.53908,-0.6175 7.4849,-1.48216 11.73523,-2.62901 8.14719,-2.19832 17.14476,-5.3663 25.59337,-9.39776 3.60489,-1.72017 7.04738,-3.56862 10.22159,-5.52179 4.05095,-2.492642 7.62735,-5.114421 10.55371,-7.813279 2.59747,-2.395527 4.68931,-4.857965 6.13738,-7.34349 1.38941,-2.384845 2.19089,-4.79753 2.26953,-7.216958 l -7.6e-4,0.06154 c 0.0251,-1.020961 -0.1762,-2.12234 -0.68102,-3.276426 -0.20229,-0.462464 -0.45644,-0.939958 -0.76923,-1.427315 -0.94541,-1.473035 -2.39129,-2.977232 -4.35481,-4.320524 -3.85693,-2.63861 -8.88173,-4.105335 -13.74535,-3.927939 -0.008,2.81e-4 -0.0154,2.77e-4 -0.0232,4.39e-4 -2.98808,0.06249 -5.95235,0.842307 -8.81636,2.121146 -2.79384,1.247504 -5.50292,2.973636 -8.0651,5.00101 -5.8629,4.63912 -11.31801,11.134515 -15.92619,18.451434 -4.73386,7.516486 -9.20527,16.918394 -12.18916,27.386304 -2.07869,7.29236 -3.57586,15.66431 -3.48461,24.05846 0.49481,10.21062 1.91224,18.49104 3.855,25.63835 1.29771,4.77423 2.71731,8.61721 3.77135,11.33486 1.57886,4.07078 3.08031,7.44066 3.76467,8.89784 a 3.934036,3.934036 90 0 1 -7.12174,3.34474 z"
     id="path4895"
     inkscape:connector-curvature="0"
     inkscape:path-effect="#path-effect4905"
     inkscape:original-d="m 244.6588,191.37308 c -6.19,-13.18 -10.28,-27.09 -10.91,-47.46 -0.06,-35.27 26.52,-79.520009 51.52,-79.890009 11.25,-0.26 22.13,7.37 22.13,15.74 -0.56,22.880009 -54.2,43.430009 -79.64,43.750009 14.76,9.13 57.14,34.75 74.35,45.13 3.43,2.09 10.95,4.87 15.27,5.45" />
  <path
     style="fill:#000000;fill-rule:nonzero;stroke:none;stroke-width:-3.57313037"
     d="m 512.3334,1.390288 c -0.12538,0.086878 -0.46737,0.2822077 -0.88096,0.6705934 -0.6761,0.6349043 -1.73898,1.9598496 -2.43567,3.9983131 -0.52766,1.543866 -0.77436,3.2646991 -0.76814,5.1322655 0.006,1.662515 0.21002,3.249179 0.46198,4.643395 0.12762,0.706195 0.26168,1.333428 0.38312,1.897211 0.12446,0.577755 0.24746,1.138383 0.31229,1.601005 l -0.005,-0.195564 c 0.11611,1.539718 0.22674,3.037203 0.33039,4.481807 0.92596,12.90556 1.67169,25.323836 2.27097,36.291741 0.64313,11.770309 1.13723,22.265095 1.43015,28.455463 -3e-5,-4.68e-4 0.02,0.428807 0.02,0.428339 0.002,0.0479 0.004,0.09582 0.004,0.143764 0.0989,13.451299 -0.32177,24.637999 -0.87526,33.825129 -0.52947,8.78861 -1.17249,15.61141 -1.54803,20.57312 -0.007,0.0992 -0.0149,0.19842 -0.0223,0.29759 0.0984,4.00743 0.29041,9.39205 0.48413,13.91077 0.19967,4.65762 0.42616,8.79143 0.46386,9.78637 0.0102,0.26788 0.0103,0.38011 0.0124,0.45636 a 3.8340104,3.8340104 90 0 1 -7.66514,0.21024 c -0.002,-0.0749 -0.008,-0.19262 -0.0125,-0.46168 -0.0197,-1.25413 0.002,-4.99208 0.0674,-9.88645 0.0638,-4.80156 0.15075,-9.85055 0.12857,-14.04883 -5.5e-4,-0.10417 0.001,-0.20841 0.0104,-0.31218 -0.002,0.0253 0.0453,-0.51031 0.043,-0.48499 0.44227,-5.00065 1.02369,-11.7217 1.46062,-20.40417 0.45524,-9.04631 0.74506,-20.05603 0.57832,-33.306528 -0.007,-0.115353 -0.0211,-0.362909 -0.0212,-0.364197 -0.36548,-6.267419 -1.18526,-16.39002 -2.03283,-28.349091 -0.77192,-10.891713 -1.57826,-23.462608 -2.10304,-36.350142 -0.0591,-1.450132 -0.11522,-2.954549 -0.1681,-4.501307 -5.6e-4,-0.01648 -0.002,-0.03296 -0.004,-0.04927 -0.002,-0.01631 -0.006,-0.03244 -0.009,-0.04871 -0.003,-0.01628 -0.004,-0.03282 -0.003,-0.04926 0.001,-0.01644 0.005,-0.0325 0.0101,-0.04832 0.0713,-0.242542 0.14076,-0.706579 0.22105,-1.333042 0.0746,-0.58164 0.15805,-1.298714 0.26994,-2.106188 0.22293,-1.608818 0.54743,-3.483347 1.13294,-5.409014 0.66309,-2.1807823 1.55708,-4.0819991 2.70456,-5.7102173 1.49987,-2.1282638 3.07078,-3.2664178 3.89395,-3.8849617 0.53931,-0.40525353 0.81641,-0.63339041 0.99018,-0.75379374 a 0.76307115,0.76307115 90 0 1 0.8692,1.25443374 z"
     id="path4893"
     inkscape:connector-curvature="0"
     inkscape:path-effect="#path-effect4909"
     inkscape:original-d="m 511.8988,0.76307115 c -7.47128,5.17685855 -6.07,15.49999985 -6.07,18.56999985 1.55,28.31 3.55,57.31 4.19,69.64 0.27,26.940009 -1.45,44.490009 -2.27,54.580009 0.12,8.12 0.15,15.59 0.39,24.34"
     sodipodi:nodetypes="ccccc" />
  <path
     style="fill:#000000;fill-rule:nonzero;stroke:none;stroke-width:-3.57313037"
     d="m 405.57835,28.790015 c 0,0 -0.27314,0.04804 0,0 3.21851,-0.566033 8.86218,-1.500756 18.0046,-2.877777 6.45445,-0.972162 14.37469,-2.121547 22.8863,-3.295337 7.53857,-1.039603 15.3307,-2.068781 22.22097,-2.91066 6.66751,-0.814662 12.32469,-1.433728 16.0351,-1.71755 0.0494,-0.0038 0.0987,-0.008 0.14821,-0.0095 3.04011,-0.09203 8.47966,-0.283217 14.81197,-0.518914 4.14182,-0.154165 8.60487,-0.325086 13.0555,-0.500329 -0.11619,0.0046 9.50503,-0.380734 9.38884,-0.376159 7.72577,-0.314658 16.046,-0.665966 23.56195,-1.002292 7.30547,-0.326907 13.7242,-0.633988 18.14721,-0.879885 0.0149,-8.3e-4 0.0298,-0.0016 0.0447,-0.0022 8.13102,-0.331753 14.55797,-0.579738 17.83371,-0.952533 2.32853,-0.264998 3.87776,-0.571499 4.64917,-0.732305 a 3.1957943,3.1957943 90 0 1 1.30434,6.257082 c -0.91147,0.190004 -2.65552,0.525916 -5.22215,0.824788 -3.57673,0.416493 -10.29465,0.640135 -18.26884,0.98923 -4.46212,0.254532 -10.89103,0.572471 -18.19355,0.915927 -7.50268,0.35287 -15.87318,0.730056 -23.57866,1.075833 -9.34091,0.419166 -0.0501,0.0022 -9.39101,0.421413 1.13533,-0.05105 -14.19061,0.643778 -13.05528,0.592724 -6.22561,0.286463 -11.65714,0.544121 -14.68324,0.709214 -3.54988,0.343548 -9.07081,1.023031 -15.68899,1.91291 -6.84507,0.920388 -14.57031,2.025948 -22.0809,3.145591 -8.50209,1.267449 -16.30838,2.489422 -22.75058,3.540912 -9.13166,1.490464 -14.58514,2.482965 -17.75852,3.095973 -0.26477,0.05114 0,0 0,0 a 3.9180061,3.9180061 90 0 1 -1.4209,-7.706112 z"
     id="art"
     inkscape:connector-curvature="0"
     inkscape:path-effect="#path-effect4907"
     inkscape:original-d="m 406.2888,32.643071 c 18.06,-3.33 64.23,-10 78.73,-11.25 11.75,-0.5 61.25,-2.5 79,-3.5 8.75,-0.37 16.38,-0.37 23,-1.75" />
</svg>
