<?xml version="1.0" encoding="UTF-8" standalone="no"?>
<svg
   xmlns:dc="http://purl.org/dc/elements/1.1/"
   xmlns:cc="http://creativecommons.org/ns#"
   xmlns:rdf="http://www.w3.org/1999/02/22-rdf-syntax-ns#"
   xmlns:svg="http://www.w3.org/2000/svg"
   xmlns="http://www.w3.org/2000/svg"
   xmlns:sodipodi="http://sodipodi.sourceforge.net/DTD/sodipodi-0.dtd"
   xmlns:inkscape="http://www.inkscape.org/namespaces/inkscape"
   width="37.215572in"
   height="8.833396in"
   viewBox="0 0 2679.5252 636.00509"
   version="1.1"
   id="svg30"
   sodipodi:docname="bigwebsite-path.svg"
   inkscape:version="0.92.3 (2405546, 2018-03-11)">
  <style
     id="style2">svg{-webkit-touch-callout: none;-webkit-user-select: none;-khtml-user-select: none;-moz-user-select: none;-ms-user-select: none;user-select: none;cursor: url("cursor.gif"), auto;}</style>
  <metadata
     id="metadata36">
    <rdf:RDF>
      <cc:Work
         rdf:about="">
        <dc:format>image/svg+xml</dc:format>
        <dc:type
           rdf:resource="http://purl.org/dc/dcmitype/StillImage" />
        <dc:title />
      </cc:Work>
    </rdf:RDF>
  </metadata>
  <defs
     id="defs34">
    <inkscape:path-effect
       end_linecap_type="round"
       miter_limit="100"
       linejoin_type="spiro"
       start_linecap_type="round"
       interpolator_beta="0.5"
       interpolator_type="CentripetalCatmullRom"
       sort_points="true"
       offset_points="0.19618017,6.6750145 | 1.0099475,5.0552525 | 1.7411843,3.64846"
       is_visible="true"
       id="path-effect8617"
       effect="powerstroke" />
    <inkscape:path-effect
       effect="powerstroke"
       id="path-effect8613"
       is_visible="true"
       offset_points="0.2,2.3730607 | 1,2.3730607 | 1.8,2.3730607"
       sort_points="true"
       interpolator_type="CentripetalCatmullRom"
       interpolator_beta="0.5"
       start_linecap_type="round"
       linejoin_type="spiro"
       miter_limit="100"
       end_linecap_type="round" />
    <inkscape:path-effect
       effect="powerstroke"
       id="path-effect8611"
       is_visible="true"
       offset_points="0.16444622,7.8720324 | 1.4950849,6.0036312 | 3.1376004,6.9252211 | 2.9525063,6.9960405 | 3.8315834,5.8985182 | 4.8863513,6.0761884 | 6.9969579,3.9176555"
       sort_points="true"
       interpolator_type="CentripetalCatmullRom"
       interpolator_beta="0.5"
       start_linecap_type="round"
       linejoin_type="spiro"
       miter_limit="100"
       end_linecap_type="round" />
    <inkscape:path-effect
       effect="powerstroke"
       id="path-effect8609"
       is_visible="true"
       offset_points="0.1509451,6.7585263 | 1,5.3664494"
       sort_points="true"
       interpolator_type="CentripetalCatmullRom"
       interpolator_beta="0.5"
       start_linecap_type="round"
       linejoin_type="spiro"
       miter_limit="100"
       end_linecap_type="round" />
    <inkscape:path-effect
       effect="powerstroke"
       id="path-effect8607"
       is_visible="true"
       offset_points="0.00016181735,7.6016647 | 0.75284197,6.8355454 | 2.1512342,5.2879651 | 2.6722704,4.9655269 | 4,3.7868812"
       sort_points="true"
       interpolator_type="CentripetalCatmullRom"
       interpolator_beta="0.5"
       start_linecap_type="round"
       linejoin_type="spiro"
       miter_limit="100"
       end_linecap_type="round" />
    <inkscape:path-effect
       effect="powerstroke"
       id="path-effect8605"
       is_visible="true"
       offset_points="0.19245157,6.3926918 | 0.80264807,5.2324164"
       sort_points="true"
       interpolator_type="CubicBezierFit"
       interpolator_beta="0.5"
       start_linecap_type="round"
       linejoin_type="spiro"
       miter_limit="100"
       end_linecap_type="round" />
    <inkscape:path-effect
       effect="powerstroke"
       id="path-effect8603"
       is_visible="true"
       offset_points="0.072654021,7.8175152 | 1.0429014,6.2806832 | 2.8587882,5.9276844"
       sort_points="true"
       interpolator_type="CentripetalCatmullRom"
       interpolator_beta="0.5"
       start_linecap_type="round"
       linejoin_type="spiro"
       miter_limit="100"
       end_linecap_type="round" />
    <inkscape:path-effect
       effect="powerstroke"
       id="path-effect8601"
       is_visible="true"
       offset_points="0.011588493,7.0151386 | 0.17001836,5.7678864 | 1.0026561,5.59503 | 1.4314734,5.6493569 | 1.9514031,6.428198 | 5.9845914,2.232464 | 4.0548859,4.6449761"
       sort_points="true"
       interpolator_type="CentripetalCatmullRom"
       interpolator_beta="0.5"
       start_linecap_type="round"
       linejoin_type="spiro"
       miter_limit="100"
       end_linecap_type="round" />
    <inkscape:path-effect
       effect="powerstroke"
       id="path-effect5086"
       is_visible="true"
       offset_points="1.195633,-6.2199317 | 1.9056572,-5.8336059 | 5.8952732,-5.2107706 | 9.1804605,-4.5932755 | 9.5614557,-5.0959305 | 11.261452,-3.5824171 | 12,-1.9710577"
       sort_points="true"
       interpolator_type="CentripetalCatmullRom"
       interpolator_beta="0.5"
       start_linecap_type="round"
       linejoin_type="spiro"
       miter_limit="100"
       end_linecap_type="round" />
    <inkscape:path-effect
       effect="powerstroke"
       id="path-effect5084"
       is_visible="true"
       offset_points="0,7.0972245 | 0.60409629,5.8890589 | 3.9068943,3.8180602"
       sort_points="true"
       interpolator_type="CentripetalCatmullRom"
       interpolator_beta="0.5"
       start_linecap_type="round"
       linejoin_type="spiro"
       miter_limit="100"
       end_linecap_type="zerowidth" />
    <inkscape:path-effect
       effect="powerstroke"
       id="path-effect5082"
       is_visible="true"
       offset_points="0.37112917,6.0747961 | 0.098379971,5.653738 | 0.69880971,5.0359113 | 3.2145571,4.2711345"
       sort_points="true"
       interpolator_type="CentripetalCatmullRom"
       interpolator_beta="0.5"
       start_linecap_type="round"
       linejoin_type="spiro"
       miter_limit="100"
       end_linecap_type="round" />
    <inkscape:path-effect
       effect="powerstroke"
       id="path-effect5061"
       is_visible="true"
       offset_points="0.16088681,6.0036121 | 1.5454265,4.095091 | 0.77875154,4.5684522 | 1.9472899,2.67306"
       sort_points="true"
       interpolator_type="CentripetalCatmullRom"
       interpolator_beta="0.5"
       start_linecap_type="round"
       linejoin_type="spiro"
       miter_limit="100"
       end_linecap_type="zerowidth" />
    <inkscape:path-effect
       effect="powerstroke"
       id="path-effect5047"
       is_visible="true"
       offset_points="1.8184196,5.8578887 | 2.2748415,5.7893187 | 3.818501,5.4031762 | 4.6258005,5.5615144 | 0.012669269,7.4969705 | 0.1176444,5.6955328 | 5.0323639,5.2888229 | 7.1533733,4.972993 | 11.98337,1.4479376 | 10.993137,2.6083109 | 8.9429612,5.1812483"
       sort_points="true"
       interpolator_type="CentripetalCatmullRom"
       interpolator_beta="0.5"
       start_linecap_type="round"
       linejoin_type="spiro"
       miter_limit="100"
       end_linecap_type="round" />
    <inkscape:path-effect
       effect="powerstroke"
       id="path-effect5001"
       is_visible="true"
       offset_points="0.200965,5.8051818 | 5.5,2.3730607 | 10.8,2.3730607"
       sort_points="true"
       interpolator_type="CentripetalCatmullRom"
       interpolator_beta="0.5"
       start_linecap_type="round"
       linejoin_type="spiro"
       miter_limit="100"
       end_linecap_type="round" />
    <marker
       inkscape:stockid="Arrow1Lstart"
       orient="auto"
       refY="0"
       refX="0"
       id="marker4975"
       style="overflow:visible"
       inkscape:isstock="true">
      <path
         id="path4973"
         d="M 0,0 5,-5 -12.5,0 5,5 Z"
         style="fill:none;fill-opacity:1;fill-rule:evenodd;stroke:none;stroke-width:1.00000003pt;stroke-opacity:1"
         transform="matrix(0.8,0,0,0.8,10,0)"
         inkscape:connector-curvature="0" />
    </marker>
    <inkscape:path-effect
       effect="powerstroke"
       id="path-effect4959"
       is_visible="true"
       offset_points="0.36626679,-7.3021932 | 1.3947174,-6.280536 | 4.9955932,-5.2786857 | 5.3835215,-4.9246831 | 7.3778884,-3.4903057 | 8.203693,-4.6462608 | 9.7923872,-3.310635 | 9.1163162,-4.3918291"
       sort_points="true"
       interpolator_type="CentripetalCatmullRom"
       interpolator_beta="0.5"
       start_linecap_type="round"
       linejoin_type="spiro"
       miter_limit="100"
       end_linecap_type="round" />
    <inkscape:path-effect
       effect="powerstroke"
       id="path-effect4957"
       is_visible="true"
       offset_points="0.11708177,4.8794038 | 1.0871607,5.0167952 | 1.9470725,5.5409404 | 2.6744517,6.1053607"
       sort_points="true"
       interpolator_type="CentripetalCatmullRom"
       interpolator_beta="0.5"
       start_linecap_type="round"
       linejoin_type="spiro"
       miter_limit="100"
       end_linecap_type="round" />
    <inkscape:path-effect
       effect="powerstroke"
       id="path-effect4955"
       is_visible="true"
       offset_points="1.3051771,4.5045493 | 0.32143947,1.8780052 | 7,7.2772477 | 6.0436082,4.5629863 | 7.1741423,5.7103485 | 8.8274493,6.0863502 | 11.940743,5.8120549 | 11.656086,4.8390503"
       sort_points="true"
       interpolator_type="CentripetalCatmullRom"
       interpolator_beta="0.5"
       start_linecap_type="round"
       linejoin_type="spiro"
       miter_limit="100"
       end_linecap_type="round" />
    <inkscape:path-effect
       effect="powerstroke"
       id="path-effect4953"
       is_visible="true"
       offset_points="0.2,2.3730607 | 6,2.3730607 | 11.8,2.3730607"
       sort_points="true"
       interpolator_type="CentripetalCatmullRom"
       interpolator_beta="0.1969697"
       start_linecap_type="butt"
       linejoin_type="extrp_arc"
       miter_limit="4"
       end_linecap_type="butt" />
    <inkscape:path-effect
       effect="powerstroke"
       id="path-effect4919"
       is_visible="true"
       offset_points="0.2,3.1640773 | 19,3.1640773 | 37.8,3.1640773"
       sort_points="false"
       interpolator_type="CentripetalCatmullRom"
       interpolator_beta="0.90909091"
       start_linecap_type="butt"
       linejoin_type="round"
       miter_limit="3"
       end_linecap_type="butt" />
    <inkscape:path-effect
       effect="powerstroke"
       id="path-effect4917"
       is_visible="true"
       offset_points="0.2,4.2187648 | 19,4.2187648 | 37.8,4.2187648"
       sort_points="false"
       interpolator_type="CubicBezierFit"
       interpolator_beta="0.1"
       start_linecap_type="peak"
       linejoin_type="extrp_arc"
       miter_limit="4"
       end_linecap_type="butt" />
    <inkscape:path-effect
       effect="sketch"
       id="path-effect4913"
       is_visible="true"
       nbiter_approxstrokes="1"
       strokelength="100"
       strokelength_rdm="0;2147483646"
       strokeoverlap="0"
       strokeoverlap_rdm="0;1"
       ends_tolerance="0;1"
       parallel_offset="0;1"
       tremble_size="0;1"
       tremble_frequency="0.01"
       nbtangents="1"
       tgt_places_rdmness="1;1"
       tgtscale="10"
       tgtlength="101"
       tgtlength_rdm="0.3;1" />
    <inkscape:path-effect
       effect="lattice2"
       gridpoint0="0.84147778,0.8414317"
       gridpoint1="2670.582,0.8414317"
       gridpoint2="0.84147778,627.07679"
       gridpoint3="2670.582,627.07679"
       gridpoint4="668.27661,0.8414317"
       gridpoint5="2003.1469,0.8414317"
       gridpoint6="668.27661,627.07679"
       gridpoint7="2003.1469,627.07679"
       gridpoint8x9="1335.7118,0.8414317"
       gridpoint10x11="1335.7118,627.07679"
       gridpoint12="0.84147778,157.40027"
       gridpoint13="2670.582,157.40027"
       gridpoint14="0.84147778,470.51795"
       gridpoint15="2670.582,470.51795"
       gridpoint16="668.27661,157.40027"
       gridpoint17="2003.1469,157.40027"
       gridpoint18="668.27661,470.51795"
       gridpoint19="2003.1469,470.51795"
       gridpoint20x21="1335.7118,157.40027"
       gridpoint22x23="1335.7118,470.51795"
       gridpoint24x26="0.84147778,313.95911"
       gridpoint25x27="2670.582,313.95911"
       gridpoint28x30="668.27661,313.95911"
       gridpoint29x31="2003.1469,313.95911"
       gridpoint32x33x34x35="1335.7118,313.95911"
       id="path-effect4911"
       is_visible="true"
       horizontal_mirror="false"
       vertical_mirror="false"
       live_update="true" />
    <inkscape:path-effect
       effect="fill_between_strokes"
       id="path-effect4909"
       is_visible="true"
       linkedpath=""
       secondpath=""
       reversesecond="false" />
    <inkscape:path-effect
       effect="bend_path"
       id="path-effect4907"
       is_visible="true"
       bendpath="M 0.84147778,313.95911 H 2670.582"
       prop_scale="1"
       scale_y_rel="false"
       vertical="false" />
    <inkscape:path-effect
       effect="vonkoch"
       id="path-effect4905"
       is_visible="true"
       ref_path="M 0.84147778,313.95911 H 2670.582"
       generator="M 0.84147778,627.07679 H 890.75499 m 889.91351,0 h 889.9135"
       similar_only="false"
       nbgenerations="1"
       drawall="true"
       maxComplexity="1000" />
    <inkscape:path-effect
       effect="transform_2pts"
       start="33.279603,247.1425"
       end="2408.7102,278.05212"
       id="path-effect4903"
       is_visible="true"
       first_knot="1"
       last_knot="140"
       helper_size="3"
       stretch="1"
       offset="0"
       elastic="false"
       from_original_width="false"
       flip_vertical="false"
       flip_horizontal="false"
       lock_lenght="false"
       lock_angle="false" />
    <inkscape:path-effect
       effect="taper_stroke"
       id="path-effect4901"
       is_visible="true"
       stroke_width="11.250026"
       attach_start="0.2"
       end_offset="0.2"
       smoothing="0.5"
       jointype="extrapolated"
       miter_limit="100" />
    <inkscape:path-effect
       effect="curvestitching"
       id="path-effect4899"
       is_visible="true"
       count="5"
       startpoint_edge_variation="0;1"
       startpoint_spacing_variation="0;1"
       endpoint_edge_variation="0;1"
       endpoint_spacing_variation="0;1"
       strokepath="M 0.84147778,313.95911 H 2670.582"
       prop_scale="1"
       scale_y_rel="false" />
    <inkscape:path-effect
       effect="spiro"
       id="path-effect4897"
       is_visible="true" />
    <inkscape:path-effect
       effect="show_handles"
       id="path-effect4895"
       is_visible="true"
       nodes="true"
       handles="true"
       original_path="true"
       scale_nodes_and_handles="10" />
    <inkscape:path-effect
       effect="roughen"
       id="path-effect4893"
       is_visible="true"
       method="segments"
       max_segment_size="10"
       segments="2"
       displace_x="10;1"
       displace_y="10;1"
       global_randomize="1;1"
       handles="along"
       shift_nodes="true"
       fixed_displacement="false"
       spray_tool_friendly="false" />
    <inkscape:path-effect
       effect="powerstroke"
       id="path-effect4891"
       is_visible="true"
       offset_points="0.2,7.5000086 | 19,7.5000086 | 37.8,7.5000086"
       sort_points="true"
       interpolator_type="CubicBezierFit"
       interpolator_beta="0.2"
       start_linecap_type="butt"
       linejoin_type="extrp_arc"
       miter_limit="4"
       end_linecap_type="butt" />
    <inkscape:path-effect
       effect="interpolate_points"
       id="path-effect4889"
       is_visible="true"
       interpolator_type="CentripetalCatmullRom" />
    <inkscape:path-effect
       effect="bspline"
       id="path-effect4887"
       is_visible="true"
       weight="33.333333"
       steps="2"
       helper_size="0"
       apply_no_weight="true"
       apply_with_weight="true"
       only_selected="false" />
    <inkscape:path-effect
       effect="bend_path"
       id="path-effect4885"
       is_visible="true"
       bendpath="M 0.84147778,313.95911 H 2670.582"
       prop_scale="1"
       scale_y_rel="false"
       vertical="false" />
    <inkscape:path-effect
       effect="spiro"
       id="path-effect4883"
       is_visible="true" />
    <inkscape:path-effect
       effect="sketch"
       id="path-effect4881"
       is_visible="true"
       nbiter_approxstrokes="1"
       strokelength="100"
       strokelength_rdm="0.3;1"
       strokeoverlap="0.3"
       strokeoverlap_rdm="0.3;1"
       ends_tolerance="0.1;1"
       parallel_offset="5;1"
       tremble_size="5;1"
       tremble_frequency="1"
       nbtangents="5"
       tgt_places_rdmness="1;1"
       tgtscale="10"
       tgtlength="100"
       tgtlength_rdm="0.3;1" />
    <marker
       inkscape:stockid="Arrow1Lstart"
       orient="auto"
       refY="0"
       refX="0"
       id="Arrow1Lstart"
       style="overflow:visible"
       inkscape:isstock="true">
      <path
         id="path4561"
         d="M 0,0 5,-5 -12.5,0 5,5 Z"
         style="fill:#000000;fill-opacity:1;fill-rule:evenodd;stroke:#000000;stroke-width:1.00000003pt;stroke-opacity:1"
         transform="matrix(0.8,0,0,0.8,10,0)"
         inkscape:connector-curvature="0" />
    </marker>
  </defs>
  <sodipodi:namedview
     pagecolor="#ffffff"
     bordercolor="#666666"
     borderopacity="1"
     objecttolerance="10"
     gridtolerance="10"
     guidetolerance="10"
     inkscape:pageopacity="0"
     inkscape:pageshadow="2"
     inkscape:window-width="2560"
     inkscape:window-height="1346"
     id="namedview32"
     showgrid="false"
     inkscape:zoom="0.31807258"
     inkscape:cx="1657.7587"
     inkscape:cy="713.94126"
     inkscape:window-x="-11"
     inkscape:window-y="-11"
     inkscape:window-maximized="1"
     inkscape:current-layer="svg30"
     inkscape:snap-others="true" />
  <path
     style="fill:none;fill-opacity:1;fill-rule:nonzero;stroke:#000000;stroke-width:9.76820087;stroke-linecap:round;stroke-linejoin:miter;stroke-miterlimit:15;stroke-dasharray:none;stroke-opacity:1;paint-order:normal"
     d="m 37.323232,251.18588 c 0,0 -17.49919,6.02376 -25.44113,-30.08514 0,-0.43748 3.06236,10.33125 2.72584,16.62422 5.19927,90.82752 -10.7014308,206.4736 -9.6750409,262.48782 -0.42065,42.50284 8.5981609,100.77177 14.7228809,111.25446 3.16331,2.94457 6.76411,16.70836 74.48933,19.65293 31.835058,-0.30287 62.223078,-8.71594 145.933128,-15.4464 63.93934,-6.3098 151.85594,-12.6196 228.83554,-20.19137 75.5662,-7.80733 117.78299,-16.40549 171.62665,-22.71529 42.06536,-3.56714 142.26503,-11.08843 187.61148,-14.30222 18.59289,-1.53118 64.78065,-12.61961 221.26379,-11.7783 20.612,-0.20191 57.2088,-7.99242 118.6243,-12.61961 37.253,-1.44705 53.8436,-11.57638 135.4504,-18.50875 30.2871,-2.94458 116.0499,-0.94227 204.2357,-3.46619 49.3847,-1.81722 68.4992,-6.54537 113.7279,-9.33851 39.5751,-1.76674 69.6266,-4.57671 113.7784,-5.78819 50.714,-0.45431 77.3329,0.774 107.5358,-0.75718 18.9295,-1.88453 35.133,-3.87001 47.9546,-4.29066 45.4305,0 108.8146,0 150.5939,-2.52393 19.3501,0.72353 62.7952,8.64864 135.4505,-3.18014 8.4803,-1.2283 34.7291,-2.54074 67.7588,-3.46618 38.5487,-3.6681 49.1156,-5.88915 74.4221,-7.63907 55.2907,-0.62257 107.6873,6.79776 146.3874,11.89608 39.2386,2.77632 70.939,-1.88453 100.8054,-18.4751 6.7305,-5.0815 87.4118,-27.09009 100.1156,-84.36628 14.1676,-28.73905 7.4371,-97.15414 0.9927,-131.93378 -3.7859,-35.75555 1.2956,-73.58072 -4.2065,-112.73515 -1.0769,-6.42759 -0.2861,-20.72981 -24.684,-87.613713 -16.4055,-31.549015 -63.4514,-36.058421 -82.4481,-38.700125 -35.0656,-0.336523 -51.0337,-5.8723242 -64.4946,-5.7713672 -68.1458,1.682614 -120.7275,7.5717642 -178.3571,8.4130712 C 2178.8704,18.345737 1950.2536,6.1467838 1901.6597,4.8848238 1791.0279,6.1467838 1588.0036,19.574046 1529.802,23.393577 l -321.3793,30.28706 c -105.3485,16.35501 -266.69432,47.954503 -408.03392,69.828473 -86.65463,19.35006 -176.25384,40.8034 -215.37462,44.58928 -45.43058,4.20653 -227.15292,31.96967 -302.87056,31.12836 -63.93934,4.20654 -160.68966,11.7783 -206.120238,13.46091 -18.59289,2.37249 -42.45236,2.67536 -67.3045709,15.98484"
     id="path4951"
     inkscape:connector-curvature="0" />
  <path
     style="fill:#000000;fill-opacity:1;fill-rule:nonzero;stroke:none;stroke-width:3.75000453;stroke-linecap:round;stroke-linejoin:round;stroke-miterlimit:15;stroke-dasharray:none;stroke-opacity:1;paint-order:normal;image-rendering:auto"
     d="m 108.45316,540.91655 c -0.2438,0.15579 -0.49537,0.4171 -0.77938,0.77693 -0.19309,0.24464 -0.39318,0.52247 -0.62314,0.83222 -0.11961,0.1611 -0.24753,0.33111 -0.38324,0.50432 -0.31622,0.40359 -0.70575,0.84312 -1.13943,1.36823 -0.81109,0.98209 -2.32808,2.89807 -2.77831,5.31574 -0.064,0.34387 -0.11485,0.69634 -0.0607,1.04192 0.0541,0.34557 0.20781,0.67193 0.423,0.94769 0.2152,0.27576 0.4847,0.50397 0.76044,0.71918 0.27575,0.21521 0.55664,0.42374 0.83297,0.6382 1.39465,1.08239 3.16383,2.14814 5.46787,3.1171 1.22978,0.51718 2.69373,1.04122 4.45177,1.55645 3.62576,1.0626 8.45602,2.07789 15.37566,3.01113 0.056,0.008 0.11225,0.0138 0.16852,0.0193 4.09552,0.40532 9.35814,1.14257 15.72944,1.6086 5.96116,0.43602 13.03238,0.62486 20.93209,-0.14288 14.92261,-1.45027 33.30641,-6.34304 54.06283,-20.14942 0.0495,-0.033 0.0988,-0.0663 0.14693,-0.10134 6.02292,-4.38333 12.66754,-10.00293 17.74649,-17.41076 5.09517,-7.43149 8.51184,-16.50979 8.4653,-27.70117 -8e-5,-0.0188 5e-5,-0.0376 -3.1e-4,-0.0563 -0.14883,-7.65916 -3.32837,-16.35043 -11.20649,-23.80511 -8.32394,-7.87652 -21.26445,-13.81733 -39.66314,-16.68948 -5.30373,-0.87398 -11.74549,-1.54182 -18.30254,-2.07489 -7.05091,-0.57321 -14.59868,-1.01848 -21.45738,-1.38343 -6.10373,-0.32478 -14.7162,-0.72676 -20.81992,-1.05154 -7.16983,-0.37472 -12.38652,-0.70528 -16.2436,-1.08071 -0.005,-4.7e-4 -0.01,-5.5e-4 -0.0147,-0.001 -0.59255,-0.0596 -1.17053,-0.119 -1.73353,-0.17822 -3.38145,-0.35569 -6.58751,-0.77584 -9.61475,-1.22181 3.83505,-1.67529 8.36765,-3.67996 12.45972,-5.54396 5.18684,-2.36268 11.23732,-5.23013 17.95511,-8.65435 15.93217,-8.12101 36.65531,-19.92409 57.09612,-35.11291 16.00683,-11.8941 32.22081,-26.18059 44.05798,-41.5692 5.39682,-7.016 9.96737,-14.3732 13.11197,-21.88925 3.02202,-7.22308 4.77997,-14.72218 4.57215,-22.25228 -9e-4,-0.0326 -0.003,-0.0652 -0.004,-0.0978 -0.31212,-7.68485 -2.48837,-15.1359 -6.38556,-22.00501 -3.80719,-6.71049 -9.16217,-12.69826 -15.70118,-17.71006 -8.73166,-6.69234 -19.366,-11.49256 -30.94894,-14.13252 -5.90278,-1.34535 -12.49864,-2.23783 -19.70793,-2.39581 -0.0735,-0.002 -0.14695,-0.002 -0.22042,-0.001 -17.57869,0.2572 -37.17923,6.33903 -52.38991,22.4506 -13.79007,14.60682 -23.10974,36.67555 -23.65516,67.1867 -0.002,0.11023 -0.002,0.22052 0.003,0.33067 0.98692,22.28215 3.93429,37.21031 6.7262,49.03192 1.45171,6.14691 2.84109,11.40272 3.9352,16.30435 1.17412,5.26005 1.99597,10.00893 2.38411,15.04547 0.005,0.0667 0.0105,0.13338 0.0181,0.19983 2.74357,23.96772 6.02817,49.16967 8.77175,73.13739 0.82537,7.16787 1.38011,12.46874 1.75528,16.62844 0.30048,3.33163 0.4904,6.06718 0.60977,8.37157 0.35543,6.86129 0.097,10.76427 0.069,12.78083 -0.019,1.37025 0.008,2.27334 -0.002,2.65844 a 5.8120549,5.8120549 90 0 0 11.61984,0.31476 c 0.014,-0.51763 0.0829,-1.61505 0.004,-3.2045 -0.12458,-2.52121 -0.69446,-6.30578 -1.61703,-13.46314 -0.302,-2.34297 -0.65195,-5.11735 -1.05926,-8.47619 -0.91818,-7.57167 -1.10392,-9.14609 -2.0221,-16.71775 -1.31064,-10.78213 -5.41868,-43.90407 -8.58821,-72.97487 -0.35593,-5.59911 -1.17273,-10.80889 -2.29953,-16.35385 -1.05145,-5.17418 -2.34389,-10.48587 -3.64654,-16.50033 -2.46952,-11.40194 -5.04342,-25.65634 -5.76496,-47.01203 0.76808,-28.26716 9.57271,-47.3123 21.14075,-59.2925 12.76323,-13.21798 29.09214,-18.19866 44.02207,-18.35162 6.33895,0.18277 12.0925,0.99414 17.19775,2.16877 10.09082,2.32173 19.12804,6.38217 26.42661,11.82711 5.45844,4.07215 9.80562,8.81649 12.87644,13.97936 3.12846,5.25975 4.90514,10.90315 5.27151,16.72246 0.20397,5.5562 -1.02757,11.4613 -3.5325,17.61152 -2.62179,6.43712 -6.58447,13.00869 -11.5357,19.53573 -10.90022,14.3694 -26.2028,28.04366 -41.79242,39.64021 -19.83426,14.75399 -40.02349,26.13087 -55.68852,33.79227 -6.59024,3.22314 -12.51861,5.8619 -17.62041,7.97713 -9.52255,3.94809 -16.0259,5.92415 -20.431965,7.1975 -2.808924,0.81178 -11.977467,3.3632 -18.160768,4.92375 -1.959455,0.49454 -3.972891,1.07943 -5.501091,2.40178 -0.764101,0.66118 -1.390292,1.4879 -1.780682,2.41988 -0.390391,0.93199 -0.540582,1.96436 -0.423791,2.96803 0.116792,1.00368 0.49886,1.97236 1.079861,2.79906 0.581001,0.82671 1.3556,1.50966 2.223006,2.02794 1.734811,1.03656 3.783901,1.37901 5.78338,1.67246 7.551904,1.10833 20.718204,-0.65744 38.2943,-0.0686 0.56578,0.019 1.14644,0.0398 1.74155,0.0625 l -0.0147,-0.001 c 4.21443,0.20625 9.14214,0.38626 16.51425,0.65764 5.77102,0.21244 13.34308,0.49266 20.78115,0.84455 6.83897,0.32355 14.26973,0.73892 21.21004,1.29508 6.48632,0.51978 12.66622,1.17198 17.62976,2.00666 0.0129,0.002 0.0259,0.004 0.0388,0.006 17.35991,2.73756 28.4795,8.25148 35.10228,14.63017 6.15289,5.92613 8.25395,12.43575 8.27385,17.71409 -0.064,9.22426 -2.94443,16.501 -7.17402,22.48583 -4.28699,6.06603 -10.00252,10.8565 -15.66984,14.87342 -19.39174,12.76864 -36.25183,17.08707 -49.70368,18.34233 -7.19362,0.67127 -13.68648,0.48533 -19.29016,0.0655 -5.9582,-0.4464 -11.04572,-1.15645 -15.43157,-1.57754 -6.59248,-0.8577 -10.98792,-1.69057 -14.17757,-2.41597 -1.5461,-0.35162 -2.8087,-0.67853 -3.84207,-0.9595 -1.30855,-0.35579 -2.43791,-0.68983 -3.39006,-0.99052 -0.0103,-0.18014 -0.0148,-0.35017 -0.0138,-0.50422 0.003,-0.51021 0.0577,-0.95528 0.16584,-1.29586 0.0466,-0.1467 0.10169,-0.27677 0.15924,-0.38807 0.11085,-0.21436 0.22585,-0.35047 0.3079,-0.41922 0.10615,-0.0889 0.16093,-0.0547 0.0784,-0.002 a 1.8780052,1.8780052 90 0 0 -2.02246,-3.165 z"
     id="path4949"
     inkscape:connector-curvature="0"
     inkscape:path-effect="#path-effect4955"
     inkscape:original-d="m 109.46439,542.49905 c -1.06877,0.68295 -2.84079,4.37188 -2.81746,7.18259 4.62719,2.65853 11.82992,4.61572 23.99408,6.22568 17.62953,1.71244 48.43482,8.1913 87.63973,-17.77144 11.92974,-8.56451 24.55699,-20.81091 24.57382,-41.2715 -0.15144,-12.63643 -10.11251,-30.6404 -47.13003,-36.44542 -20.00628,-3.33158 -59.32898,-3.95415 -76.49164,-5.19928 L 79.388582,452.46019 C 149.53057,433.6657 253.53916,366.0916 251.85654,314.48583 250.4768,286.95826 222.02379,264.93284 184.55197,264.0074 c -35.75555,0.42065 -69.40783,26.08052 -70.66979,83.71006 1.68261,43.32731 10.85286,58.23528 12.38404,80.2607 6.42758,57.52858 12.65326,99.35837 12.24943,114.26633"
     sodipodi:nodetypes="ccccccccccccc" />
  <path
     style="fill:#000000;fill-opacity:1;fill-rule:nonzero;stroke:none;stroke-width:3.75000429;stroke-linecap:round;stroke-linejoin:round;stroke-miterlimit:15;stroke-dasharray:none;stroke-opacity:1;paint-order:normal"
     d="m 439.82128,515.28067 c -0.10282,-0.11478 -0.31536,-0.34214 -0.59089,-0.64469 -0.36344,-0.3991 -1.02169,-1.09907 -1.40863,-1.65603 -0.19514,-0.28088 -0.29356,-0.4814 -0.32773,-0.59984 -0.0381,-0.13203 0.0103,-0.0873 0.0256,-0.0668 l -0.007,-0.13357 c -0.2529,-3.9119 -0.6315,-8.59102 -1.07823,-13.62911 -0.87618,-9.88146 -2.11138,-22.21582 -3.55508,-36.03439 -2.22395,-21.2868 -5.02386,-46.85222 -7.75306,-72.174 -2.82216,-26.1843 -5.60148,-52.40287 -7.92485,-76.24189 -1.87169,-19.20456 -3.41345,-36.52142 -4.43,-50.76622 -0.27395,-3.83874 -0.5113,-7.48561 -0.70585,-10.89912 -0.005,0.007 0.4912,-1.4744 0.81502,-2.5062 0.15946,-0.5081 0.31152,-1.02767 0.43335,-1.54682 0.0574,-0.24448 0.11098,-0.50361 0.15857,-0.77179 0.22733,-1.28106 0.24106,-2.29066 0.20186,-3.13241 a 6.1053607,6.1053607 90 0 0 -12.1975,0.56796 c -0.002,-0.0491 -0.015,0.032 -0.0898,0.5714 -0.0165,0.11929 -0.0397,0.28502 -0.0598,0.43644 -0.0163,0.12297 -0.13007,0.99757 -0.17334,1.33613 -0.14484,1.13325 -0.47644,3.52164 -0.22618,5.72373 0.22482,3.47121 0.4913,7.1674 0.79244,11.04439 1.11631,14.37188 2.76112,31.78356 4.72968,51.01666 2.4445,23.88311 5.3425,50.13424 8.27284,76.31071 2.83905,25.36089 5.72895,50.82877 8.03636,72.10833 1.4967,13.80299 2.77242,26.0612 3.68274,35.86476 0.46438,5.00096 0.85403,9.58677 1.11708,13.38729 l -0.007,-0.13354 c 0.0738,1.25715 0.38075,2.42252 0.84487,3.49089 0.44119,1.0156 0.99227,1.86926 1.49474,2.5477 0.854,1.15308 2.05502,2.38574 2.19023,2.5282 0.27768,0.29258 0.39419,0.42753 0.47109,0.51338 a 4.8794038,4.8794038 90 0 0 7.2687,-6.51156 z"
     id="path4947"
     inkscape:path-effect="#path-effect4957"
     inkscape:original-d="m 436.18693,518.53645 c -1.44705,-1.61531 -3.55031,-3.49983 -3.65127,-6.02376 -2.84823,-42.57778 -22.10214,-195.10661 -26.03911,-259.73845 -0.15643,-2.56811 1.18504,-5.73431 1.07896,-8.01246"
     inkscape:connector-curvature="0"
     sodipodi:nodetypes="ccsc" />
  <path
     style="fill:#000000;fill-opacity:1;fill-rule:nonzero;stroke:none;stroke-width:3.75000429;stroke-linecap:round;stroke-linejoin:round;stroke-miterlimit:15;stroke-dasharray:none;stroke-opacity:1;paint-order:normal"
     d="m 923.39481,281.97283 c 0.11971,0.48527 0.31897,1.50871 0.70934,2.89531 1.15197,4.09182 3.97188,10.64144 6.98192,22.37508 3.87952,15.12301 8.80157,39.82238 11.74264,65.70757 2.57175,22.63474 2.85145,37.86933 3.42369,52.01737 l -6.9e-4,-0.0135 c 0.13883,4.29785 0.27728,9.55682 0.52415,15.27013 0.26449,6.12098 0.62832,12.13974 1.17712,17.66845 0.66298,6.6789 1.5206,11.87881 2.59306,15.82647 0.36965,1.36064 0.75782,2.54705 1.16257,3.58755 0.38995,1.00247 0.80265,1.90324 1.24146,2.71278 0.55803,1.0295 1.18581,1.96226 1.90355,2.77774 0.82473,0.93705 1.82163,1.77875 3.0192,2.38989 0.48601,0.24801 0.98585,0.48228 1.52088,0.58933 0.53503,0.10705 1.08665,0.0813 1.6303,0.0347 2.32143,-0.19872 4.18396,-1.30082 5.531,-2.40811 1.1711,-0.96266 2.33293,-2.23877 3.51978,-3.90402 0.20093,-0.28191 0.40525,-0.57874 0.61303,-0.89154 1.56749,-2.35973 3.28162,-5.5658 5.13422,-9.88215 3.27669,-7.63432 6.78309,-18.32616 9.72243,-30.53372 0.008,-0.0312 0.0152,-0.0623 0.0221,-0.0937 1.99687,-9.03758 4.50208,-21.15038 7.65897,-34.08565 1.70634,-6.99166 3.36548,-13.2228 4.98496,-18.60953 0.49058,-1.63178 0.96699,-3.15091 1.42979,-4.56425 1.28159,-3.91366 2.52119,-7.19638 3.69909,-9.79042 2.596,-4.79649 4.3798,-7.32212 5.6612,-8.61896 0.6553,-0.66311 1.0014,-0.81387 1.015,-0.80393 0.012,0.009 -0.3695,0.0874 -0.485,0.0743 -0.1236,-0.014 0.1022,0.0135 0.6023,0.32084 0,0 0.01,0.006 0.01,0.006 0.6376,0.39331 1.4155,1.01277 2.2588,1.75831 1.9685,1.74009 3.3886,3.24731 7.5909,7.55452 0.4346,0.48839 0.8844,1.00329 1.3493,1.54628 5.7454,6.71109 11.8667,15.36425 19.4856,27.86564 5.8583,9.61242 11.7191,20.17971 16.9275,28.34319 0.026,0.0411 0.053,0.0821 0.08,0.12251 2.8304,4.16835 5.6259,7.57158 8.5059,9.95778 1.4468,1.19877 2.9814,2.19741 4.6232,2.90073 1.6658,0.71359 3.4088,1.108 5.2108,1.11561 1.8162,0.008 3.5329,-0.37811 5.1312,-1.03613 1.6046,-0.66058 3.0756,-1.58889 4.4255,-2.64987 2.7586,-2.16824 5.3613,-5.17627 7.8299,-8.43497 0.08,-0.1057 0.1561,-0.21437 0.2275,-0.32614 0.9327,-1.4612 2.0302,-3.10815 2.9628,-4.56934 0.6025,-0.94122 1.1925,-1.88699 1.7613,-2.86301 1.5231,-2.61316 2.8412,-5.35367 3.9399,-8.81173 2.2028,-6.93346 3.4139,-16.47053 3.889,-32.57539 7e-4,-0.0249 10e-4,-0.0498 0,-0.0747 0.085,-4.84723 0.01,-8.68662 -0.2564,-12.79676 -0.2632,-4.0596 -0.7102,-8.33433 -1.3602,-14.09056 -1.0822,-9.58409 -2.9313,-24.95048 -5.5315,-51.90731 -0.3312,-3.43382 -0.6782,-7.09113 -1.0409,-10.98844 l 0.012,0.16322 c -0.3086,-3.47933 -0.4142,-5.54362 -0.4004,-7.05504 0.013,-1.43624 0.124,-2.43943 0.5631,-4.26197 l -7.1052,0.77047 c 0.7838,0.73915 1.8443,2.12828 2.926,3.7336 1.205,1.78836 2.443,3.84948 3.5142,5.77785 0,-6e-5 0.05,0.0896 0.05,0.0896 l -0.042,-0.0975 c 1.6149,2.73482 3.7778,6.38603 4.0468,6.93343 0.035,0.0713 0.042,0.1038 0.05,0.12456 a 1.4479376,1.4479376 90 0 0 2.6846,-1.08576 c -0.01,-0.0208 -0.026,-0.0489 -0.05,-0.12456 -0.1871,-0.58048 -1.1705,-4.70872 -1.9108,-7.79731 -0,-0.0172 -0.011,-0.0339 -0.019,-0.0494 -0.01,-0.0155 -0.017,-0.0314 -0.023,-0.0481 -10e-5,-1.2e-4 -0.036,-0.0988 -0.036,-0.0989 -0.7771,-2.1539 -1.5952,-4.43672 -2.4092,-6.61137 -0.6891,-1.84107 -1.4536,-3.8161 -2.0724,-5.16353 -0.1726,-0.37564 -0.3477,-0.75164 -0.5701,-1.10014 -0.2223,-0.34849 -0.4922,-0.66914 -0.8162,-0.92589 -0.6479,-0.51349 -1.5199,-0.73543 -2.3318,-0.57988 -0.812,0.15554 -1.5272,0.65734 -2.0681,1.28255 -0.5409,0.62521 -0.9307,1.36396 -1.319,2.09383 -0.9137,1.7175 -1.7596,3.3903 -2.3125,5.79678 -0.5529,2.40637 -0.7371,5.23999 -0.625,8.99106 0,0.0546 0.01,0.10887 0.012,0.16323 0.3387,3.91128 0.6635,7.58238 0.9744,11.03038 2.456,27.23203 4.2226,42.41105 5.3252,52.13532 0.6539,5.76717 1.1005,9.82788 1.3846,13.63051 0.2823,3.77907 0.405,7.32688 0.3809,11.93011 -0.3579,15.90972 -1.422,24.25904 -3.1009,29.80345 -0.8015,2.64707 -1.7616,4.71749 -2.963,6.80135 -0.4643,0.80543 -0.9677,1.6183 -1.5268,2.48993 -0.9713,1.51403 -1.8936,2.89143 -2.8612,4.39525 -2.2559,2.95418 -4.2156,5.10039 -5.9401,6.44389 -0.8214,0.63983 -1.5039,1.02945 -2.0591,1.25307 -0.528,0.21267 -0.9378,0.27495 -1.2783,0.26914 -0.3345,-0.006 -0.7517,-0.0795 -1.2966,-0.31915 -0.5631,-0.24761 -1.2784,-0.68028 -2.1546,-1.41643 -1.8011,-1.51315 -3.9423,-4.01705 -6.5048,-7.82225 -4.8504,-7.6984 -10.7202,-18.37011 -16.6349,-28.2016 -7.7174,-12.82777 -14.0699,-21.99119 -20.2301,-29.35584 -0.5381,-0.6433 -1.0589,-1.25409 -1.5622,-1.83402 -0.049,-0.0569 -0.1012,-0.11165 -0.1529,-0.16657 -3.9658,-4.21824 -5.6298,-6.21391 -7.8117,-8.32301 -0.9604,-0.92834 -2.2695,-2.11242 -3.7571,-3.07613 0,1e-5 -0.026,-0.0171 -0.026,-0.0171 -1.2856,-0.82944 -2.9229,-1.64074 -4.8589,-1.9379 -1.909,-0.29301 -3.8636,-0.0464 -5.7491,0.81 -1.7007,0.77244 -3.1574,1.95248 -4.446,3.32167 -2.33523,2.48138 -4.65751,6.17164 -7.35068,11.24209 -0.0558,0.10499 -0.10912,0.21127 -0.15781,0.31972 -1.39889,3.11586 -2.78923,6.86181 -4.17346,11.07814 -0.49286,1.50122 -0.99727,3.10094 -1.514,4.80519 -1.70427,5.62093 -3.43364,12.01835 -5.20761,19.12486 -3.09662,12.405 -6.03688,25.96095 -7.94733,34.14585 -2.93604,11.72887 -6.3547,21.73558 -9.39191,28.60141 -1.71174,3.86953 -3.14533,6.40196 -4.23866,8.00819 -0.14197,0.20856 -0.2762,0.39841 -0.40254,0.57109 -0.75934,1.0378 -1.25773,1.48796 -1.46284,1.64486 -0.24789,0.18963 -0.0311,-0.13067 0.84904,-0.20981 0.54341,-0.0489 1.09523,-0.0741 1.62978,0.0352 0.53456,0.10923 1.03411,0.34348 1.5214,0.58891 0.33921,0.17086 0.47772,0.33442 0.44352,0.29236 -0.0334,-0.0411 -0.17725,-0.21827 -0.399,-0.63086 -0.17193,-0.31987 -0.38366,-0.76832 -0.62215,-1.38388 -0.24704,-0.63762 -0.52788,-1.45148 -0.82986,-2.49258 -0.90147,-3.1079 -1.79948,-7.57372 -2.61446,-13.95008 -0.66989,-5.24124 -1.18678,-10.9959 -1.6278,-17.02372 -0.40335,-5.51299 -0.71403,-10.88464 -1.00232,-15.15963 -3e-4,-0.004 -4e-4,-0.009 -6.9e-4,-0.0135 -0.96263,-14.78562 -1.30643,-28.72898 -3.96719,-52.57392 -3.16208,-28.33751 -7.29452,-49.44282 -10.3647,-67.00376 -2.11524,-12.09881 -2.67663,-19.2945 -3.54945,-23.52479 -0.29521,-1.43078 -0.59988,-2.45192 -0.72069,-2.94167 a 7.4969705,7.4969705 90 0 0 -14.55758,3.59102 z"
     id="path4943"
     inkscape:connector-curvature="0"
     inkscape:path-effect="#path-effect5047"
     inkscape:original-d="m 930.6736,280.17732 c 19.04719,77.21517 19.46785,120.54249 20.72981,144.51974 0.84131,16.82614 1.88835,51.57287 9.13659,55.2907 5.98897,-0.49771 14.21986,-21.26069 19.58563,-43.1254 3.70931,-16.32657 11.0043,-52.00961 18.35732,-68.23001 10.21405,-19.08543 13.07385,-13.76378 25.39065,-0.90861 15.5978,17.73475 28.653,43.66726 38.1617,58.65593 10.937,16.18675 17.6674,14.72288 27.5612,1.68262 6.9324,-10.83604 10.7182,-13.88157 11.5595,-46.2719 0.2188,-18.92941 -2.0191,-21.26824 -8.127,-89.26268 -0.4323,-7.47302 0.215,-9.57098 1.5501,-13.05243 1.3999,2.12636 3.4301,6.15735 5.5036,10.7374 l 3.0292,7.48993"
     sodipodi:nodetypes="ccccccccccccc" />
  <path
     style="fill:#000000;fill-opacity:1;fill-rule:nonzero;stroke:none;stroke-width:3.75000429;stroke-linecap:round;stroke-linejoin:miter;stroke-miterlimit:15;stroke-dasharray:none;stroke-opacity:1;paint-order:normal"
     d="m 1192.6728,258.87482 c 0,0 0,0.0242 0,0 -0.011,-0.17095 0.2985,0.18823 0.7238,1.42561 0.3058,0.88987 0.6523,2.16674 1.0107,3.93041 0.5775,2.84239 1.1179,6.61333 1.5765,11.28591 0.1638,1.66886 0.3121,3.40229 0.4443,5.17439 0.1629,2.18267 0.3045,4.52741 0.423,6.96198 0.1687,3.46616 0.2707,6.71072 0.3228,9.16526 9e-4,0.0389 -2e-4,0.0779 0,0.11682 0.1002,2.7 0.094,6.73273 -0.02,12.37227 -0.1043,5.15246 -0.2923,11.37744 -0.5461,18.89083 -0.4347,12.87604 -1.1713,32.35782 -1.7215,51.24619 -0.391,7.70727 1.1723,14.94202 4.3735,21.4496 3.1884,6.48123 7.9283,12.09627 13.7197,16.70946 11.8838,9.46618 27.9785,14.60031 44.7165,15.0645 0.085,0.002 0.1693,0.004 0.2539,0.002 18.123,-0.45602 30.8735,-3.94347 39.9741,-9.05544 5.2463,-2.94693 9.2014,-6.39336 12.1932,-9.97906 2.1499,-2.57663 3.7924,-5.21349 5.0536,-7.76474 0.8077,-1.63407 1.4984,-3.31161 2.0821,-5.02322 0.025,-0.0739 0.057,-0.14534 0.087,-0.21765 0.03,-0.0723 0.046,-0.14925 0.053,-0.22704 0.7171,-7.69867 -2.1508,-14.05558 -3.9581,-18.25627 0.1889,1.991 0.1846,4.90793 -0.3453,8.01316 -0.5446,3.19156 -1.4936,5.83973 -2.707,8.52168 l 0.1402,-0.44468 c -0.6201,1.39174 -1.3104,2.72909 -2.0743,4.01146 -1.1919,2.001 -2.6558,4.02613 -4.4861,5.98016 -2.5321,2.70328 -5.8302,5.34096 -10.2412,7.62235 -7.6342,3.9485 -18.8446,6.95703 -35.8009,7.19821 -15.034,-0.61727 -28.847,-5.37749 -38.6187,-13.31307 -4.7393,-3.84881 -8.4135,-8.3563 -10.8118,-13.33941 -2.4015,-4.9897 -3.55,-10.50563 -3.1949,-16.45343 0,-0.0414 0,-0.0829 0.01,-0.12443 0.6574,-19.19957 1.4705,-37.94951 2.0167,-51.21885 0.3103,-7.53858 0.5556,-13.77056 0.7259,-19.00425 0.1847,-5.67651 0.2719,-9.91045 0.2517,-12.89376 l 0,0.11682 c 0.051,-2.54101 0.052,-5.98662 0.016,-9.5002 -0.026,-2.51213 -0.069,-4.92292 -0.1201,-7.19209 -0.041,-1.83854 -0.092,-3.64654 -0.1526,-5.40071 -0.1693,-4.87506 -0.4085,-9.02749 -0.7245,-12.35797 -0.197,-2.07598 -0.4213,-3.80896 -0.6777,-5.25048 -0.3582,-2.01383 -0.7932,-3.54745 -1.3779,-4.80309 -0.092,-0.19769 0,0 0,0 a 7.0972245,7.0972245 90 0 0 -12.5872,6.56098 z"
     id="path4941"
     inkscape:path-effect="#path-effect5084"
     inkscape:original-d="m 1198.9664,255.59433 c 3.096,5.93963 3.7691,32.39032 3.7691,41.22405 0.2524,12.01386 -1.4303,44.58927 -2.6417,82.83509 -1.5312,27.52757 25.0709,47.1132 57.7641,48.2069 33.0215,-0.63939 49.5438,-11.59553 56.0311,-28.31839 1.161,-4.72815 1.3833,-10.21744 -0.4529,-17.39556"
     inkscape:connector-curvature="0"
     sodipodi:nodetypes="cccccc" />
  <path
     style="fill:#000000;fill-opacity:1;fill-rule:nonzero;stroke:none;stroke-width:3.75000429;stroke-linecap:round;stroke-linejoin:miter;stroke-miterlimit:15;stroke-dasharray:none;stroke-opacity:1;paint-order:normal"
     d="m 1171.2197,307.02768 c 2.2191,-0.0372 6.8929,-0.0689 12.7965,-0.662 13.3432,-1.3406 31.2056,-5.1506 55.6879,-13.402 7.1354,-2.40491 14.9853,-5.21624 23.7608,-8.63487 0.026,-0.0101 0.052,-0.0215 0.078,-0.031 -0.037,0.0133 -0.028,0.008 -0.015,0.001 0.016,-0.008 0.046,-0.0205 0.085,-0.0364 0.078,-0.032 0.1935,-0.0772 0.3394,-0.13306 0.292,-0.11182 0.7077,-0.26694 1.2388,-0.46311 1.075,-0.39699 2.6036,-0.95507 4.5462,-1.66637 4.1341,-1.51374 10.2311,-3.75359 16.791,-6.23981 1.3455,-0.50996 2.7107,-1.03035 4.0805,-1.55628 7.5332,-2.89237 13.6259,-5.31769 21.0788,-8.27927 7.1495,-2.84099 15.4477,-6.13375 27.4325,-10.72249 -0.038,0.0145 7.9682,-3.04268 7.9304,-3.02824 0.012,-0.005 0.025,-0.008 0.037,-0.012 0.013,-0.004 0.025,-0.009 0.036,-0.0156 4.963,-2.85836 14.503,-8.00882 17.362,-9.59241 -3.1673,0.80586 -13.6447,3.59237 -19.218,4.91171 l 0.073,-0.0276 c -0.091,0.031 -7.9447,2.70459 -8.0354,2.73557 -12.1117,4.10943 -20.6816,6.89601 -27.9585,9.25667 -7.6348,2.47679 -13.8597,4.48972 -21.5137,7.06823 -1.3903,0.4684 -2.7739,0.9382 -4.1355,1.40345 -6.6324,2.26628 -12.7699,4.43379 -16.9169,5.91068 -0.8281,0.29491 -3.7502,1.34187 -4.5783,1.63678 -0.5437,0.1948 -0.9613,0.34424 -1.2802,0.45752 -0.163,0.0579 -0.2832,0.10035 -0.3956,0.13977 -0.109,0.0382 -0.041,0.0143 -0.1499,0.0526 -0.04,0.014 -0.1005,0.0354 -0.1603,0.0584 l 0.078,-0.031 c -8.6234,3.30817 -16.388,5.99384 -23.3893,8.13936 -24.1327,7.39548 -41.4488,9.25297 -53.9186,10.13656 -5.6061,0.39724 -9.8301,0.58362 -11.9675,0.61943 a 6.0036121,6.0036121 90 0 0 0.2012,12.00554 z"
     id="path4939"
     inkscape:path-effect="#path-effect5061"
     inkscape:original-d="m 1171.1191,301.02491 c 25.1047,-0.42065 53.2884,-6.3098 90.7603,-20.79711 1.0725,-0.43835 32.7773,-11.81195 84.3158,-30.42167 l 18.29,-7.25206"
     inkscape:connector-curvature="0" />
  <path
     style="fill:#000000;fill-opacity:1;fill-rule:nonzero;stroke:none;stroke-width:3.75000429;stroke-linecap:round;stroke-linejoin:round;stroke-miterlimit:15;stroke-dasharray:none;stroke-opacity:1;paint-order:normal"
     d="m 1190.4886,361.97374 c 0.3894,-0.0398 1.3854,-0.17478 2.469,-0.26208 1.8051,-0.14544 5.0299,-0.0742 7.9889,-0.5399 1.4663,-0.23079 2.6921,-0.5602 4.0489,-0.9436 1.7312,-0.48918 3.4419,-0.99453 6.3449,-1.63271 2.135,-0.46936 5.926,-1.25883 9.2302,-2.06427 l -0.081,0.0169 c 6.1017,-1.32928 13.5958,-3.48112 22.6638,-6.64885 7.7733,-2.71545 15.9713,-5.92331 24.0225,-9.31828 11.6562,-4.42152 24.2311,-10.55767 33.9417,-15.99311 5.2266,-2.92556 9.6166,-5.64069 12.8843,-7.92964 1.7506,-1.22619 3.2247,-2.36131 4.3819,-3.38956 0.6086,-0.54083 1.1653,-1.08358 1.6438,-1.62496 0.4801,-0.54315 0.9838,-1.19902 1.3618,-1.95027 0.235,-0.4668 0.4638,-0.94799 0.5316,-1.46616 0.034,-0.25908 0.028,-0.5229 -0.012,-0.78108 -0.04,-0.25818 -0.1151,-0.50949 -0.1926,-0.75903 -0.04,-0.12766 -0.077,-0.24321 -0.1124,-0.34286 -0.1897,-0.53331 -0.2733,-1.06388 -0.3279,-1.27666 a 4.2711345,4.2711345 90 0 0 -8.2738,2.1247 c 0.055,0.21278 0.2371,0.71795 0.3278,1.27666 0.017,0.1044 0.04,0.22367 0.067,0.35462 l 0.3272,-3.00627 c 0.078,-0.15689 0.086,-0.12066 -0.1281,0.11794 -0.1894,0.21095 -0.4842,0.5053 -0.9188,0.88799 -0.8288,0.72997 -2.0194,1.65299 -3.6146,2.76371 -2.9636,2.06356 -7.0967,4.61614 -12.1668,7.43925 -9.4513,5.26257 -21.687,11.19075 -32.893,15.38335 -0.05,0.0186 -0.099,0.0384 -0.1476,0.0587 -7.9467,3.29839 -16.0203,6.38739 -23.6129,8.93932 -8.8415,2.97171 -16.0059,4.87207 -21.6094,5.89236 -0.027,0.005 -0.054,0.0117 -0.081,0.0169 -3.2867,0.63243 -6.5569,1.09179 -8.8505,1.34092 -2.7276,0.29627 -4.6916,0.30097 -6.3142,0.30686 -1.3782,0.005 -2.579,0.0103 -4.0217,0.16078 -2.8847,0.30081 -5.9086,1.10278 -7.6441,1.34651 -1.0552,0.14818 -2.0047,0.21431 -2.3828,0.25293 a 5.653738,5.653738 90 0 0 1.1492,11.24894 z"
     id="path4937"
     inkscape:path-effect="#path-effect5082"
     inkscape:original-d="m 1189.914,356.34927 c 7.7644,-0.79317 20.4269,-2.40614 29.6476,-4.42528 13.1965,-2.64935 30.5058,-8.93468 45.9859,-15.41274 22.3451,-8.41308 49.5438,-23.87955 52.0096,-28.75588 l -0.4174,-1.6254"
     inkscape:connector-curvature="0"
     sodipodi:nodetypes="ccccc" />
  <path
     style="fill:#000000;fill-opacity:1;fill-rule:nonzero;stroke:none;stroke-width:4.74612141;stroke-linecap:round;stroke-linejoin:miter;stroke-miterlimit:15;stroke-dasharray:none;stroke-opacity:1;paint-order:normal"
     d="m 1473.1737,440.76884 c -0.073,0.45707 -0.1761,0.98845 -0.3439,1.66918 -0.1147,0.46535 -0.2438,0.93511 -0.3751,1.38048 -0.2365,0.8029 -0.4317,1.36858 -0.4735,1.45419 -0.199,0.57963 -0.5129,1.23397 -1.0095,1.87746 -0.7222,0.93591 -1.6837,1.65345 -2.781,2.07967 -1.0587,0.41117 -2.0338,0.47268 -2.753,0.43133 -0.7209,-0.0414 -1.3158,-0.19278 -1.7322,-0.32757 -0.8183,-0.26492 -1.4599,-0.63586 -1.8407,-0.87557 -0.435,-0.27383 -0.8263,-0.56717 -1.1526,-0.82895 -0.6871,-0.55124 -1.3783,-1.19933 -2.0064,-1.82418 -0.089,-0.0887 -0.1783,-0.17815 -0.2674,-0.26831 -0.6188,-0.62643 -1.2578,-1.30922 -1.8905,-2.00872 -3.3369,-3.68874 -7.3105,-8.72371 -10.8598,-13.50878 -3.3043,-4.45491 -7.7191,-10.68777 -11.7493,-17.14103 -1.6155,-2.58679 -3.344,-5.49001 -4.8875,-8.38236 -0.3433,-0.64338 -0.6819,-1.29441 -1.0109,-1.94781 -0.9314,-1.84992 -1.82,-3.78764 -2.5193,-5.66307 l 0,0.0126 c -4.6765,-12.39194 -8.4772,-25.43588 -10.721,-40.04497 -1.8439,-12.0046 -2.5232,-24.12293 -2.496,-38.58073 10e-5,-0.022 2e-4,-0.0439 4e-4,-0.0659 0.1706,-13.44769 3.3021,-26.35887 8.8617,-38.24219 5.3477,-11.43055 12.8876,-21.78597 21.9366,-30.55354 8.8029,-8.52912 19.0188,-15.53591 29.8851,-20.45539 10.6634,-4.82761 21.9986,-7.66132 33.144,-7.84996 2.7571,-0.0674 5.8067,-0.003 8.7301,0.58166 2.9698,0.59399 6.0796,1.77647 8.685,4.14875 2.6715,2.43253 4.3672,5.71081 5.1397,9.69148 0.7646,3.94051 0.6393,8.61135 -0.2647,14.0513 -0.026,0.15635 -0.058,0.31162 -0.098,0.46507 -1.2532,4.85075 -3.7531,9.61643 -6.9227,14.13988 -3.2254,4.60308 -7.2694,9.13278 -11.7553,13.46422 -9.1873,8.87091 -20.5396,17.2132 -31.5857,24.10865 -11.5754,7.22595 -23.0327,13.00903 -32.3316,16.61275 -4.844,1.87724 -9.2561,3.2258 -12.9801,3.89168 -0.6235,0.11148 -1.2349,0.20518 -1.8324,0.27926 -1.2326,0.15284 -2.459,0.22886 -3.6403,0.18878 -1.6619,-0.0564 -3.5756,-0.35264 -5.3162,-1.28869 -0.9814,-0.52781 -1.9734,-1.08843 -2.71,-1.92465 -0.7366,-0.83623 -1.1804,-1.94894 -1.1105,-3.06111 0.07,-1.11218 0.6505,-2.16093 1.4888,-2.89515 0.8383,-0.73421 1.8965,-1.15834 2.9397,-1.55013 8.6987,-3.26681 17.0766,-3.8731 24.7548,-3.29597 7.2263,0.54317 13.6358,2.13187 18.1758,3.02723 9.2114,1.77399 18.6894,3.41759 31.2291,6.12772 13.0803,2.827 28.5283,6.6136 48.6352,12.33891 0.099,0.0281 0.1973,0.0563 0.2929,0.0934 0.4353,0.16851 1.0643,0.34735 2.0411,0.64334 0.9391,0.28458 2.06,0.6394 3.2291,1.11934 1.2127,0.49785 2.4981,1.13828 3.737,2.00088 1.2998,0.90501 2.5235,2.03781 3.5485,3.46332 2.2923,3.18786 3.1112,7.14975 2.7127,11.64281 -0.4578,5.162 -2.5172,11.05284 -5.6065,17.37219 -4.3122,8.80567 -9.7719,15.51333 -14.6506,20.44492 -2.4736,2.50034 -4.8645,4.61398 -6.9585,6.33862 -5.2257,4.30413 -10.2918,7.57079 -13.9721,9.74497 -3.8746,2.289 -8.4887,4.71365 -14.0832,7.08749 -2.1237,0.90114 -4.5091,1.84614 -7.1621,2.79889 -6.2781,2.25466 -13.3087,4.29517 -20.934,5.92807 -7.99,1.71102 -15.5502,2.73558 -21.5991,3.16158 -0.098,0.007 -0.1965,0.015 -0.295,0.015 -2.4701,-0.002 -5.8229,-0.14492 -9.2575,-0.67031 -3.2379,-0.49529 -6.8594,-1.37543 -9.8664,-3.00476 -1.5231,-0.82529 -3.0067,-1.90575 -4.1907,-3.33395 -1.2348,-1.48956 -2.0771,-3.28243 -2.3221,-5.33362 -0.2482,-2.07835 0.1484,-4.14097 0.9513,-6.11408 0.8355,-2.05313 2.1475,-4.1037 3.7989,-6.14636 1.0962,-1.20698 2.1288,-2.25225 3.1778,-3.20125 1.0713,-0.96927 2.2456,-1.89564 3.5314,-2.76014 3.7488,-2.52055 7.3839,-3.79913 9.8201,-4.59138 0.1056,-0.0343 0,0 0,0 a 1.9710577,1.9710577 90 0 1 1.5492,3.62496 c 0,0 0.089,-0.0486 0,0 -2.1185,1.16347 -4.7939,3.02157 -7.3246,5.78217 -0.859,0.93701 -1.6166,1.87813 -2.3343,2.8289 -0.7067,0.93613 -1.3985,1.9346 -2.1859,3.15594 -1.2638,1.71253 -2.0044,3.11961 -2.3681,4.22325 -0.3435,1.04259 -0.3043,1.66528 -0.2102,1.99677 0.079,0.27827 0.2463,0.51817 0.5301,0.78344 0.3194,0.29863 0.8433,0.6703 1.6851,1.05275 1.7445,0.7926 4.1949,1.33678 6.995,1.63111 2.7389,0.28788 5.4664,0.30251 7.5628,0.21586 5.6021,-0.51853 12.6409,-1.55349 20.194,-3.22711 7.2022,-1.59586 13.7774,-3.52466 19.6641,-5.61485 2.4787,-0.8801 4.7126,-1.74292 6.6933,-2.55223 5.1715,-2.11303 9.5895,-4.25778 13.1613,-6.2063 3.4888,-1.90322 8.1166,-4.67157 12.9375,-8.50281 1.9175,-1.52392 4.0799,-3.38559 6.3079,-5.59842 4.3923,-4.36233 9.2218,-10.24899 13.0202,-17.9532 2.9074,-5.88656 4.4324,-10.6155 4.7415,-14.16827 0.2552,-2.93231 -0.3538,-4.55506 -1.0694,-5.5225 -0.3504,-0.47356 -0.7992,-0.89414 -1.369,-1.27723 -0.5561,-0.37386 -1.2151,-0.70367 -1.9861,-1.00419 -0.7522,-0.29317 -1.5355,-0.53049 -2.3908,-0.76968 -0.6504,-0.18189 -1.5899,-0.42804 -2.3604,-0.68002 -19.9035,-5.58062 -35.1535,-9.22075 -48.0072,-11.89588 -12.3984,-2.58035 -21.6595,-4.0846 -31.0528,-5.79017 -5.1691,-0.91015 -10.6036,-2.19921 -17.0662,-2.60074 -6.5881,-0.40933 -13.4051,0.20235 -20.3713,2.87935 l 0.608,-9.43103 c -0.2608,-0.14417 0.018,0.0223 0.7471,0.0417 0.5106,0.0136 1.1752,-0.02 2.0075,-0.12728 0.3955,-0.051 0.8222,-0.11774 1.2804,-0.20172 2.8235,-0.5174 6.5484,-1.6327 11.0383,-3.38682 8.5653,-3.34632 19.4237,-8.83164 30.5348,-15.79665 10.6113,-6.65177 21.3093,-14.5721 29.7969,-22.79845 4.1377,-4.01029 7.6851,-8.03195 10.4084,-11.93641 2.6379,-3.78198 4.3959,-7.30222 5.2443,-10.46757 0.7254,-4.59873 0.6678,-7.81238 0.2246,-10.01076 -0.4267,-2.11586 -1.1759,-3.15618 -1.8485,-3.75261 -0.718,-0.63674 -1.8068,-1.1687 -3.5276,-1.49642 -1.7571,-0.33463 -3.8726,-0.40173 -6.3686,-0.31973 -0.02,6.6e-4 -0.04,0.001 -0.06,0.001 -9.4447,0.17734 -19.3082,2.60985 -28.8063,6.93161 -9.6637,4.39713 -18.8187,10.68884 -26.7264,18.37936 -8.1239,7.90071 -14.833,17.17654 -19.5567,27.32421 -4.8971,10.52044 -7.6133,21.86458 -7.7452,33.62853 0.028,14.06922 0.7446,25.56749 2.5295,36.8009 2.1701,13.65748 5.8052,25.9066 10.3339,37.6654 0,0.004 0,0.008 0,0.0126 0.5188,1.34197 1.2274,2.86344 2.0596,4.47284 0.2888,0.55855 0.5901,1.12291 0.9003,1.68899 1.4062,2.56603 3.0145,5.20043 4.5732,7.62473 3.9046,6.07282 8.1742,11.89012 11.4529,16.14823 3.5019,4.54802 7.351,9.23316 10.3308,12.4335 0.5563,0.59748 1.0776,1.1376 1.545,1.59802 0.066,0.0653 0.1313,0.12878 0.1949,0.19033 0.4834,0.46786 0.8383,0.77796 1.042,0.93386 0.1022,0.0782 0.087,0.0579 0.01,0.007 -0.045,-0.0289 -0.3811,-0.24675 -0.9469,-0.43026 -0.2915,-0.0946 -0.7722,-0.2223 -1.3909,-0.25795 -0.6181,-0.0356 -1.5037,0.0143 -2.4851,0.39537 -1.021,0.39652 -1.9181,1.06636 -2.5889,1.93551 -0.6308,0.81736 -0.9299,1.63656 -1.0735,2.23518 l 0.1832,-0.62187 c -0.03,0.0434 0.1367,-0.41874 0.3189,-0.97979 0.1021,-0.31473 0.1899,-0.59947 0.2611,-0.84868 0.098,-0.34425 0.1299,-0.49732 0.1301,-0.49866 a 6.2199317,6.2199317 90 0 1 12.2836,1.96616 z"
     id="path4935"
     inkscape:connector-curvature="0"
     sodipodi:nodetypes="cccccccccsccc"
     inkscape:path-effect="#path-effect5086"
     inkscape:original-d="m 1467.0319,439.78576 c -0.2085,1.3026 -0.9538,3.42005 -0.9538,3.42005 -0.7941,3.321 -28.9714,-32.10428 -35.1298,-48.37515 -10.6863,-28.03642 -13.0402,-50.05778 -13.0402,-76.55895 0.6057,-51.50482 47.416,-90.97895 88.3372,-91.70248 10.5668,-0.30287 20.2755,1.64896 16.9103,22.14321 -8.2616,32.1211 -86.5227,74.68939 -98.7411,68.14994 16.0812,-6.10206 30.6916,-2.04061 40.1861,-0.27329 18.1722,3.39888 38.3636,6.46124 79.5035,18.08811 5.0646,1.80075 20.3758,2.94649 7.1511,29.8664 -20.0153,40.74266 -74.8763,50.89908 -95.6902,52.58169 -9.6919,0.20192 -29.6645,-1.80096 -17.6675,-17.24679 3.1741,-4.09096 7.0709,-8.11928 14.1877,-11.1607" />
  <path
     style="fill:#000000;fill-opacity:1;fill-rule:nonzero;stroke:none;stroke-width:4.74612141;stroke-linecap:round;stroke-linejoin:miter;stroke-miterlimit:15;stroke-dasharray:none;stroke-opacity:1;paint-order:normal"
     d="m 1713.6764,223.64318 c -0.3528,0.003 -1.1017,-0.0127 -2.2496,0.0317 -4.9184,0.19049 -15.6454,1.34075 -28.1587,3.42507 -13.1003,2.18213 -29.0974,5.76313 -43.8404,12.74939 -8.5047,4.03014 -15.2357,8.58618 -19.9526,13.281 -2.4642,2.45262 -4.3498,4.91432 -5.6664,7.33716 -1.519,2.79545 -2.2671,5.5158 -2.3071,8.0777 -7e-4,0.0457 -9e-4,0.0913 -5e-4,0.13698 0,0.12832 0,0.25611 0.01,0.38333 0.088,2.99751 0.8952,5.7478 2.0687,8.19681 1.3077,2.72939 3.1221,5.19433 5.124,7.39175 4.251,4.66613 10.0451,8.87918 16.1693,12.62943 8.9104,5.45644 19.9067,10.77987 32.4668,16.34525 4.5347,2.00932 9.1603,4.0068 13.5018,5.87144 14.9098,6.40374 32.4308,13.7489 44.6993,20.36669 5.479,2.95544 10.4288,6.0323 13.752,8.99182 1.4661,1.30569 2.4613,2.45421 3.0515,3.40863 0.1195,0.19313 0.2171,0.37005 0.2964,0.53074 0.2209,0.44767 0.2862,0.74132 0.3035,0.91132 -0.039,1.37647 -0.4466,2.99449 -1.5878,4.90753 -1.0861,1.82053 -2.8249,3.88165 -5.4506,6.12151 -4.7798,4.07735 -11.9121,8.24391 -21.2632,12.1878 -8.4618,3.56882 -18.2282,6.7348 -28.3492,9.25779 -9.5801,2.38815 -19.1572,4.11658 -27.4737,4.99165 -0.043,0.005 -0.087,0.008 -0.1299,0.0138 -12.8127,1.85883 -19.525,2.58334 -26.9635,2.72569 l 0.5163,0.0421 c -0.069,0.0105 -0.15,0.0157 -0.2416,0.0149 -0.312,-0.003 -0.7541,-0.0713 -1.2734,-0.25086 -0.6016,-0.20802 -1.2738,-0.55445 -1.9077,-1.06639 -1.1551,-0.93289 -2.2766,-2.48665 -2.4331,-4.9827 l -0,0.039 c -0.1599,-2.04256 -0.016,-3.6107 0.5128,-5.42249 0.8514,-2.91423 2.9455,-6.72472 3.3606,-7.44493 0.104,-0.18044 0.1522,-0.24728 0.1815,-0.29483 a 2.232464,2.232464 90 0 0 -3.8006,-2.34334 c -0.031,0.0505 -0.068,0.1212 -0.1852,0.3009 -0.079,0.12169 -3.3947,4.84581 -4.8162,7.61606 -1.1245,2.19152 -1.9153,4.44182 -2.2509,7.35697 -8e-4,0.006 -10e-4,0.013 -8e-4,0.0195 2e-4,0.007 2e-4,0.013 -3e-4,0.0195 -0.3198,4.45961 1.163,8.14248 3.4494,10.83889 1.1731,1.3835 2.5074,2.44976 3.8155,3.23016 1.1263,0.6719 2.2604,1.14908 3.3317,1.45268 0.3193,0.0905 0.6465,0.16989 0.9796,0.23545 0.085,0.0167 0.1707,0.0279 0.2572,0.0312 0.086,0.003 0.1729,0.005 0.2591,0.011 7.961,0.55085 15.3756,0.56053 28.5627,-0.63955 l -0.1299,0.0138 c 8.9567,-0.76357 19.1218,-2.43769 29.2078,-4.79537 10.6562,-2.49096 21.0922,-5.70982 30.2915,-9.45446 10.0636,-4.09647 18.5398,-8.77055 24.7263,-13.93846 3.4422,-2.87545 6.2367,-5.95219 8.2343,-9.24963 2.252,-3.7174 3.4313,-7.62303 3.4527,-11.60518 4e-4,-0.0782 -4e-4,-0.15645 -0,-0.23464 -0.074,-2.39869 -0.7631,-4.55484 -1.7008,-6.40357 -0.2805,-0.55317 -0.5859,-1.08401 -0.9084,-1.59225 -1.4975,-2.35968 -3.4838,-4.41546 -5.5137,-6.16906 -4.5396,-3.92192 -10.6206,-7.447 -16.3664,-10.3967 -12.9778,-6.66234 -31.4564,-13.89618 -46.043,-19.91562 -4.37,-1.80334 -8.913,-3.70362 -13.4117,-5.65587 -12.4643,-5.409 -22.9202,-10.45424 -31.1854,-15.50786 -5.753,-3.51755 -10.517,-7.09216 -13.7283,-10.63173 -1.4874,-1.63937 -2.5879,-3.21367 -3.2976,-4.70316 -0.6249,-1.31136 -0.937,-2.53367 -0.9702,-3.69949 -7e-4,-0.0246 -0,-0.0492 -0,-0.0739 0.018,-0.52555 0.1738,-1.49651 0.9274,-2.94085 0.6886,-1.31973 1.8414,-2.95983 3.6725,-4.83451 3.5379,-3.62218 9.0912,-7.58689 16.7857,-11.25205 13.1963,-6.28589 28.4223,-9.6874 40.8079,-11.1159 11.9382,-1.37689 22.1458,-0.83343 26.7993,-0.81907 1.1089,0.003 1.7726,-0.0265 2.1296,-0.03 a 7.0151386,7.0151386 90 0 0 -0.138,-14.0296 z"
     id="path4933"
     inkscape:path-effect="#path-effect8601"
     inkscape:original-d="m 1713.7454,230.65798 c -63.3336,0.62257 -96.4306,24.28013 -96.6494,37.97661 0.2861,33.61863 131.53,59.61502 132.2872,84.97202 -0.1515,22.98451 -56.132,40.11352 -90.0199,43.32731 -12.527,1.47415 -19.7216,1.89395 -27.7631,1.68262 -3.6266,-0.49811 -8.8674,-4.12241 -8.716,-11.02113 0.1515,-4.57671 1.649,-7.7232 5.6536,-14.21809"
     inkscape:connector-curvature="0"
     sodipodi:nodetypes="ccccccc" />
  <path
     style="fill:#000000;fill-opacity:1;fill-rule:nonzero;stroke:none;stroke-width:4.74600554;stroke-linecap:round;stroke-linejoin:miter;stroke-miterlimit:15;stroke-dasharray:none;stroke-opacity:1;paint-order:normal"
     d="m 1878.7315,231.7649 c -0.075,0.17062 -0.2657,0.53486 -0.4589,1.11856 -0.4129,1.24682 -0.9105,3.707 -1.1717,6.94281 -0.2098,2.59879 -0.2377,5.32599 -0.037,7.69893 -0.013,1.14376 -0.017,2.29866 -0.014,3.45979 0.034,12.65474 0.9572,27.3789 2.1011,42.68715 0.5579,7.4661 1.14,14.70533 1.5761,20.92943 0.4251,6.06697 0.6984,11.02838 0.679,14.24376 -5e-4,0.0824 4e-4,0.16478 0,0.24712 0.2674,7.70243 0.3272,17.23403 0.2661,27.56552 -0.06,10.22159 -0.238,21.06727 -0.4361,31.40564 -0.3009,15.69672 -0.2527,12.41737 -0.5536,28.11409 -0.061,3.51174 -0.1059,6.68598 -0.1281,9.43645 -0,0.40949 -0.01,0.81197 -0.01,1.20663 -0.017,2.90693 -0.01,5.46355 0.053,7.31542 0,0.0912 0.01,0.18237 0.015,0.27334 0.3105,3.85696 1.9132,7.15388 4.2144,9.56624 1.0562,1.10721 2.254,2.01998 3.5075,2.6835 1.1844,0.62691 2.7427,1.20063 4.4724,1.21684 0.5125,0.005 1.0234,-0.059 1.52,-0.18567 0.7556,-0.19269 1.4923,-0.50829 2.1795,-0.9222 0.7596,-0.45757 1.4638,-1.03824 2.09,-1.72691 1.741,-1.91479 2.4631,-4.19145 2.7898,-5.73681 a 5.9276844,5.9276844 90 0 0 -11.599,-2.4521 c -0.086,0.40735 -0.2791,0.59193 0.035,0.25419 0.1178,-0.12658 0.2989,-0.28696 0.5606,-0.44279 0.2274,-0.13538 0.5544,-0.29082 1.0047,-0.40506 0.4967,-0.12605 1.0075,-0.19093 1.52,-0.18567 0.8823,0.009 0.985,0.17998 0.9417,0.1577 -0.064,-0.0327 -0.254,-0.15334 -0.4818,-0.3937 -0.4512,-0.47592 -0.8503,-1.20033 -0.9475,-2.21082 -0.044,-1.60421 -0.048,-3.91819 -0.024,-6.72 0,-0.38546 0.01,-0.77937 0.011,-1.18103 0.029,-2.70273 0.079,-5.83886 0.1438,-9.33549 0.1356,-7.33558 0.4334,-20.76174 0.569,-28.09733 0.2003,-10.35571 0.3785,-21.26316 0.4405,-31.56357 0.062,-10.3369 0.01,-20.00267 -0.2572,-27.9175 0.024,-3.73343 -0.2672,-9.05644 -0.6621,-15.02178 -0.3692,-5.5752 -1.102,-15.40088 -1.4711,-20.97608 -1.0371,-15.23488 -1.7848,-29.66382 -1.5644,-41.73407 0.021,-1.17478 0.053,-2.33555 0.095,-3.47698 0,-0.0407 -6e-4,-0.0814 -0,-0.12194 -0,-0.0406 -0,-0.0814 0,-0.12169 0.1747,-1.21377 0.6089,-2.9723 1.2854,-4.82383 0.8604,-2.3548 1.5432,-3.38906 1.8705,-4.03409 0.1336,-0.26331 0.1622,-0.40098 0.1921,-0.46946 a 7.8175152,7.8175152 90 0 0 -14.3242,-6.26654 z"
     id="path4931"
     inkscape:connector-curvature="0"
     sodipodi:nodetypes="cccccc"
     inkscape:path-effect="#path-effect8603"
     inkscape:original-d="m 1885.8936,234.89817 c -1.5311,3.49984 -2.5575,9.06929 -2.507,12.5523 -0.6563,27.29201 4.0719,67.67475 3.9709,81.43853 1.0769,31.48172 -1.2619,91.60152 -0.8413,105.06244 0.4038,5.19927 4.3778,8.00634 6.3464,8.02317 0.589,-0.15143 2.1068,-0.95155 2.7293,-3.89613" />
  <path
     style="fill:#000000;fill-opacity:1;fill-rule:nonzero;stroke:none;stroke-width:4.74612141;stroke-linecap:round;stroke-linejoin:miter;stroke-miterlimit:15;stroke-dasharray:none;stroke-opacity:1;paint-order:normal"
     d="m 1988.0955,248.35627 c 24.7216,-5.81504 44.5669,-8.89561 49.2306,-9.63188 4.3186,-0.68179 7.794,-1.17363 12.1126,-1.85542 1.2031,-0.18768 6.3673,-1.01778 14.3796,-2.07948 9.5561,-1.26626 24.2041,-3.05222 51.4975,-5.41007 10.8278,-0.9354 48.6392,-3.88366 73.0737,-6.59642 16.352,-1.81542 33.2235,-3.8944 50.9551,-6.90542 a 5.2324164,5.2324164 90 0 0 -1.752,-10.31714 c -17.4676,2.9662 -34.0917,5.20515 -50.298,6.81517 -24.9364,2.47731 -61.1624,4.79042 -72.8786,5.6331 -27.581,1.98372 -42.241,3.50482 -52.0774,4.59127 -7.309,0.8073 -14.2716,1.66334 -14.6591,1.71159 -1.5968,0.19883 -5.2593,0.66816 -12.3416,1.77935 -4.7832,0.75047 -24.9294,3.88254 -50.1698,9.81963 a 6.3926918,6.3926918 90 0 0 2.9274,12.44572 z"
     id="path4929"
     inkscape:path-effect="#path-effect8605"
     inkscape:original-d="m 1986.6318,242.13341 c 95.3537,-22.42924 162.6583,-16.27088 251.8368,-31.4144"
     inkscape:connector-curvature="0" />
  <path
     style="fill:#000000;fill-opacity:1;fill-rule:nonzero;stroke:none;stroke-width:4.74612141;stroke-linecap:round;stroke-linejoin:miter;stroke-miterlimit:15;stroke-dasharray:none;stroke-opacity:1;paint-order:normal"
     d="m 2101.861,218.54079 c 0,0.002 -10e-5,0.005 0,0.0146 3e-4,0.40312 0.02,5.84299 0.2742,13.89809 0.2754,8.73098 0.8075,19.28777 1.0829,28.01876 0.2483,7.55967 0.3636,14.56082 0.2856,21.82675 -0.073,6.77053 -0.3227,14.90887 -1.0013,24.50397 -0,0.0255 -0,0.0509 -0.01,0.0764 -1.459,23.69838 -4.58,46.70238 -8.6919,69.10923 -3.9485,21.5157 -8.6227,41.34644 -12.0887,55.71353 -0.013,0.0521 -0.026,0.10394 -0.037,0.15653 -0.4161,2.09827 -0.6852,3.80971 -0.8492,5.22911 -0.038,0.32756 -0.07,0.64057 -0.098,0.94002 -0.1131,1.23878 -0.1439,2.28845 -0.1055,3.19654 0.028,0.65985 0.095,1.30412 0.216,1.92396 0.1293,0.6602 0.3408,1.39793 0.7058,2.12982 0.3817,0.76554 0.9866,1.63203 1.9344,2.3302 0.9657,0.71133 2.086,1.09607 3.2252,1.16089 1.0138,0.0577 1.9084,-0.14296 2.6228,-0.40551 0.6483,-0.23824 1.2272,-0.5558 1.7363,-0.89245 0.3548,-0.23458 0.6997,-0.49435 1.0366,-0.77356 0.4915,-0.40738 0.9979,-0.88199 1.5286,-1.42921 1.3964,-1.43977 3.0325,-3.45704 5.0149,-6.16929 l -0.3341,0.38906 c 2.0468,-2.59896 4.617,-5.9154 5.531,-7.08026 0.027,-0.0342 0,0 0,0 a 3.7868812,3.7868812 90 0 0 -5.4672,-5.24134 c 0,0 0.033,-0.0283 0,0 -1.1253,0.96233 -4.3304,3.67001 -6.8408,5.82464 -0.065,0.0558 -0.1256,0.11695 -0.1779,0.18488 -0.052,0.0679 -0.1023,0.13758 -0.1562,0.20419 -1.9913,2.45824 -3.4167,3.97688 -4.4093,4.85603 -0.3608,0.31952 -0.6282,0.52185 -0.8087,0.63984 -0.1223,0.0799 -0.2003,0.11823 -0.2283,0.12326 -0.027,0.005 0.017,-0.0562 0.2571,-0.15319 0.24,-0.0968 0.7195,-0.23637 1.375,-0.20277 0.754,0.0387 1.5412,0.29961 2.2214,0.79654 0.6562,0.47935 1.0117,1.02826 1.1875,1.36818 0.1748,0.33784 0.2115,0.51746 0.2284,0.53959 0.014,0.0189 0.01,-0.0879 0.021,-0.32506 0.015,-0.33375 0.057,-0.8895 0.1917,-1.77492 0.032,-0.21024 0.069,-0.43815 0.1115,-0.68516 0.1865,-1.07839 0.4793,-2.49584 0.9376,-4.36941 l -0.037,0.15652 c 3.7564,-14.36666 8.862,-34.28584 13.2718,-56.10104 4.5871,-22.69192 8.1863,-46.16643 10.0656,-70.45875 l -0.01,0.0765 c 0.9046,-9.87341 1.3547,-18.26566 1.59,-25.26188 0.2522,-7.49983 0.3052,-14.71575 0.2417,-22.42239 -0.08,-9.69472 -0.3127,-18.32697 -0.3926,-28.02168 -0.06,-7.95988 0.039,-13.07261 0.044,-13.53358 10e-5,-0.009 10e-5,-0.0118 10e-5,-0.0141 a 7.6016647,7.6016647 90 0 0 -15.2032,-0.072 z"
     id="path4927"
     inkscape:path-effect="#path-effect8607"
     inkscape:original-d="m 2109.4626,218.57681 c -0.1402,29.58597 2.5551,52.16249 -0.4207,88.75791 -3.3652,48.37515 -13.4609,91.48373 -22.059,125.69128 -3.2811,14.90796 0.8076,12.50182 7.9419,3.21379 l 6.1859,-6.45245"
     inkscape:connector-curvature="0"
     sodipodi:nodetypes="ccccc" />
  <path
     style="fill:#000000;fill-opacity:1;fill-rule:nonzero;stroke:none;stroke-width:4.74612141;stroke-linecap:round;stroke-linejoin:miter;stroke-miterlimit:15;stroke-dasharray:none;stroke-opacity:1;paint-order:normal"
     d="m 2310.6191,154.41941 c -0,0.015 -0.088,0.11072 -0.1687,0.71979 -0.04,0.29832 -0.2116,2.24817 -0.3736,4.74104 -0.1712,2.63392 -0.3939,6.89167 -0.1769,11.3763 0,0.0819 0,0.16382 0,0.24576 -7e-4,0.082 0,0.16389 0.011,0.24547 0.8891,9.36676 1.4582,20.44488 1.6901,29.81367 0,1e-5 0.01,0.30255 0.01,0.30257 0.2217,9.20225 0.1805,19.1167 -0.1021,26.23758 -2.6418,29.2181 -8.6163,62.41726 -14.4702,91.17187 -3.5277,17.32854 -7.1883,33.87315 -9.9153,46.06827 -2.8249,12.63309 -4.9971,22.20775 -6.4507,28.83249 -0.5627,2.56421 -1.0078,4.60818 -1.38,6.33142 -0.1265,0.58575 -0.248,1.17549 -0.2772,1.77403 -0.029,0.59854 0.035,1.20337 0.2112,1.77602 0.1765,0.57265 0.4636,1.10814 0.8182,1.59119 0.3547,0.48305 0.7748,0.91367 1.196,1.3399 0.056,0.0564 0.2245,0.2196 0.4209,0.39762 0.1653,0.14984 0.4523,0.40348 0.8475,0.73338 0.065,0.054 0.1349,0.11216 0.21,0.17384 0.5443,0.4473 1.3583,1.06597 2.4335,1.76526 1.8808,1.22323 4.8124,2.86053 9.0104,4.34341 5.0834,1.79559 11.7954,3.29006 20.7109,3.80141 4.432,0.25419 9.4622,0.26821 15.1689,-0.0808 0.025,-0.002 0.049,-0.003 0.074,-0.005 38.4436,-2.8473 74.7035,-9.49455 107.198,-12.80181 3.3257,-0.33849 6.8884,-0.65776 10.5017,-0.89491 0.043,-0.003 0.087,-0.004 0.1302,-0.009 1.3215,-0.1517 2.9597,-0.36296 4.5049,-0.69271 1.3766,-0.29375 2.9628,-0.73659 4.4945,-1.49892 1.5005,-0.74685 2.9336,-1.79164 4.1265,-3.27063 1.1657,-1.44528 1.9268,-3.08708 2.4198,-4.83371 0.01,-0.0308 0.02,-0.0608 0.032,-0.0906 0.012,-0.0298 0.021,-0.0607 0.026,-0.0921 0.365,-1.95183 0.4522,-3.70013 0.2493,-5.46762 -0.3201,-2.78847 -1.5274,-5.65549 -1.5104,-5.60519 -0.01,-0.0232 -0.01,-0.0305 -0.011,-0.0367 a 3.9176555,3.9176555 90 0 0 -7.517,2.2109 c 0,0.005 0,0.01 0.01,0.0279 0.07,0.29856 0.353,2.0341 0.03,3.49233 -0.1634,0.7385 -0.4706,1.47259 -0.9738,2.49925 l 0.058,-0.18275 c -0.3314,0.68993 -0.6208,0.91358 -0.7934,0.98209 -0.071,0.0282 -0.3993,0.0762 -0.6382,0.12113 -0.4217,0.0792 -0.9488,0.1694 -1.8928,0.25044 -1.0411,0.0894 -2.2294,0.13713 -3.5761,0.19597 l 0.1302,-0.009 c -3.8114,0.19721 -7.5339,0.48859 -10.9759,0.8086 -33.6481,3.1283 -69.1436,10.39717 -106.8556,13.22158 -5.2341,0.32441 -9.7512,0.28076 -13.6366,-0.0104 -7.8244,-0.58632 -13.2445,-2.18898 -16.853,-3.8086 -2.9719,-1.33386 -4.7239,-2.68132 -5.6648,-3.50925 -0.5465,-0.48095 -0.9337,-0.88968 -1.1748,-1.14342 -0.035,-0.0365 -0.067,-0.0708 -0.096,-0.10282 -0.1941,-0.20976 -0.3007,-0.33701 -0.4052,-0.45378 -0.105,-0.11726 -0.2249,-0.24583 -0.4198,-0.4353 l 1.9482,6.48112 c -0.1512,0.70207 1.5137,-7.00133 1.3625,-6.29927 1.0508,-4.83791 3.8815,-17.91566 6.2131,-28.88785 2.5969,-12.2207 6.1032,-28.96337 9.4623,-46.4283 5.5753,-28.98793 11.323,-62.8374 13.767,-92.79507 0.011,-0.1291 0.02,-0.25836 0.021,-0.38789 0.036,-7.71083 -0.066,-17.2549 -0.1934,-27.01796 -1e-4,-0.004 -0,-0.30285 -0,-0.30676 -0.1241,-9.47581 -0.2768,-20.27828 -0.6574,-30.00919 0.2968,-3.62295 1.0287,-6.91847 1.6432,-9.11562 0.6031,-2.15631 1.1036,-3.30645 1.2149,-3.61299 0.1607,-0.44216 0.086,-0.37144 0.087,-0.37621 a 7.8720324,7.8720324 90 0 0 -15.2782,-3.80136 z"
     id="path4925"
     inkscape:path-effect="#path-effect8611"
     inkscape:original-d="m 2318.2582,156.32009 c 0,0 -1.7667,7.10063 -1.834,14.99209 1.2283,18.35732 1.5311,43.74797 1.2283,57.20888 -4.8964,57.05745 -22.261,130.55404 -31.5154,173.46071 1.7307,1.69286 11.3317,12.28538 43.5461,10.29759 47.9208,-3.56714 87.294,-12.08117 117.7829,-13.86474 5.9677,-0.47926 9.5823,-1.06387 11.2231,-5.9228 0.8131,-2.74624 0.8738,-5.02143 -0.1683,-8.5645"
     inkscape:connector-curvature="0"
     sodipodi:nodetypes="cccccccc" />
  <path
     style="fill:#000000;fill-opacity:1;fill-rule:nonzero;stroke:none;stroke-width:4.74612141;stroke-linecap:round;stroke-linejoin:miter;stroke-miterlimit:15;stroke-dasharray:none;stroke-opacity:1;paint-order:normal"
     d="m 2266.25,230.49141 c 6.5938,-2.78087 20.8005,-8.5936 40.0174,-15.31547 21.1147,-7.38572 53.9197,-17.84668 95.6883,-26.79165 28.1858,-6.03613 54.4328,-10.08458 77.6741,-12.56563 22.7658,-2.43028 39.5621,-3.02225 48.864,-3.19547 0.2549,-0.005 0,0 0,0 a 5.3664494,5.3664494 90 0 0 -0.1206,-10.73222 c 0,0 0.2609,-0.001 0,0 -9.5486,0.0384 -26.6619,0.37732 -49.8789,2.52687 -23.6725,2.19171 -50.3913,5.95576 -79.0796,11.73829 -42.3958,8.54545 -76.1229,18.88123 -97.5737,26.24805 -19.6252,6.73984 -34.1041,12.79014 -40.8436,15.63251 a 6.7585263,6.7585263 90 0 0 5.2526,12.45472 z"
     id="path4923"
     inkscape:path-effect="#path-effect8609"
     inkscape:original-d="m 2263.6237,224.26405 c 87.294,-36.8156 189.9335,-56.16566 264.8098,-57.00697"
     inkscape:connector-curvature="0" />
  <path
     style="fill:#000000;fill-opacity:1;fill-rule:nonzero;stroke:none;stroke-width:4.74612141;stroke-linecap:round;stroke-linejoin:miter;stroke-miterlimit:15;stroke-dasharray:none;stroke-opacity:1;paint-order:normal"
     d="m 2287.8446,322.93471 c 10.2511,-2.11377 27.7034,-5.66297 47.2344,-9.31655 16.7695,-3.13701 33.812,-6.11919 50.6506,-8.7315 21.73,-3.37115 36.7195,-5.09776 45.7561,-6.40972 0.056,-0.008 0.1108,-0.0181 0.1656,-0.0301 0.2915,-0.0637 0.6172,-0.16423 0.943,-0.3294 0.3223,-0.1634 0.6664,-0.40139 0.9662,-0.74606 0.3014,-0.34653 0.5184,-0.75624 0.6346,-1.20438 0.1119,-0.43159 0.1157,-0.84107 0.07,-1.19503 -0.086,-0.66262 -0.3591,-1.22753 -0.6082,-1.64225 -0.2583,-0.43016 -0.5796,-0.84361 -0.9189,-1.22976 -0.6768,-0.7701 -1.5591,-1.58123 -2.5239,-2.38106 -1.0005,-0.82935 -2.1264,-1.6765 -3.2762,-2.4895 -2.7029,-1.91108 -5.4163,-3.55446 -7.4148,-4.66408 -0.5173,-0.28717 -0.9887,-0.54009 -1.4133,-0.76143 -0.7273,-0.37912 -1.3846,-0.70067 -1.9711,-0.96836 -1.428,-0.65185 -2.2917,-0.9188 -2.8332,-1.04817 a 2.3730607,2.3730607 90 0 0 -1.1028,4.61622 c 0.181,0.0433 0.7547,0.19698 1.9653,0.74956 0.5008,0.22858 1.0832,0.51287 1.748,0.8594 0.3872,0.20187 0.822,0.43503 1.3032,0.70223 1.8708,1.03871 4.4359,2.59205 6.9786,4.38993 1.0796,0.7633 2.104,1.53589 2.9873,2.2681 0.8707,0.72179 1.5429,1.35393 1.9879,1.86027 0.2223,0.253 0.3504,0.43242 0.4152,0.54028 0.059,0.0976 0.01,0.0874 -0.03,-0.18971 -0.018,-0.14034 -0.023,-0.35378 0.043,-0.60745 0.069,-0.26748 0.2011,-0.51554 0.3788,-0.71974 0.1737,-0.19968 0.3518,-0.31302 0.4685,-0.37218 0.1156,-0.0586 0.1901,-0.0742 0.1902,-0.0742 0.055,-0.012 0.11,-0.022 0.1655,-0.0301 -8.9032,1.2926 -23.9933,3.03325 -45.8018,6.41658 -16.8984,2.6216 -33.9908,5.61268 -50.7957,8.75633 -19.5718,3.66121 -37.0559,7.21693 -47.3201,9.3334 a 2.3730607,2.3730607 90 0 0 0.9584,4.64834 z"
     id="bigwebsite"
     inkscape:connector-curvature="0"
     sodipodi:nodetypes="ccc"
     inkscape:path-effect="#path-effect8613"
     inkscape:original-d="m 2287.3654,320.61054 c 89.0271,-18.35732 124.3809,-21.66571 143.7794,-24.48204 4.7186,-1.03095 -13.4609,-12.85517 -18.391,-14.033" />
  <path
     style="fill:#000000;fill-opacity:1;fill-rule:nonzero;stroke:none;stroke-width:3.75000429;stroke-linecap:round;stroke-linejoin:round;stroke-miterlimit:15;stroke-dasharray:none;stroke-opacity:1;paint-order:normal"
     d="m 711.95835,277.64559 c 0.0627,0.91256 0.30463,1.51043 0.37298,1.67338 0.0497,0.11845 0.0316,0.0658 -0.12496,-0.1611 -0.26639,-0.3861 -0.81496,-1.10593 -1.78578,-2.13913 -0.80734,-0.85921 -1.8404,-1.86383 -3.10572,-2.96402 -1.35119,-1.17486 -3.01674,-2.50238 -4.98913,-3.86506 -5.64475,-3.89981 -15.83123,-9.47597 -28.93705,-9.91959 -7.36106,0.0117 -15.91491,2.12592 -25.56611,7.28267 -2.2361,1.19477 -4.6117,2.5962 -7.11717,4.24008 -9.70372,6.36678 -20.75381,16.00186 -32.00848,29.45065 -8.96336,13.11774 -17.66603,25.10196 -23.53291,36.07339 -5.5998,10.47196 -9.22662,20.94139 -9.95241,34.25646 -0.49386,9.27313 0.35885,21.12632 2.73105,33.70708 2.3904,12.67734 6.26148,25.77061 11.62466,37.5225 5.504,12.06045 12.38548,22.29154 20.51368,29.45366 8.35982,7.3662 17.86171,11.35391 28.65178,11.22756 16.5222,-0.54585 30.10767,-6.47253 39.59008,-15.69132 6.64423,-6.45952 11.13856,-14.33759 13.95719,-22.86906 2.81991,-8.53533 3.82341,-17.28949 3.96971,-25.13857 0.003,-0.18258 0.006,-0.36446 0.009,-0.54564 -0.16785,-8.8768 -1.40322,-14.4463 -2.28736,-17.51661 -0.55014,-1.91041 -1.42079,-4.4375 -2.82722,-7.00833 -0.87245,-1.59478 -1.97221,-3.25974 -3.38485,-4.85982 -2.37845,-2.69404 -5.73879,-5.3195 -10.76884,-7.20741 -4.31019,-1.61774 -9.86344,-2.70248 -17.12747,-2.83434 -0.005,-9e-5 -0.01,7e-5 -0.0148,-1.2e-4 -5.36227,-0.20878 -10.7823,0.37472 -16.36578,2.16435 -5.71668,1.83232 -11.26683,4.82217 -16.77504,8.93903 l -2.36217,-6.35379 c 3.17225,-0.14807 7.23358,-0.50022 11.25525,-0.89239 2.37441,-0.23155 4.85265,-0.48893 7.1466,-0.73448 2.47407,-0.26483 4.99678,-0.54629 7.39973,-0.81703 11.6046,-1.30747 22.48766,-2.59785 31.94565,-3.05501 0.0254,-0.001 0.0508,-5.1e-4 0.0762,-9.5e-4 7.93197,-0.13792 14.97448,0.17839 21.00631,1.11608 1.30727,0.20323 2.56734,0.43426 3.78008,0.69461 6.35901,1.36516 11.4621,3.54569 15.30705,6.818 3.8539,3.27993 6.03628,7.30908 7.2361,11.68149 1.18762,4.32791 1.42516,9.0636 1.44727,13.59949 0.11246,1.90292 0.0753,3.91974 -0.0526,5.93381 -0.15492,2.4394 -0.46597,5.05075 -0.88804,7.74483 -0.79567,5.07869 -1.96772,10.33544 -3.14185,14.99343 -1.35105,5.35991 -2.70519,9.93025 -3.56665,12.81988 -2.77937,9.32307 2.2702,-7.61387 -0.50917,1.7092 -0.32188,1.08571 -0.60359,2.05078 -0.82166,2.80459 -0.46839,1.61918 -0.67171,2.37133 -0.77238,2.68453 a 3.310635,3.310635 90 0 1 -6.30368,-2.02602 c 0.062,-0.19306 0.33024,-0.93009 0.77494,-2.47618 0.21194,-0.73683 0.46528,-1.66211 0.73822,-2.74153 0.12751,-0.50426 0.26558,-1.06868 0.41327,-1.69071 0.66783,-2.81282 1.68869,-7.4755 2.65063,-12.69905 0.84831,-4.6065 1.65691,-9.6826 2.15851,-14.47959 0.26589,-2.54275 0.4353,-4.90905 0.49364,-7.05223 0.0503,-1.84864 0.01,-3.54557 -0.14168,-5.01754 -0.01,-0.0938 -0.0109,-0.18823 -0.014,-0.2825 -0.14508,-4.42808 -0.4843,-8.17657 -1.40745,-11.28971 -0.86642,-2.92184 -2.21495,-5.18535 -4.39562,-7.0305 -2.29114,-1.93861 -5.78029,-3.64771 -11.21582,-4.8838 -1.02423,-0.23292 -2.10874,-0.447 -3.25616,-0.64174 -5.33313,-0.9051 -11.83262,-1.38851 -19.48587,-1.46808 l 0.0762,-9.5e-4 c -9.23411,-0.0682 -19.71329,0.37081 -31.438,1.33857 -2.43138,0.20068 -4.87992,0.42033 -7.39024,0.65974 -2.39218,0.22815 -4.68113,0.45672 -7.1684,0.70413 -3.97991,0.39588 -8.2289,0.81766 -11.5152,1.05303 -0.87648,0.0628 -1.78002,0.10322 -2.60953,-0.18671 -0.41476,-0.14497 -0.80377,-0.36863 -1.12526,-0.6681 -0.32149,-0.29947 -0.57337,-0.67404 -0.72425,-1.08668 -0.15088,-0.41264 -0.20005,-0.86114 -0.14928,-1.29756 0.0508,-0.43642 0.20025,-0.85904 0.41826,-1.2405 0.43602,-0.76291 1.13487,-1.33398 1.82788,-1.87424 5.89036,-4.59203 11.99554,-8.21153 18.53463,-10.63398 6.42281,-2.37937 12.73185,-3.40602 18.99435,-3.50186 l -0.0148,-1.2e-4 c 8.01637,-0.0341 14.62518,0.98942 20.14452,2.87236 6.54288,2.23211 11.29246,5.58827 14.80479,9.31743 2.04377,2.16994 3.61898,4.41499 4.84351,6.51687 1.95609,3.3576 3.17351,6.59817 3.91759,8.89804 1.27718,3.94767 2.86336,10.31893 3.18101,20.34353 0.002,0.0595 0.002,0.11898 0.001,0.17848 -0.001,0.21926 -0.003,0.4396 -0.005,0.66099 -0.0881,8.55724 -1.1153,18.45251 -4.30866,28.32614 -3.2086,9.92074 -8.48385,19.42217 -16.53833,27.33856 -11.57582,11.37736 -27.84982,18.3339 -46.90956,19.02724 -0.0373,0.001 -0.0747,0.002 -0.11204,0.003 -13.94452,0.21605 -26.09099,-4.99564 -36.27962,-13.92439 -9.7016,-8.50193 -17.44288,-20.19991 -23.40413,-33.18113 -5.83531,-12.70696 -9.98545,-26.69281 -12.54977,-40.11068 -2.5388,-13.2844 -3.53208,-26.06568 -3.01576,-36.43651 0.7615,-15.33098 4.92713,-27.47335 11.08883,-39.17164 6.23142,-11.83066 15.54362,-24.81988 24.13675,-37.57433 0.10762,-0.15973 0.22432,-0.31312 0.34673,-0.46182 11.86328,-14.41087 23.75123,-25.0501 34.55275,-32.33195 2.78189,-1.8754 5.451,-3.50243 7.99791,-4.91457 11.05964,-6.13205 21.65046,-9.23728 31.59885,-9.5088 0.0712,-0.002 0.14247,2e-5 0.21371,4.5e-4 16.58706,0.0998 29.55552,6.59802 36.67131,11.17492 2.51779,1.61944 4.67896,3.23662 6.47239,4.73184 1.6719,1.39389 3.11331,2.75499 4.31481,4.02159 1.41751,1.49431 2.51227,2.86746 3.316,4.08523 0.48657,0.73724 0.90245,1.4712 1.23387,2.20615 0.45714,1.01375 0.81007,2.15507 0.89627,3.40946 a 7.3021932,7.3021932 90 0 1 -14.57002,1.00124 z"
     id="path4945"
     inkscape:path-effect="#path-effect4959"
     inkscape:original-d="m 719.24336,277.14497 c -0.25414,-3.69826 -18.98695,-23.01452 -45.74052,-23.50247 -24.02773,0.33652 -49.41838,19.60245 -69.60975,43.96671 -19.33324,28.50348 -32.97924,45.48106 -34.44311,73.66485 -2.01914,39.27221 18.77797,118.50652 69.40784,117.78299 32.27254,-1.11052 62.25672,-21.90764 62.67737,-69.82849 -0.72352,-28.87366 -12.65326,-43.56288 -41.6447,-43.74797 -12.01386,-0.11778 -23.35468,3.46619 -35.3349,12.61961 12.30048,-0.73213 37.65691,-4.20654 57.62954,-4.62719 40.04622,-0.15144 43.93249,11.10029 44.26901,29.6427 1.17783,14.48731 -7.14576,43.59078 -8.41307,47.53385"
     inkscape:connector-curvature="0"
     sodipodi:nodetypes="ccccccccccc" />
  <path
     inkscape:original-d="m 2287.3654,320.61054 c 89.0271,-18.35732 124.3809,-21.66571 143.7794,-24.48204 4.7186,-1.03095 -13.4609,-12.85517 -18.391,-14.033"
     inkscape:path-effect="#path-effect8617"
     sodipodi:nodetypes="ccc"
     inkscape:connector-curvature="0"
     id="path8615"
     d="m 2288.7134,327.14802 c 10.321,-2.12817 26.7605,-5.38239 46.3656,-9.15313 17.335,-3.33412 33.6584,-6.37812 51.2286,-9.38281 21.7941,-3.72701 36.6462,-5.86373 45.5663,-7.46142 0.059,-0.0106 0.1186,-0.019 0.1779,-0.0277 0.059,-0.009 0.1182,-0.0213 0.1762,-0.0366 0.151,-0.0397 0.3066,-0.0855 0.4654,-0.1385 0.3363,-0.11224 0.71,-0.26476 1.0947,-0.4756 0.5599,-0.30685 1.1778,-0.75683 1.7169,-1.40937 0.5468,-0.66185 0.9309,-1.4351 1.1229,-2.2653 0.1854,-0.80172 0.1652,-1.5371 0.065,-2.14109 -0.1881,-1.13031 -0.6866,-1.99058 -1.0505,-2.51919 -0.3897,-0.56618 -0.8426,-1.06227 -1.2651,-1.47793 -0.8443,-0.83061 -1.9001,-1.66179 -2.9405,-2.41527 -1.1061,-0.80103 -2.3291,-1.61025 -3.5404,-2.37022 -2.7775,-1.74267 -5.4667,-3.21596 -7.4939,-4.27838 0,0.001 -0.267,-0.1397 -0.2641,-0.13821 -1.3247,-0.69182 -2.4724,-1.27096 -3.4881,-1.74228 -1.4478,-0.67181 -2.3844,-1.0095 -3.0483,-1.16812 a 3.64846,3.64846 90 0 0 -1.6956,7.0972 c 0.099,0.0236 0.6063,0.11849 1.7502,0.6296 0.794,0.35478 1.8043,0.87104 2.9475,1.54915 0.076,0.0452 0.1527,0.0909 0.2295,0.13722 1.7414,1.05 4.1356,2.67417 6.4059,4.5002 1.0015,0.8055 1.9441,1.62401 2.7231,2.38737 0.7554,0.74019 1.3167,1.39242 1.5713,1.82607 0.1132,0.19287 0.1583,0.34663 0.069,0.29211 -0.044,-0.0267 -0.3324,-0.31683 -0.472,-1.06665 -0.073,-0.39119 -0.1017,-0.92994 0.037,-1.55351 0.1451,-0.65019 0.4446,-1.26148 0.8671,-1.78066 0.4132,-0.50785 0.8658,-0.83346 1.2192,-1.0355 0.2417,-0.13823 0.4552,-0.22917 0.61,-0.28826 0.074,-0.0283 0.1408,-0.0516 0.1973,-0.0706 0.057,-0.0192 0.1152,-0.0352 0.1747,-0.044 0.059,-0.009 0.1196,-0.0137 0.1794,-0.0203 -8.5198,0.94143 -23.4782,2.2245 -45.9916,5.36487 -17.1071,2.38624 -35.0409,5.34091 -51.8048,8.4022 -19.1692,3.50052 -36.8276,7.18419 -46.6019,9.19965 a 6.6750145,6.6750145 90 0 0 2.696,13.07496 z"
     style="fill:#000000;fill-opacity:1;fill-rule:nonzero;stroke:none;stroke-width:4.74612141;stroke-linecap:round;stroke-linejoin:miter;stroke-miterlimit:15;stroke-dasharray:none;stroke-opacity:1;paint-order:normal" />
</svg>
