<?xml version="1.0" encoding="UTF-8" standalone="no"?>
<svg
   xmlns:dc="http://purl.org/dc/elements/1.1/"
   xmlns:cc="http://creativecommons.org/ns#"
   xmlns:rdf="http://www.w3.org/1999/02/22-rdf-syntax-ns#"
   xmlns:svg="http://www.w3.org/2000/svg"
   xmlns="http://www.w3.org/2000/svg"
   xmlns:sodipodi="http://sodipodi.sourceforge.net/DTD/sodipodi-0.dtd"
   xmlns:inkscape="http://www.inkscape.org/namespaces/inkscape"
   width="13.580956in"
   height="3.1451552in"
   viewBox="0 0 977.83028 226.45138"
   version="1.1"
   id="svg"
   sodipodi:docname="contact-path.svg"
   inkscape:version="0.92.3 (2405546, 2018-03-11)">
  <style
     id="style2">svg{cursor: pointer;-webkit-touch-callout: none;-webkit-user-select: none;-khtml-user-select: none;-moz-user-select: none;-ms-user-select: none;user-select: none;cursor: url("/content/selectcursor.gif"), auto;}</style>
  <metadata
     id="metadata923">
    <rdf:RDF>
      <cc:Work
         rdf:about="">
        <dc:format>image/svg+xml</dc:format>
        <dc:type
           rdf:resource="http://purl.org/dc/dcmitype/StillImage" />
        <dc:title />
      </cc:Work>
    </rdf:RDF>
  </metadata>
  <defs
     id="defs921">
    <inkscape:path-effect
       effect="powerstroke"
       id="path-effect1513"
       is_visible="true"
       offset_points="0.01534775,2.4388545 | 0.4185129,2.6657037 | 1.1634158,2.0584488 | 1.8061632,2.2559884 | 2.8745378,1.7666227 | 3.1911679,1.8272866 | 3.4761005,2.6806532 | 3.7217269,3.7748571 | 4.2019158,3.5725008 | 5.1327451,3.6058849 | 5.8170153,3.6171526 | 6.6584788,0.53880593"
       sort_points="true"
       interpolator_type="CentripetalCatmullRom"
       interpolator_beta="0.5"
       start_linecap_type="round"
       linejoin_type="spiro"
       miter_limit="100"
       end_linecap_type="zerowidth" />
    <inkscape:path-effect
       effect="powerstroke"
       id="path-effect1511"
       is_visible="true"
       offset_points="0.65191271,1.9142195 | 0.98830387,2.3299279 | 1.1774115,2.0421161 | 1.5758758,2.4728501 | 2.3598418,3.4453939 | 4.99311,2.2158959 | 3.8666242,3.2164198"
       sort_points="true"
       interpolator_type="CentripetalCatmullRom"
       interpolator_beta="0.5"
       start_linecap_type="zerowidth"
       linejoin_type="spiro"
       miter_limit="100"
       end_linecap_type="round" />
    <inkscape:path-effect
       effect="powerstroke"
       id="path-effect1509"
       is_visible="true"
       offset_points="1.4247864,3.1512511 | 1,3.4973696 | 0.64140456,1.4667333 | 8.4001996,2.593387 | 7.6282862,2.5393958 | 7.3438918,1.6713438 | 4.5015177,2.3196836 | 3.5118893,2.626516 | 3.1470899,3.2053761 | 2.7343435,2.7189806 | 10.732862,1.0742538"
       sort_points="true"
       interpolator_type="CentripetalCatmullRom"
       interpolator_beta="0.5"
       start_linecap_type="zerowidth"
       linejoin_type="spiro"
       miter_limit="100"
       end_linecap_type="zerowidth" />
    <inkscape:path-effect
       effect="powerstroke"
       id="path-effect1507"
       is_visible="true"
       offset_points="1,2.3882799 | 1.9798245,2.1183652 | 2.3907474,1.2736967 | 0,1.7908449 | 2.8704596,1.9959825 | 3.1002463,1.5194955 | 4.1275845,3.0044116 | 3.7808682,3.3823768 | 3.5867862,2.2009268"
       sort_points="true"
       interpolator_type="CentripetalCatmullRom"
       interpolator_beta="0.5"
       start_linecap_type="round"
       linejoin_type="spiro"
       miter_limit="100"
       end_linecap_type="round" />
    <inkscape:path-effect
       effect="powerstroke"
       id="path-effect1505"
       is_visible="true"
       offset_points="0.27169436,1.4153729 | 0.79250832,3.747731 | 2.9995842,3.2306482 | 2.492441,2.7975167 | 4.0405569,3.6184654 | 4.1604773,2.917061 | 5.5886916,3.2646072 | 8.146364,3.42326 | 10,1.2502587 | 9.2398544,1.6964646 | 4.6615495,2.7310118"
       sort_points="true"
       interpolator_type="CentripetalCatmullRom"
       interpolator_beta="0.5"
       start_linecap_type="zerowidth"
       linejoin_type="spiro"
       miter_limit="100"
       end_linecap_type="round" />
    <inkscape:path-effect
       effect="powerstroke"
       id="path-effect1503"
       is_visible="true"
       offset_points="0,-3.5964728 | 1,-3.3130363 | 1.1567515,-3.3168215 | 1.2831397,-2.704477 | 2.4961795,-2.710295 | 4.8600813,-2.4438906 | 4.7256264,-2.8706366"
       sort_points="true"
       interpolator_type="CentripetalCatmullRom"
       interpolator_beta="0.5"
       start_linecap_type="round"
       linejoin_type="spiro"
       miter_limit="100"
       end_linecap_type="round" />
    <inkscape:path-effect
       effect="powerstroke"
       id="path-effect1482"
       is_visible="true"
       offset_points="0.30066956,3.5760768 | 3.5258464,3.2488187 | 1.9822968,3.0061892 | 4.9992653,3.3980685 | 7,1.0569932 | 4.097643,3.2022608"
       sort_points="true"
       interpolator_type="CentripetalCatmullRom"
       interpolator_beta="0.5"
       start_linecap_type="round"
       linejoin_type="spiro"
       miter_limit="100"
       end_linecap_type="round" />
  </defs>
  <sodipodi:namedview
     pagecolor="#ffffff"
     bordercolor="#666666"
     borderopacity="1"
     objecttolerance="10"
     gridtolerance="10"
     guidetolerance="10"
     inkscape:pageopacity="0"
     inkscape:pageshadow="2"
     inkscape:window-width="1856"
     inkscape:window-height="821"
     id="namedview919"
     showgrid="false"
     inkscape:zoom="0.56867522"
     inkscape:cx="447.75449"
     inkscape:cy="331.68073"
     inkscape:window-x="434"
     inkscape:window-y="224"
     inkscape:window-maximized="0"
     inkscape:current-layer="svg917" />
  <path
     style="fill:#000000;fill-rule:nonzero;stroke:#000000;stroke-width:0.75000089;stroke-miterlimit:4;stroke-dasharray:none;stroke-opacity:1"
     d="m 98.723304,102.39902 c -0.324349,-0.16818 -1.86992,-1.01553 -3.356851,-1.61219 -0.661366,-0.26538 -1.546866,-0.5812 -2.640401,-0.865852 -2.076835,-0.540617 -4.777391,-0.949363 -9.100261,-0.999886 -0.0747,-8.73e-4 -0.149426,-0.0027 -0.224038,9.07e-4 -1.603313,0.07773 -3.522059,0.358404 -5.645888,0.786762 -2.102459,0.424049 -4.469768,1.006149 -7.017522,1.719149 -5.075584,1.42043 -10.86953,3.36103 -16.682872,5.6022 -5.976621,2.30412 -11.845462,4.87564 -17.003157,7.50305 -5.138341,2.61755 -9.462055,5.23291 -12.672532,7.74025 -0.257479,0.20109 -0.509969,0.40317 -0.756981,0.60615 -5.482001,4.514 -11.217733,11.72202 -15.6589696,20.4961 -4.4968186,8.88388 -7.40940434,18.87081 -7.58810581,28.69347 -3.1574e-4,0.0173 -2.4052e-4,0.0347 -3.0628e-4,0.0521 -0.0285346,7.53216 1.40081939,13.60595 3.55562779,18.7985 0.1290138,0.3109 0.2600266,0.61707 0.3927452,0.91853 2.7639923,6.27821 6.7877707,11.67326 10.9678897,16.37904 0.05988,0.0674 0.122301,0.13254 0.187741,0.19457 0.454203,0.43053 0.940945,0.91951 1.571331,1.56057 0.877494,0.89236 1.947105,2.00222 3.138564,3.14333 1.869597,1.7906 4.284297,3.90089 7.380806,5.86885 5.253183,3.33863 13.472135,6.9409 26.27725,7.00637 -1.6e-5,0 0.05207,2.5e-4 0.05205,2.5e-4 0.02265,1e-4 0.04531,5e-4 0.06796,7e-5 6.630304,-0.12592 14.798384,-1.80885 23.959221,-5.80896 7.612173,-3.32387 15.08815,-7.90904 21.418251,-13.16163 l -0.07298,0.0551 c 5.241879,-4.14857 9.390679,-7.50392 13.373999,-11.05732 3.88092,-3.46206 6.53493,-6.17396 8.41146,-8.1702 0.14508,-0.15434 0,0 0,0 a 1.0569932,1.0569932 90 0 0 -1.4803,-1.5092 c 0,0 0.15402,-0.13903 0,0 -1.98496,1.79188 -4.84015,4.19435 -8.93882,7.20341 -4.28091,3.14285 -8.53058,5.95622 -14.155753,9.68907 -0.01271,0.008 -0.02505,0.0174 -0.03693,0.027 -0.01188,0.01 -0.0238,0.0191 -0.03604,0.0282 -6.252446,4.6378 -13.49438,8.60872 -20.744241,11.40336 -8.700189,3.35372 -16.036331,4.51425 -21.695501,4.50618 -0.01186,-3.8e-4 -0.0419,-9.5e-4 -0.04191,-9.5e-4 -11.388955,-0.21953 -18.450647,-3.30462 -22.81111,-5.92999 -2.648388,-1.59456 -4.778155,-3.32423 -6.502007,-4.88896 -1.115034,-1.01212 -2.101977,-1.99361 -3.009437,-2.90666 -0.591051,-0.59469 -1.105342,-1.11211 -1.606231,-1.59424 -3.87609,-4.39545 -7.343024,-9.26789 -9.730987,-14.66114 -0.115574,-0.26103 -0.229741,-0.52572 -0.3422588,-0.79411 -1.8573734,-4.43045 -3.1835462,-9.64479 -3.2467683,-16.30296 0.090579,-8.68543 2.6065974,-17.7635 6.7164831,-26.013 4.077404,-8.1843 9.30179,-14.70813 14.037588,-18.57768 0.205248,-0.16759 0.419045,-0.33758 0.639621,-0.50859 2.795998,-2.16768 6.762857,-4.56093 11.726813,-7.04623 4.952756,-2.4797 10.64375,-4.92248 16.47433,-7.10945 5.673449,-2.12803 11.292292,-3.943 16.157141,-5.2378 2.441317,-0.64977 4.653428,-1.15803 6.564191,-1.51038 1.872416,-0.34528 3.381182,-0.52679 4.501743,-0.56436 3.832299,0.19528 5.917889,0.69163 7.291351,1.13667 0.746703,0.24195 1.361982,0.4989 1.829544,0.70333 1.04824,0.45834 2.436939,1.16353 2.813204,1.35863 a 3.5760768,3.5760768 90 0 0 3.29226,-6.34936 z"
     id="path1480"
     inkscape:path-effect="#path-effect1482"
     inkscape:original-d="m 97.077174,105.5737 c -3.51,-1.82 -6.16,-3.12 -13.55,-3.34 -11.09,0.42 -45.21,12.49 -58,22.97 -10.53,8.64 -21.7299987,27.82 -21.9999987,46.91 0.03,12.61 4.32,22.88 14.1599987,33.98 5.25,5 13.75,16.25 36.25,16.5 14.62,-0.13 31.69,-7.81 43.94,-17.44 8.200016,-5.95 15.650016,-11.4 22.440016,-18.06"
     inkscape:connector-curvature="0" />
  <path
     style="fill:#000000;fill-rule:nonzero;stroke:#000000;stroke-width:0.75000089;stroke-miterlimit:4;stroke-dasharray:none;stroke-opacity:1"
     d="m 205.32558,91.145192 c 0,0 -8.6e-4,-0.0012 0,0 0.0202,0.02745 0.14724,-0.02815 0.56869,-0.330947 0.14703,-0.10563 0.30783,-0.225261 0.43342,-0.318648 0.17315,-0.12876 0.28124,-0.207027 0.31597,-0.23298 0.31862,-0.238058 0.63689,-0.478414 0.98017,-0.679284 0.34328,-0.20087 0.71563,-0.359643 1.10822,-0.423366 0.3926,-0.06372 0.80079,-0.02687 1.17568,0.105987 0.37489,0.132856 0.70816,0.359461 1.03099,0.591782 0.69399,0.499423 1.63069,1.043606 2.55182,1.726443 0.27033,0.200396 0.55614,0.424095 0.87283,0.689429 1.00748,0.844107 1.48655,1.501996 2.77787,2.756825 0.32414,0.314985 0.68899,0.658892 1.15021,1.082613 1.53903,1.413911 5.15491,4.649334 8.67529,8.729704 3.00369,3.4815 6.61246,8.3171 9.40275,14.39599 2.44751,5.33213 4.33588,11.76886 4.56537,19.26594 0.001,0.0451 0.001,0.0902 7e-5,0.13532 -0.40975,18.20344 -6.19048,37.38168 -14.83027,52.04976 -0.0671,0.1139 -0.1345,0.2278 -0.20223,0.34168 -3.94689,6.63589 -9.09936,13.39946 -15.36157,18.37675 -2.79215,2.21925 -5.83276,4.10283 -9.08465,5.41695 -3.10227,1.25366 -6.40561,1.99182 -9.84722,1.99157 l 0.0341,-1.1e-4 c -1.88795,0.0357 -4.01668,-0.0209 -6.02956,-0.61191 -1.00684,-0.29561 -2.00475,-0.72882 -2.95536,-1.35984 -0.94761,-0.62904 -1.80252,-1.42444 -2.55658,-2.40215 -1.5074,-1.95448 -2.53704,-4.53844 -3.21694,-7.76313 -0.70849,-3.36027 -1.05868,-7.5279 -1.10527,-12.54499 -9e-5,-0.0103 -8e-5,-0.0207 -5e-5,-0.031 0.0548,-24.69321 10.47615,-44.27586 19.00763,-56.21792 6.32197,-8.84926 12.60269,-14.93207 16.12635,-18.07372 0.6724,-0.59949 1.29324,-1.13393 1.85605,-1.60599 3.20541,-2.68856 6.29899,-4.75628 8.49112,-6.26005 3.48239,-2.38886 8.54929,-5.39134 10.19379,-6.22305 a 2.4438906,2.4438906 90 0 1 2.20592,4.3617 c -2.12888,1.07667 -5.65773,2.95297 -9.56535,5.84341 -2.14165,1.58417 -4.58289,3.73424 -7.59599,6.5188 -0.50872,0.47014 -1.08299,1.006 -1.6998,1.59168 -3.2239,3.06116 -9.15769,8.95807 -15.09155,17.34579 -8.06467,11.3997 -17.78476,29.75864 -17.89232,52.7303 0.0222,4.80499 0.32955,8.53665 0.89276,11.36892 0.54354,2.73337 1.281,4.40146 2.03993,5.43625 0.36823,0.50208 0.7509,0.86853 1.14506,1.14762 0.39931,0.28274 0.85193,0.50511 1.38237,0.67727 1.13097,0.36706 2.53613,0.48337 4.31607,0.48621 0.0114,2e-5 0.0227,-1.9e-4 0.0341,-1.1e-4 2.63147,0.0176 5.23154,-0.52876 7.77188,-1.53848 2.67249,-1.06224 5.26767,-2.63313 7.74155,-4.58207 5.58457,-4.39956 10.35337,-10.55492 14.10562,-16.85168 0.0639,-0.10713 0.12739,-0.2143 0.19064,-0.32149 8.18812,-13.87714 13.81184,-32.10085 14.32265,-49.37116 -0.1601,-6.67207 -1.78885,-12.42853 -3.96113,-17.24559 -2.49551,-5.53382 -5.77721,-9.97337 -8.60272,-13.19807 -3.41801,-3.90091 -6.64808,-6.57219 -8.36107,-7.85042 -0.46272,-0.345278 -0.86414,-0.620752 -1.21202,-0.845067 -1.41527,-0.912566 -2.14107,-1.148743 -3.17705,-1.80125 -0.32798,-0.206579 -0.6059,-0.390052 -0.8677,-0.570346 -0.88432,-0.608983 -1.61149,-1.194905 -2.46039,-1.785392 l 4.29506,-0.404882 c -0.065,0.07562 -0.21607,0.263831 -0.36651,0.448907 -0.10774,0.132563 -0.26754,0.328244 -0.38043,0.469262 -0.34825,0.435016 -0.41954,0.562679 -0.3987,0.59097 8.6e-4,0.0012 0,0 0,0 a 3.5964728,3.5964728 90 0 1 -4.9395,-5.22874 z"
     id="path1478"
     inkscape:path-effect="#path-effect1503"
     inkscape:original-d="m 207.79533,93.759562 c 0,0 0.87924,-0.830604 1.23186,-1.195857 4.445,3.14 28.59,18.639995 29.32,46.009995 -0.91,35.52 -22.91,75.52 -46.73,75.45 -7.56,0.07 -12.68,-1.68 -12.82,-21.91 0.14,-41.77 31.14,-74.77 53.76,-86.21"
     inkscape:connector-curvature="0"
     sodipodi:nodetypes="cccccc" />
  <path
     style="fill:#000000;fill-rule:nonzero;stroke:#000000;stroke-width:0.75000089;stroke-miterlimit:4;stroke-dasharray:none;stroke-opacity:1"
     d="m 334.8764,215.59134 c 0.17462,0.54964 0.4613,1.36593 1.06481,2.54805 0.33638,0.6589 0.679,1.52419 1.03275,2.32453 0.3389,0.76679 0.67948,1.46164 1.08239,2.14539 0.0561,0.0952 0.11191,0.18757 0.16711,0.27673 0.22684,0.36637 0.47837,0.71846 0.58155,0.8791 0.41844,0.65144 0.86746,1.30659 1.50108,1.75155 0.63363,0.44497 1.43912,0.65207 2.20201,0.51991 0.7629,-0.13216 1.44681,-0.58862 1.94022,-1.1853 0.4934,-0.59667 0.80743,-1.31771 1.10917,-2.03075 0.99429,-2.34956 1.57311,-5.19652 1.79846,-8.19232 0.20863,-2.77342 0.0955,-5.40571 -0.14807,-7.50693 l 0.001,0.0482 c -0.55813,-20.5736 -3.72296,-39.79123 -5.65173,-50.94156 -8e-4,-0.005 -0.12302,-0.70869 -0.12382,-0.71331 -1.46654,-8.41944 -3.34142,-18.02773 -4.17697,-22.31549 -1.13877,-5.84381 -2.21834,-11.18201 -3.33637,-17.08353 0,-1e-5 -0.005,-0.0249 -0.005,-0.0249 -0.26187,-1.41683 -0.40113,-2.62645 -0.40205,-3.54163 -4.9e-4,-0.48826 0.11383,-1.50343 0.15288,-1.14283 0.004,0.0361 -0.0352,0.21303 -0.21332,0.45768 -0.1839,0.25268 -0.46817,0.50624 -0.84269,0.68374 -0.35847,0.1699 -0.68465,0.21653 -0.90411,0.22613 -0.21562,0.009 -0.31967,-0.0102 -0.34298,-0.002 -0.0472,0.017 0.20261,0.1515 0.51254,0.38971 0.34345,0.26397 0.71672,0.58586 1.12076,0.95936 0.97921,0.90518 1.80332,1.78404 2.28167,2.17096 l -0.0167,-0.0182 c 0.86938,0.92242 1.66883,1.77879 2.37557,2.5318 3.60035,3.83606 4.28067,4.08736 7.76187,8.06345 5.42579,6.19711 12.88416,15.75228 21.91669,28.05679 3.38004,4.60444 6.69827,9.20626 9.90712,13.69068 6.34789,8.87129 12.06306,17.15927 16.73953,23.99954 0.89332,1.64033 2.04551,3.17484 3.53572,4.30409 1.35882,1.02968 3.05435,1.75567 5.00577,1.77336 0.6279,0.006 1.26407,-0.0629 1.90043,-0.20944 1.06364,-0.24492 2.13192,-0.70289 3.17267,-1.39435 1.41401,-0.93946 2.75155,-2.29291 3.95174,-4.07367 0.0875,-0.12978 0.16134,-0.26806 0.22938,-0.40901 2.82546,-5.85337 4.37521,-11.15487 5.17415,-16.49708 0.73255,-4.8983 0.7772,-9.43332 0.95576,-13.86685 0.002,-0.0475 0.002,-0.095 0.002,-0.14258 -0.0162,-10.24392 -1.59808,-18.61689 -3.63599,-25.78772 -2.11707,-7.44935 -5.21687,-14.98897 -7.13713,-20.02 -0.0271,-0.071 -0.054,-0.14205 -0.0854,-0.21122 -1.13834,-2.50849 -2.22474,-4.84746 -3.21034,-6.9411 -2.55278,-5.42267 -5.24483,-10.879286 -7.08289,-14.665915 -3.28952,-6.776816 -5.67176,-11.921515 -7.22853,-16.559485 -0.002,-0.0059 -0.004,-0.01195 -0.005,-0.01815 -8.1e-4,-0.0062 -8.2e-4,-0.01246 -0.001,-0.01869 -4.4e-4,-0.0062 -0.001,-0.01249 -0.004,-0.01822 -0.002,-0.0057 -0.007,-0.01064 -0.0107,-0.01529 -0.23308,-0.258738 -0.36264,-0.518102 -0.3991,-0.760441 -0.002,-0.01001 -0.003,-0.01998 -0.004,-0.02993 -0.0301,-0.243753 0.024,-0.433369 0.0796,-0.553821 0.046,-0.09961 0.0933,-0.170052 0.12587,-0.186005 0.10074,-0.04929 0.30462,0.04227 0.53982,0.257116 0.0281,0.02569 0,0 0,0 a 1.2502587,1.2502587 90 0 0 1.89118,-1.635864 c 0,0 0.0508,0.06558 0,0 -0.33473,-0.431911 -1.0516,-1.16352 -2.16331,-1.320696 -0.81011,-0.114536 -1.63182,0.111835 -2.326,0.634307 -0.66204,0.498287 -1.13878,1.210528 -1.41974,1.995241 -0.012,0.03336 -0.0235,0.06683 -0.0348,0.100406 -0.26468,0.790982 -0.37253,1.715943 -0.21406,2.717661 l -0.0205,-0.07034 c 1.08673,5.086487 2.9147,10.779507 5.70897,17.885507 1.75363,4.459593 3.75307,9.152573 6.33034,15.085193 0.87643,2.01747 1.9236,4.42243 2.95925,6.82435 1.85996,5.26474 4.7518,12.59058 6.68968,19.50722 1.86428,6.65396 3.33032,14.33861 3.39115,23.77476 -0.14439,4.69245 -0.11837,8.64264 -0.69981,13.05045 -0.60636,4.59669 -1.83599,9.19537 -4.22315,14.39724 -0.7008,1.0672 -1.35834,1.71777 -1.87743,2.10282 -0.40214,0.29831 -0.73368,0.44761 -0.97835,0.52379 -0.1495,0.0465 -0.28652,0.0741 -0.41199,0.0877 -0.35938,0.0391 -0.80131,-0.0175 -1.36392,-0.35008 -0.65556,-0.38756 -1.39617,-1.11033 -2.12036,-2.24219 -0.0446,-0.0697 -0.0853,-0.14204 -0.13352,-0.20936 -8.77787,-12.25895 -8.37588,-11.73726 -17.15375,-23.99621 -3.22552,-4.48857 -6.58798,-9.10261 -9.99781,-13.71199 -10.19154,-13.77682 -15.56229,-20.51608 -21.75616,-28.55527 -3.27126,-4.24587 -3.38402,-4.979 -6.84271,-9.14743 -0.67746,-0.81648 -1.46487,-1.73995 -2.332,-2.72526 -0.003,-0.003 -0.006,-0.006 -0.009,-0.009 -0.003,-0.003 -0.006,-0.006 -0.008,-0.009 -0.3531,-0.49858 -1.34084,-1.62005 -2.74302,-2.81091 -0.55953,-0.4752 -1.22494,-0.99244 -1.94224,-1.4479 -0.6596,-0.41883 -1.50074,-0.87425 -2.43727,-1.14616 -0.47464,-0.1378 -1.04052,-0.24828 -1.66285,-0.25183 -0.6369,-0.004 -1.34993,0.10544 -2.06061,0.42338 -0.73167,0.32734 -1.33236,0.81918 -1.79076,1.40471 -0.45495,0.58113 -0.73358,1.20608 -0.90794,1.77883 -0.35426,1.16369 -0.37525,2.44447 -0.29591,3.60583 0.0956,1.39905 0.36574,2.9663 0.70443,4.53099 -0.001,-0.006 0.004,0.0196 0.004,0.0196 1.08205,5.14874 2.7394,12.20336 3.83307,17.04519 1.15529,5.11459 2.86728,12.86536 4.50356,22.05808 -6.1e-4,-0.003 0.12542,0.70823 0.12481,0.70479 1.96281,11.14186 4.71821,29.90938 4.85964,50.08784 6e-5,0.008 5.7e-4,0.0161 0.001,0.0241 5.8e-4,0.008 5.8e-4,0.0161 4e-5,0.0241 -0.1198,1.79251 -0.3951,4.02575 -0.86557,6.32557 -0.52303,2.55668 -1.14529,4.53099 -1.78404,6.19518 l 6.75248,-0.94459 c -0.55531,-0.68042 -1.1787,-1.19497 -1.71114,-1.53244 -0.13393,-0.0849 -0.26851,-0.1637 -0.40294,-0.23692 -0.90933,-0.49523 -1.84544,-0.75359 -2.68564,-0.91199 -0.95597,-0.18023 -1.83612,-0.24297 -2.60086,-0.36899 -1.22591,-0.20201 -2.24055,-0.23558 -2.73239,-0.26058 z"
     id="path1476"
     inkscape:path-effect="#path-effect1505"
     inkscape:original-d="m 334.8764,215.59134 c 1.98335,1.52972 5.58079,3.89236 7.03079,5.74236 1.78,-4.37 2.28,-10.11 2.15,-14.11 -0.62,-36.05 -9.29,-70.38 -13.31,-90.5 -2.67,-13.24 4.87,-5.52 7.25,-2.94 19.06,20.94 45.44,58.73 58.44,77.31 3.44,5.94 8.56,5.69 12.25,0.06 5.53572,-11.69686 5.25,-20.06 5.57,-29.04 -0.07,-19.27 -5.82,-32.02 -10.44,-44.61 -7.26,-16.41 -13.5,-28.779995 -16.29,-39.049995 -0.81,-2.61 1.52,-4.7 3.25,-2.7"
     inkscape:connector-curvature="0"
     sodipodi:nodetypes="ccccccccccc" />
  <path
     style="fill:#000000;fill-rule:nonzero;stroke:#000000;stroke-width:0.75000089;stroke-miterlimit:4;stroke-dasharray:none;stroke-opacity:1"
     d="m 443.84598,82.184076 c 0,0 -0.0293,-0.0052 0,0 0.64937,0.114546 2.60076,0.604061 3.89625,0.687276 0.0282,0.0018 0.0565,0.0027 0.0847,0.0018 0.0282,-9.11e-4 0.0565,-0.0027 0.0847,-0.0039 1.56611,-0.06866 3.48848,-0.331436 5.78378,-0.768654 2.23781,-0.426266 4.85566,-1.023473 7.87389,-1.783036 5.99315,-1.508226 13.51988,-3.645939 22.43973,-6.251016 25.49285,-7.445283 38.40005,-11.442702 68.54094,-19.91761 -0.0546,0.01534 3.67224,-1.031826 3.61769,-1.016489 l -0.0651,0.01664 c 6.93442,-1.791345 10.59835,-2.923751 13.18588,-3.775876 1.28245,-0.422335 2.43562,-0.824249 3.12053,-1.080467 0.0882,-0.03298 0.1743,-0.06568 0.25605,-0.0974 0.0786,-0.03051 0.15702,-0.06136 0.23115,-0.09149 0.13656,-0.0555 0.29876,-0.124375 0.44185,-0.201269 0.0726,-0.03904 0.16165,-0.09131 0.25223,-0.159236 0.085,-0.06375 0.20964,-0.169506 0.32232,-0.327624 0.1141,-0.160097 0.24914,-0.422189 0.25854,-0.770833 0.01,-0.364148 -0.12168,-0.671016 -0.28542,-0.891964 -0.14799,-0.199691 -0.31856,-0.326597 -0.42886,-0.398724 -0.11538,-0.07545 -0.2273,-0.130942 -0.31193,-0.169242 -0.16714,-0.07564 -0.33947,-0.134149 -0.48599,-0.177931 -0.30458,-0.09101 -0.66213,-0.167242 -1.07861,-0.234451 -0.86359,-0.13936 -2.03982,-0.247914 -3.44749,-0.322504 -1.51701,-0.08038 -3.31924,-0.121196 -5.08784,-0.102947 -2.61549,0.02699 -4.76595,0.171384 -7.34836,0.284256 -3.71174,0.197651 -2.08785,0.113923 -5.79476,0.311595 -2.49448,0.128615 -5.63217,0.343669 -9.01546,0.806828 -5.32616,0.72913 -10.32878,1.943921 -14.96696,3.862648 -1.87107,0.774023 -3.4871,1.58122 -4.90379,2.371721 -3.31742,1.8511 -6.38164,3.793251 -8.70457,6.219806 -0.45964,0.480146 -0.92992,1.01571 -1.40199,1.616566 -2.73694,3.48363 -5.03452,8.339935 -6.29874,15.298197 -0.005,0.02813 -0.0113,0.05605 -0.0172,0.08403 -0.006,0.02797 -0.01,0.0563 -0.0127,0.08476 -0.12651,1.312258 -0.28979,2.822106 -0.53256,4.635307 -0.79519,5.938943 -2.47409,17.470847 -4.56188,31.549159 -0.88132,5.62301 -1.99357,10.29158 -3.51923,16.11997 -1.38216,5.28018 -3.13523,11.63286 -5.06807,20.06038 -0.0187,0.0817 -0.0334,0.16427 -0.0452,0.24726 -0.14173,0.9971 -0.31652,2.31764 -0.50224,3.7616 -0.1874,1.45706 -0.38656,3.04463 -0.57366,4.54986 -0.39125,3.14762 -0.72487,5.88938 -0.84928,6.84903 -0.11632,0.93525 -0.0236,1.78257 0.21309,2.5264 0.25643,0.80598 0.65799,1.41764 1.03132,1.85414 0.8863,1.03629 1.90026,1.41083 1.85256,1.3913 a 3.0044116,3.0044116 90 0 0 2.27706,-5.56066 c 0.18634,0.0763 0.28105,0.14239 0.36323,0.25375 0.0406,0.0551 0.0862,0.13489 0.10725,0.22251 0.0232,0.0962 -0.003,0.0964 0.003,-2e-4 0.10031,-0.95112 0.40726,-3.67166 0.77837,-6.83881 0.17608,-1.5027 0.36364,-3.08007 0.54018,-4.52775 0.16833,-1.38042 0.32476,-2.62738 0.45088,-3.57556 1.88025,-8.25582 3.57551,-14.44384 4.96202,-19.76653 1.53981,-5.91117 2.70466,-10.7854 3.63898,-16.68954 0.001,-0.008 0.002,-0.0154 0.004,-0.0231 2.11053,-14.079282 3.86927,-25.603173 4.84137,-31.517083 0.29673,-1.805158 0.581,-3.296966 0.8428,-4.589051 l -0.0299,0.168781 c 1.33255,-5.739233 3.76805,-9.868819 5.56907,-12.579769 0.33477,-0.503906 0.66567,-0.989006 0.96731,-1.423462 1.54609,-2.226845 3.28384,-4.658441 6.04292,-6.690384 1.14621,-0.84413 2.52579,-1.713548 4.15904,-2.548309 4.04773,-2.068811 8.75178,-3.467687 13.80965,-4.298468 3.23067,-0.530655 6.26257,-0.772432 8.68915,-0.869519 2.19124,-0.08767 4.03903,-0.01913 5.64143,0.07729 2.55884,0.139702 4.78824,0.279992 7.38073,0.282987 1.79468,0.0021 3.555,-0.0637 5.07164,-0.146937 1.34875,-0.07402 2.56738,-0.166153 3.28369,-0.221667 0.33301,-0.02581 0.66582,-0.05141 0.76771,-0.06845 0.0655,-0.01095 0.09,-0.02203 0.046,-0.05544 -0.0238,-0.01811 -0.0681,-0.04276 -0.14511,-0.0968 -0.0649,-0.04554 -0.20358,-0.147772 -0.3287,-0.318318 -0.14137,-0.192702 -0.26202,-0.469941 -0.25233,-0.803211 0.009,-0.317606 0.13268,-0.546992 0.22414,-0.673356 0.0904,-0.124875 0.17972,-0.193284 0.22007,-0.221049 0.0472,-0.0325 0.0745,-0.04234 0.0817,-0.04318 0.0229,-0.0027 -0.0352,0.03093 -0.1057,0.0608 -0.0396,0.01678 -0.0876,0.03498 -0.14343,0.05409 -0.0578,0.01977 -0.12281,0.04033 -0.19489,0.06156 -0.63275,0.18633 -1.65097,0.381354 -3.02575,0.622773 -2.44489,0.429337 -6.60839,1.095378 -13.43059,2.58849 -0.0219,0.0048 -0.0435,0.01091 -0.0651,0.01664 -1.204,0.318705 -2.41642,0.641372 -3.63769,0.96822 -27.10637,7.254447 -46.42459,12.979371 -68.75116,19.415175 -8.93443,2.575417 -16.38136,4.676758 -22.28558,6.164296 -2.96821,0.747824 -5.48895,1.325956 -7.60413,1.736221 -2.18943,0.42467 -3.86094,0.652858 -5.10539,0.719276 l 0.16945,-0.0021 c -1.29795,0.02352 -3.26979,0.42273 -3.92375,0.507276 -0.0295,0.0038 0,0 0,0 a 1.7908449,1.7908449 90 0 0 -0.0824,3.580742 z"
     id="path1474"
     inkscape:path-effect="#path-effect1507"
     inkscape:original-d="m 443.88719,80.393705 3.91,0.09 c 11.46,-0.55 47.39,-12.89 107.82,-29.37 24.386,-5.815715 21.47056,-4.651712 0.07,-4.77 -18.52,-0.05 -42.70343,3.675715 -47.98,29.41 l -5.39,36.149995 c -1.88,11.94 -4.79714,19.69428 -8.61,36.39 -0.54,3.91 -1.61846,13.09621 -1.85514,15.11 -0.23668,2.01379 1.31182,2.64789 1.31182,2.64789"
     inkscape:connector-curvature="0"
     sodipodi:nodetypes="ccccccczc" />
  <path
     style="fill:#000000;fill-rule:nonzero;stroke:#000000;stroke-width:0.75000089;stroke-miterlimit:4;stroke-dasharray:none;stroke-opacity:1"
     d="m 585.55134,143.05918 c 0.64972,0.98044 3.00367,3.98984 3.89835,5.88265 0.67247,1.42271 0.58196,2.99592 1.33136,4.15275 0.19701,0.30412 0.4089,0.60647 0.69642,0.82701 0.28752,0.22055 0.63994,0.35268 1.00088,0.38479 0.36094,0.0321 0.72463,-0.0294 1.07353,-0.12725 0.34891,-0.0979 0.68783,-0.22782 1.02779,-0.35328 4.39642,-1.62245 7.86659,-5.32949 10.80414,-9.90934 1.77907,-2.77371 3.61414,-6.26 5.52903,-10.61996 0.67966,-1.54751 1.38305,-3.25725 2.10535,-5.15022 3.9769,-10.42258 7.25029,-23.01807 10.13019,-36.754618 0.012,-0.05702 0.0232,-0.114209 0.0317,-0.171857 1.97634,-13.473357 3.32293,-24.725686 5.66155,-34.579608 1.29089,-5.439274 2.60312,-9.119415 3.88567,-11.693608 0.10128,-0.203281 0.20235,-0.399163 0.3031,-0.587935 0.89769,-1.681977 1.77582,-2.808948 2.56624,-3.565117 0.9249,-0.884829 1.76128,-1.294177 2.46799,-1.481193 l -2.88046,-0.426434 c -0.0943,-0.04986 -0.1006,-0.0423 -0.064,0.01724 0.0319,0.0519 0.11265,0.162236 0.20569,0.289926 0.21486,0.294871 0.4461,0.613965 0.81803,1.142101 0.11925,0.169328 0.247,0.35174 0.38368,0.547968 0.65495,0.940331 1.46715,2.131736 2.28241,3.359563 1.79786,2.70768 4.41578,6.779563 7.38974,12.352749 0.12167,0.228002 0.24458,0.459714 0.36867,0.695112 2.22301,4.217124 4.7405,9.368559 6.9947,14.710744 2.03224,4.816176 3.9318,9.98647 5.01748,14.494993 0.009,0.03752 0.0185,0.07494 0.0294,0.111953 1.30792,4.437304 2.63493,10.644271 3.74623,17.797171 -10e-6,0 0.009,0.0582 0.009,0.0582 0.80456,5.18797 1.63776,11.81794 1.86829,17.19198 8.4e-4,0.0196 7.8e-4,0.0392 0.002,0.0587 0.2033,2.48645 0.41808,6.92105 0.40693,12.24493 -0.0105,5.03407 -0.22527,10.69265 -0.82745,15.78992 -0.0532,0.45039 -0.0967,0.91543 0.0337,1.3498 0.0652,0.21719 0.17234,0.42282 0.32131,0.59379 0.14896,0.17096 0.33951,0.30604 0.55161,0.38625 0.2121,0.0802 0.44449,0.105 0.66915,0.0742 0.22466,-0.0308 0.44047,-0.11647 0.63076,-0.2398 0.38059,-0.24665 0.64187,-0.63549 0.88362,-1.01921 0.49536,-0.78628 0.93739,-1.75793 1.33507,-2.81894 0.40657,-1.08473 0.78624,-2.31578 1.13773,-3.63247 0.7263,-2.72073 1.3494,-5.8708 1.85137,-9.02194 0.54035,-3.39206 0.94209,-6.79114 1.20649,-9.84217 0.29888,-3.44884 0.4202,-6.41002 0.40495,-8.7319 0.0185,-8.53287 -2.86317,-14.44006 -4.91909,-17.786738 -1.75168,-2.851426 -3.72017,-5.162141 -4.76212,-6.296511 -1.13692,-1.237768 -2.66026,-2.721503 -4.93366,-4.201402 -4.43396,-2.886344 -10.58239,-5.206308 -17.81996,-5.303833 -0.0124,-1.67e-4 -0.0248,-3.88e-4 -0.0372,-3.63e-4 -3.88629,0.0079 -7.5283,0.440265 -11.04351,1.558346 -0.73484,0.233732 -1.49722,0.508395 -2.28986,0.835329 -3.3723,1.39095 -6.26657,3.259896 -10.5575,6.316331 -0.0487,0.03467 -0.0979,0.06867 -0.14347,0.107368 -1.00983,0.858218 -2.21441,1.763427 -3.76221,2.985369 -1.42817,1.12751 -3.0084,2.41948 -4.4626,3.827454 -1.45665,1.41035 -2.8184,2.96631 -3.81539,4.65258 -1.03828,1.75608 -1.68434,3.66167 -1.62817,5.66811 2.2e-4,0.008 8e-5,0.0161 -1.2e-4,0.0241 -2e-4,0.008 5e-5,0.0161 7.3e-4,0.0241 0.0859,1.01403 0.32355,1.84625 0.67458,2.53444 0.40455,0.79314 0.92782,1.33093 1.41387,1.69583 0.59885,0.44957 1.19908,0.68 1.58645,0.78044 0.0414,0.0107 0.0825,0.0204 0.12331,0.0292 0.89819,0.19356 1.65888,-0.009 2.00603,0.002 -0.16901,-0.30343 -0.44286,-1.0761 -0.89772,-1.74352 -0.0207,-0.0303 -0.0416,-0.0604 -0.0628,-0.0903 -0.21875,-0.30807 -0.48723,-0.63954 -0.6887,-1.01224 -0.15483,-0.28641 -0.25791,-0.57337 -0.31988,-0.93261 -0.0523,-0.30298 -0.0893,-0.73872 -0.0467,-1.35962 l 6.1e-4,0.0483 c 0.0548,-1.09744 0.48464,-2.25348 1.31809,-3.49689 0.81264,-1.21237 1.95257,-2.42312 3.30835,-3.62742 1.3462,-1.1958 2.83193,-2.321094 4.26615,-3.365048 1.42646,-1.038311 2.77772,-1.978913 3.88793,-2.831467 4.30568,-2.887911 6.86622,-4.395077 9.69514,-5.471963 0.66448,-0.252951 1.29925,-0.462534 1.90802,-0.638915 2.88476,-0.835807 5.97161,-1.125047 9.48148,-1.097669 6.11438,0.125539 11.3543,2.03319 15.26661,4.222351 1.88853,1.056745 3.63556,2.216989 4.69717,3.007311 1.19129,0.886851 3.03523,2.396283 4.83832,4.97859 1.99562,2.85804 4.73905,8.12787 4.75797,15.96111 10e-6,0.006 10e-6,0.0111 9e-5,0.0166 0.0349,2.20121 -0.082,5.07009 -0.39452,8.44918 -0.27564,2.97988 -0.69997,6.30316 -1.26913,9.60721 -0.53018,3.07773 -1.18068,6.10287 -1.92176,8.66494 -0.35842,1.23916 -0.73303,2.35215 -1.11703,3.29494 -0.38243,0.93895 -0.75616,1.66377 -1.10204,2.16177 l 3.09012,1.14502 c 0.7547,-5.25704 1.11969,-11.05175 1.28005,-16.16507 0.16846,-5.37204 0.11161,-9.98568 0.0394,-12.54007 l 0.002,0.0587 c -0.0639,-5.60287 -0.79245,-12.49938 -1.53425,-17.75762 0,-1e-5 -0.008,-0.0597 -0.008,-0.0597 -1.02667,-7.261087 -2.35055,-13.683319 -3.67501,-18.388802 -1.14294,-4.869513 -3.11378,-10.314201 -5.128,-15.237389 -2.24855,-5.49592 -4.75854,-10.848062 -6.89336,-15.191004 -0.004,-0.0072 -0.3516,-0.713924 -0.35515,-0.721156 -2.76746,-5.609293 -5.20996,-10.365536 -6.79313,-13.177353 -0.77287,-1.372654 -1.54158,-2.653729 -2.2903,-3.75644 -0.15356,-0.226163 -0.30274,-0.439508 -0.4477,-0.640577 -0.42133,-0.584451 -0.81847,-1.081316 -1.19503,-1.494291 -0.19259,-0.211215 -0.39096,-0.412783 -0.59521,-0.599204 -0.19609,-0.178988 -0.438,-0.381039 -0.71507,-0.566759 -0.42747,-0.286528 -0.87348,-0.573023 -1.37958,-0.66625 -0.25305,-0.04661 -0.5146,-0.04411 -0.76745,0.0035 -0.25286,0.04764 -0.49468,0.140353 -0.73343,0.23628 -1.70262,0.684071 -3.20987,1.824423 -4.55013,3.350203 -1.13503,1.292138 -2.21061,2.927751 -3.24227,4.980205 -0.11655,0.231877 -0.2329,0.469773 -0.34904,0.713885 -1.46266,3.074231 -2.87014,7.139191 -4.23923,12.815494 -2.46546,10.221824 -3.92382,21.57121 -6.03826,34.868899 -3.02632,13.561689 -6.37461,25.722129 -10.33214,35.632369 -0.71494,1.79033 -1.40474,3.39302 -2.06415,4.83024 -1.86642,4.06792 -3.69404,7.0941 -5.37115,9.38145 -2.64102,3.602 -5.23065,5.80504 -7.47235,7.04269 -0.27384,-0.0778 -0.54643,-0.17169 -0.81426,-0.2923 -1.90897,-0.85967 -4.9612,-3.15781 -5.95344,-3.78937 z"
     id="path1472"
     inkscape:path-effect="#path-effect1509"
     inkscape:original-d="m 586.87734,143.05398 7.67985,7.53972 c 13.76,-5.75 22.24,-37.2 27.13,-59.809995 3.66,-23.94 6.40843,-50.673145 16.66,-54.37 3.056,2.27557 19.71,31.81 23.91,49.52 2.93,10.16 5.18,26.289995 5.43,35.659995 0.3,5.52 0.48,18.07 -0.87,28.37 3.35,-5.12 5.98,-23.3 5.87,-33.12 0,-19.119995 -15.37,-30.619995 -31,-30.879995 -10.34,-0.03 -15.16,2.88 -22.52,7.97 -4.28,3.46 -13.28,8.909995 -13.28,15.269995 0.08,3.14 1.89,3.86 3.91,5.09"
     inkscape:connector-curvature="0"
     sodipodi:nodetypes="cccccccccccc" />
  <path
     style="fill:#000000;fill-rule:nonzero;stroke:#000000;stroke-width:0.75000089;stroke-miterlimit:4;stroke-dasharray:none;stroke-opacity:1"
     d="m 802.81719,31.463705 c 0.1095,0.07941 0.34162,0.145534 0.86984,-0.06326 0.52425,-0.207227 1.22448,-0.639336 1.97929,-1.175406 0.43953,-0.312158 0.88021,-0.648077 1.21198,-0.92276 1.0232,-0.847123 1.91053,-1.639873 2.44359,-2.235041 0.0229,-0.02562 0.0447,-0.05094 0.0653,-0.07598 0.31354,-0.380759 0.62746,-0.772784 0.80766,-1.231926 0.1802,-0.459143 0.21283,-0.984972 0.0342,-1.44473 -0.17863,-0.459757 -0.56281,-0.827062 -1.01731,-1.018662 -0.45451,-0.191601 -0.9602,-0.211628 -1.45341,-0.217141 -0.57843,-0.0065 -1.16576,0.108472 -1.67773,0.23365 -0.55588,0.135914 -1.2151,0.334408 -1.94213,0.554328 -0.63026,0.190646 -1.10071,0.333773 -1.95632,0.589161 -0.92668,0.276603 -1.99416,0.60246 -3.20679,0.988461 -3.51516,1.118938 -8.42186,2.800051 -14.37234,5.176618 -1.59671,0.637711 -3.26756,1.325293 -4.99323,2.060848 -3.66365,1.561604 -7.67845,3.350557 -11.7402,5.303295 -5.20936,2.504468 -10.72754,5.390292 -15.52174,8.396874 -0.0335,0.021 -0.0652,0.04464 -0.0978,0.06699 -6.8882,4.725687 -13.1665,9.837514 -18.23529,15.389829 -1.78355,1.95369 -3.47584,4.021853 -5.01445,6.201667 -4.89795,6.939128 -8.01095,14.68904 -8.08773,23.280699 -0.0544,1.425739 -0.0351,3.253294 0.11102,5.361337 0.14831,2.140064 0.42853,4.586756 0.90164,7.210816 0.9579,5.31291 2.69771,11.30558 5.70328,16.96048 3.15636,5.93863 7.59624,11.29135 13.67999,15.17635 2.98621,1.90695 6.29012,3.40975 9.91438,4.47032 3.99835,1.17004 8.72738,1.89807 14.32004,1.83755 11.87312,-0.17265 22.72084,-4.89797 31.2946,-12.946 6.48865,-6.09076 10.6905,-13.13732 13.34311,-19.24139 2.51738,-5.7929 3.63867,-10.835276 3.84894,-11.719793 0.0566,-0.237857 0.0678,-0.280909 0.12438,-0.518766 a 2.2158959,2.2158959 90 0 0 -4.31356,-1.016832 c -0.0129,0.05484 -0.0481,0.212633 -0.11649,0.485859 -0.21441,0.856589 -1.37358,5.492482 -3.872,10.816722 -2.62946,5.6035 -6.66831,11.89443 -12.66258,17.19746 -7.88203,6.97309 -17.46612,10.73743 -27.67754,10.674 -4.99996,-0.007 -9.09519,-0.70968 -12.44984,-1.73313 -3.046,-0.9293 -5.76934,-2.2143 -8.1985,-3.80693 -4.92834,-3.23118 -8.58831,-7.69433 -11.24232,-12.82185 -2.54277,-4.91261 -4.04197,-10.20814 -4.86169,-15.01468 -0.40277,-2.36169 -0.6333,-4.557959 -0.74768,-6.463924 -0.11508,-1.917811 -0.11096,-3.514758 -0.0529,-4.667445 0.002,-0.03969 0.003,-0.07943 0.003,-0.119168 0.10202,-6.858517 2.55771,-13.249614 6.78546,-19.392522 1.3301,-1.932627 2.81091,-3.803789 4.39868,-5.611882 4.52644,-5.154548 10.21092,-10.157277 16.68602,-14.969123 l -0.0978,0.06699 c 4.39531,-3.033162 9.58033,-6.047481 14.58374,-8.710828 3.88694,-2.069047 7.75387,-3.974678 11.3033,-5.62494 1.67045,-0.776654 3.28762,-1.512226 4.83004,-2.199607 5.74488,-2.5602 10.47566,-4.465335 13.83132,-5.641449 1.1601,-0.406599 2.17278,-0.732589 3.04688,-0.983237 0.7274,-0.20858 1.32305,-0.34733 1.82303,-0.44306 0.67817,-0.129848 1.227,-0.188823 1.65115,-0.212281 0.40842,-0.02259 0.71549,-0.01107 0.81205,0.0084 l -1.62884,-3.912458 c -0.0281,0.02709 -0.0562,0.05539 -0.0845,0.08506 -0.67477,0.708683 -1.3615,1.756795 -2.01334,3.008661 -0.21218,0.407491 -0.44217,0.916685 -0.64651,1.44064 -0.3459,0.886925 -0.57229,1.692498 -0.62199,2.260116 -0.05,0.571021 0.0883,0.774771 0.19629,0.853067 z"
     id="path1470"
     inkscape:path-effect="#path-effect1511"
     inkscape:original-d="m 802.81719,31.463705 c 0,0 2.74311,-3.782466 4.87,-6.06 -5.065,-0.155 -36.146,12.055144 -53.646,23.555144 -19.79886,14.129428 -29.44572,27.952287 -29.604,42.444856 -0.46629,10.415135 3.27,47.989995 41.09,47.799995 22.41,-0.11 40.73,-17.45 46.47,-41.799995"
     inkscape:connector-curvature="0"
     sodipodi:nodetypes="cccccc" />
  <path
     style="fill:#000000;fill-rule:nonzero;stroke:#000000;stroke-width:0.75000089;stroke-miterlimit:4;stroke-dasharray:none;stroke-opacity:1"
     d="m 841.86298,31.587356 c 0.10406,-0.05056 0.4023,-0.198131 0.8439,-0.403218 1.32327,-0.614553 4.6736,-2.087113 9.94024,-3.858256 5.47059,-1.839731 11.39744,-3.473948 17.67332,-4.989848 1.981,-0.478499 4.05818,-0.960582 6.23234,-1.439815 12.09493,-2.665992 24.98076,-4.728989 34.89682,-5.350789 l -0.0435,0.0016 c 4.173,-0.161714 8.11873,-0.39578 11.85411,-0.673392 14.5065,-1.078116 28.71137,-3.038513 41.37912,-6.634282 3.34281,-0.948863 6.87734,-2.0905577 10.44699,-3.4497288 0.65086,-0.247817 1.31827,-0.5252032 1.79008,-1.037466 0.23591,-0.2561314 0.41747,-0.5647571 0.50954,-0.9005812 0.0921,-0.3358241 0.0928,-0.6969884 -0.004,-1.0315308 -0.0966,-0.3345424 -0.28993,-0.6397469 -0.54743,-0.87416318 -0.2575,-0.23441626 -0.57662,-0.39733575 -0.91351,-0.4854265 -0.67379,-0.17618151 -1.38522,-0.0428917 -2.06522,0.10749347 -9.40167,2.07920641 -16.48644,3.02742221 -22.78334,3.50321341 -4.95112,0.3741048 -10.16038,0.4795324 -13.05774,0.5413274 -1.65028,0.035197 -3.02468,0.08174 -4.34754,0.1348891 -5.58801,0.038698 -10.53945,0.4558153 -14.69345,1.1015363 -1.32163,0.2054422 -2.58378,0.4367658 -3.78956,0.6947652 -4.76539,1.0196453 -8.67087,2.4609619 -11.87186,4.3745896 -0.3557,0.21265 -0.69934,0.425496 -1.03043,0.637902 -2.89767,1.858976 -5.6493,4.171661 -7.5597,7.660313 -0.21603,0.394492 -0.42089,0.801744 -0.61424,1.221541 -1.54109,3.346018 -2.28228,7.320287 -2.3063,11.9464 -1.5e-4,0.02878 -0.002,0.05754 -0.001,0.08631 0.0607,2.250138 0.0973,4.799218 0.0315,7.647799 -0.21987,9.518071 -1.04965,22.637775 -2.95803,37.219013 -0.34069,2.221825 -0.83551,5.102173 -1.40795,8.281566 -0.54466,3.025089 -1.17976,6.360086 -1.85898,9.819032 -1.52841,7.783398 -3.33448,16.468998 -5.03727,24.598368 -1.75841,8.39486 -3.36884,16.02047 -4.78416,22.932 -0.34997,1.70903 -0.67837,3.32804 -0.97748,4.82345 -0.24893,1.24457 -0.47913,2.42117 -0.68213,3.48263 -0.20965,1.09628 -0.39425,2.09055 -0.53806,2.9003 -0.1358,0.7646 -0.25107,1.45325 -0.29736,1.83086 l 4.70356,-1.6679 c -2.01574,-0.58647 -4.36837,-2.1244 -6.15178,-3.5009 -0.63259,-0.48825 -1.17287,-0.9419 -1.54444,-1.29344 -1.12173,-1.06127 -1.4409,-1.50636 -1.51965,-1.4632 -0.0994,0.0545 0.015,0.37202 0.6155,2.04952 0.18121,0.50617 0.39898,1.17592 0.69666,1.97634 0.75917,2.04135 2.1483,5.21134 4.44967,7.4233 0.38075,0.36595 0.79036,0.72507 1.29073,0.89395 0.50037,0.16889 1.06465,0.13408 1.54211,-0.0916 0.47746,-0.22566 0.85802,-0.62102 1.1484,-1.06211 0.29039,-0.4411 0.50459,-0.92702 0.72232,-1.40815 0.24142,-0.53348 0.49635,-1.20589 0.77226,-2.02528 0.28347,-0.84188 0.58703,-1.83378 0.90329,-2.9418 0.30493,-1.0683 0.62151,-2.24407 0.94175,-3.49229 0.38409,-1.49713 0.78178,-3.11976 1.18673,-4.83058 1.58304,-6.688 3.29783,-14.80693 4.94428,-23.0133 1.638,-8.16424 3.30945,-16.92249 4.76242,-24.755693 0.64298,-3.466401 1.26436,-6.866973 1.8097,-9.907536 0.5772,-3.218219 1.08269,-6.189547 1.43113,-8.51232 0.004,-0.02559 0.008,-0.0512 0.0108,-0.07686 1.91885,-14.982708 2.64821,-28.176806 2.9682,-37.988062 0.0808,-2.477928 0.19869,-5.343326 0.2795,-7.821254 l -0.001,0.08631 c 0.20123,-3.837735 0.96734,-6.763052 1.87933,-9.132973 0.11645,-0.302637 0.23589,-0.597737 0.35755,-0.885821 1.02149,-2.418808 2.28386,-4.7584 4.19288,-6.612949 0.22121,-0.214903 0.45725,-0.430051 0.70984,-0.644263 2.27566,-1.929977 5.41525,-3.707621 9.74724,-4.99387 1.08958,-0.3235146 2.24872,-0.6140794 3.48044,-0.8670627 3.97056,-0.8155105 8.56319,-1.2207634 14.09406,-1.2257863 0.017,-1.54e-5 0.034,-5.015e-4 0.0511,-9.463e-4 1.31373,-0.034336 2.65719,-0.051668 4.31168,-0.074042 2.4666,-0.033357 8.51889,-9.062e-4 13.22759,-0.2115199 6.48957,-0.2902695 13.84156,-1.0618151 23.47416,-3.0542864 l -1.23032,-4.22167377 c -3.46233,1.25890397 -6.8848,2.32606037 -10.13514,3.23955327 -12.33318,3.4661872 -26.08846,5.9064739 -40.44311,6.8697213 -3.67307,0.246477 -7.57448,0.408257 -11.68153,0.473321 -0.0145,2.3e-4 -0.029,0.0011 -0.0435,0.0016 -10.18506,0.336402 -23.47265,1.974003 -35.78818,4.499211 -2.22337,0.455885 -4.35434,0.92811 -6.37956,1.410442 -6.33948,1.509832 -12.56519,3.3337 -18.11642,5.330864 -5.46011,1.964379 -8.88761,3.602407 -10.3285,4.287183 -0.42959,0.204161 -0.82803,0.39506 -0.90072,0.430374 a 2.4388545,2.4388545 90 0 0 2.13158,4.387302 z"
     id="contact"
     inkscape:path-effect="#path-effect1513"
     inkscape:original-d="m 840.79719,29.393705 c 18.73,-9.1 51.64,-15.1 70.55,-16 24.47,-0.67 46.21,-4.4299995 62.97,-10.6699994 -19.26,4.1199999 -28.88,3.3699999 -40.61,3.7599999 -28.77,0.11 -37.77,10.6099995 -38.18,25.9999995 -0.0416,11.987286 -0.84543,28.030286 -3.09,45.36 -2.5,16.5 -13.86,71.679995 -16.17,79.089995 -4.15014,-2.76114 -7.48885,-8.85335 -7.48885,-8.85335"
     inkscape:connector-curvature="0"
     sodipodi:nodetypes="cccccccc" />
</svg>
