<?xml version="1.0" encoding="UTF-8" standalone="no"?>
<svg
   xmlns:dc="http://purl.org/dc/elements/1.1/"
   xmlns:cc="http://creativecommons.org/ns#"
   xmlns:rdf="http://www.w3.org/1999/02/22-rdf-syntax-ns#"
   xmlns:svg="http://www.w3.org/2000/svg"
   xmlns="http://www.w3.org/2000/svg"
   xmlns:sodipodi="http://sodipodi.sourceforge.net/DTD/sodipodi-0.dtd"
   xmlns:inkscape="http://www.inkscape.org/namespaces/inkscape"
   width="9.5596571in"
   height="2.6670282in"
   viewBox="0 0 688.2963 192.0262"
   version="1.1"
   id="svg"
   sodipodi:docname="music-path.svg"
   inkscape:version="0.92.3 (2405546, 2018-03-11)">
  <style
     id="style4542">svg{cursor: pointer;-webkit-touch-callout: none;-webkit-user-select: none;-khtml-user-select: none;-moz-user-select: none;-ms-user-select: none;user-select: none;cursor: url("/content/selectcursor.gif"), auto;}</style>
  <metadata
     id="metadata5820">
    <rdf:RDF>
      <cc:Work
         rdf:about="">
        <dc:format>image/svg+xml</dc:format>
        <dc:type
           rdf:resource="http://purl.org/dc/dcmitype/StillImage" />
      </cc:Work>
    </rdf:RDF>
  </metadata>
  <defs
     id="defs5818">
    <inkscape:path-effect
       effect="powerstroke"
       id="path-effect6404"
       is_visible="true"
       offset_points="0,3.9528997 | 0.52652492,3.2538939 | 2.4694004,3.530139 | 4.79237,3.3608072 | 5,4.1520113"
       sort_points="true"
       interpolator_type="CentripetalCatmullRom"
       interpolator_beta="0.5"
       start_linecap_type="round"
       linejoin_type="spiro"
       miter_limit="100"
       end_linecap_type="round" />
    <inkscape:path-effect
       effect="powerstroke"
       id="path-effect6402"
       is_visible="true"
       offset_points="0.63409351,-2.7687734 | 1,-3.2769103 | 1.3450828,-3.0127476 | 2.8112293,-2.9617007"
       sort_points="true"
       interpolator_type="CentripetalCatmullRom"
       interpolator_beta="0.5"
       start_linecap_type="zerowidth"
       linejoin_type="spiro"
       miter_limit="100"
       end_linecap_type="round" />
    <inkscape:path-effect
       effect="powerstroke"
       id="path-effect6400"
       is_visible="true"
       offset_points="0.016165237,3.9312656 | 1.7057336,2.5087399 | 2.0069241,3.5787008 | 2.1498074,3.4491229 | 3.1897537,2.4074485 | 4.1903266,3.3625687 | 5.6410752,1.5888425"
       sort_points="true"
       interpolator_type="CentripetalCatmullRom"
       interpolator_beta="0.5"
       start_linecap_type="round"
       linejoin_type="spiro"
       miter_limit="100"
       end_linecap_type="round" />
    <inkscape:path-effect
       effect="powerstroke"
       id="path-effect6398"
       is_visible="true"
       offset_points="2.0561492,2.9395615 | 0.8550536,3.2395404 | 0.083500062,3.973827 | 4.6715383,2.5664959 | 4.8951974,3.2861025"
       sort_points="true"
       interpolator_type="CentripetalCatmullRom"
       interpolator_beta="0.5"
       start_linecap_type="round"
       linejoin_type="spiro"
       miter_limit="100"
       end_linecap_type="round" />
    <inkscape:path-effect
       effect="powerstroke"
       id="path-effect6375"
       is_visible="true"
       offset_points="0.081702631,-2.7093037 | 0.42575747,-1.9901077 | 0.010395532,-3.2898685 | 1.4460098,-2.8894468 | 1.673131,-3.1304481 | 1.948758,-2.5100575 | 2.5031933,-1.6618549 | 2.9202232,-1.9296302 | 3.8005798,-2.5908218 | 5.1029558,-1.6664695 | 6.3225619,-2.8566882 | 7.0473448,-2.1016458 | 1.2585345,-2.2708208 | 7.8044276,-2.3555145"
       sort_points="true"
       interpolator_type="CentripetalCatmullRom"
       interpolator_beta="0.5"
       start_linecap_type="round"
       linejoin_type="spiro"
       miter_limit="100"
       end_linecap_type="round" />
  </defs>
  <sodipodi:namedview
     pagecolor="#ffffff"
     bordercolor="#666666"
     borderopacity="1"
     objecttolerance="10"
     gridtolerance="10"
     guidetolerance="10"
     inkscape:pageopacity="0"
     inkscape:pageshadow="2"
     inkscape:window-width="2560"
     inkscape:window-height="1346"
     id="namedview5816"
     showgrid="false"
     inkscape:zoom="1.6084564"
     inkscape:cx="616.55114"
     inkscape:cy="295.45186"
     inkscape:window-x="-11"
     inkscape:window-y="-11"
     inkscape:window-maximized="1"
     inkscape:current-layer="svg5814" />
  <path
     style="fill:#000000;fill-rule:nonzero;stroke:#000000;stroke-width:0.75000089;stroke-miterlimit:4;stroke-dasharray:none;stroke-opacity:1"
     d="m 0.38794752,188.40515 c -0.001045,-0.0785 -0.0234518,-0.24455 -0.006395,-0.48681 0.0449597,-0.63859 0.38775813,-1.95012 0.53203356,-4.226 0.18300201,-2.88678 0.28845321,-7.50825 0.41021831,-15.01641 0.091565,-5.64597 0.1943419,-13.01163 0.3515083,-20.68445 0.057789,-2.82126 0.1276402,-6.05336 0.2153513,-9.47894 0.2412392,-9.42166 0.6296336,-20.82804 1.3527944,-31.02594 0.3336964,-4.70574 0.7323263,-9.067441 1.2107405,-12.875969 0.4897071,-3.898428 1.053843,-7.146499 1.7080479,-9.636928 0.003,-0.01143 0.00653,-0.02272 0.00963,-0.03412 0.8600866,-3.160808 1.3363255,-5.10239 1.6652748,-6.285371 8.12e-4,-0.0029 0.044542,-0.159567 0.045355,-0.162487 0.2357066,-0.841311 0.4200699,-1.610006 0.6457826,-2.137466 0.148568,-0.347182 0.3958529,-0.805358 0.8619786,-1.213554 0.059701,-0.05228 0.1241611,-0.104742 0.1936255,-0.156519 0.4380838,-0.326531 1.0028528,-0.590661 1.6779258,-0.677038 0.760793,-0.09734 1.453373,0.05672 2.010017,0.295801 0.524005,0.225062 0.950066,0.53306 1.280894,0.828862 0.255379,0.228341 0.4845,0.476542 0.691769,0.733995 0.330095,0.410017 0.617334,0.873471 0.890499,1.373287 0.656541,1.201286 1.277722,2.679001 2.467947,5.04202 -0.980551,-1.946743 1.830753,3.632859 0.850202,1.686116 l -0.0653,-0.107943 c 1.856841,3.17442 4.062371,7.300503 6.852439,12.62059 2.754238,5.251772 5.489584,10.531672 8.222151,15.575772 -1.12e-4,-2e-4 0.110889,0.20456 0.110776,0.20436 3.1062,5.72643 5.917843,10.60469 8.705051,15.14585 1.734142,2.82541 3.732509,5.96185 5.668625,8.75716 0.803142,1.15956 1.611725,2.27216 2.406738,3.29402 0.0038,0.005 0.0073,0.0101 0.0111,0.015 1.336835,1.70449 2.565001,3.12803 3.634415,4.02225 0.490204,0.4099 0.899091,0.66788 1.229281,0.80707 0.314412,0.13253 0.504118,0.1362 0.624,0.1162 0.0885,-0.0148 0.246071,-0.0647 0.449441,-0.16864 0.23243,-0.11883 0.570594,-0.33206 1.035236,-0.74003 0.184486,-0.16198 0.383879,-0.35022 0.599574,-0.56884 0.836284,-0.84763 1.862997,-2.08413 3.175607,-3.91998 2.029257,-3.17474 4.383848,-7.63351 6.906409,-13.18973 2.476571,-5.45493 4.958239,-11.62623 7.15148,-17.7628 0.008,-0.0225 0.01619,-0.0449 0.02517,-0.067 0.604685,-1.49095 1.206474,-2.96219 1.804913,-4.41504 2.298132,-5.579267 4.630068,-11.113995 6.969795,-16.211374 2.984916,-6.502999 5.855537,-12.016143 8.568515,-15.889742 0.01037,-0.0148 0.02133,-0.02917 0.03297,-0.04299 0.01164,-0.01382 0.02326,-0.02766 0.0344,-0.04188 2.261414,-2.88721 4.015445,-4.731206 5.528114,-5.79535 0.482949,-0.339749 0.97485,-0.624362 1.48106,-0.836932 0.37971,-0.159452 0.77667,-0.282352 1.18883,-0.354162 0.51171,-0.08915 1.03747,-0.09765 1.56059,-0.0056 0.54265,0.09545 1.02968,0.289854 1.45217,0.548538 0.85677,0.524594 1.36346,1.25638 1.66731,1.826079 0.31938,0.598814 0.52711,1.234425 0.67956,1.758384 0.341,1.171978 0.50046,2.034337 0.86439,2.82312 0.01,0.02138 0.0207,0.04227 0.0322,0.06283 0.0115,0.02056 0.0222,0.04152 0.0319,0.06297 0.32575,0.718915 0.67008,1.509729 1.03278,2.370436 1.45941,3.463246 3.24869,8.165818 5.39286,14.261714 2.55005,7.249794 5.38918,15.866246 8.34509,25.235006 4.37921,13.87989 8.53782,27.90006 11.48516,38.1629 3.40931,11.87146 6.11545,21.76477 7.41149,26.5002 a 2.3555145,2.3555145 90 0 1 -4.54392,1.24362 c -1.31572,-4.80736 -4.00054,-14.51301 -7.39715,-26.44892 -2.93882,-10.32721 -6.91153,-24.19817 -11.1737,-38.14798 -2.85674,-9.34991 -5.61285,-17.975755 -8.0946,-25.161869 -2.08946,-6.050181 -3.84802,-10.684121 -5.28881,-13.989201 -0.34019,-0.780383 -0.66375,-1.487506 -0.9703,-2.122516 -0.69653,-1.152115 -1.16069,-2.240529 -1.60859,-2.99565 -0.22965,-0.387171 -0.43373,-0.661014 -0.58572,-0.778609 2.06242,1.595751 -2.391417,-1.727993 0.0292,0.165885 0.10755,0.08415 0.25102,0.153709 0.4091,0.192479 0.1518,0.03723 0.26706,0.0345 0.32331,0.03179 0.0417,-0.002 0.036,-0.0026 -0.0237,0.02322 -0.0837,0.03616 -0.24446,0.111569 -0.49828,0.273385 -0.86803,0.553387 -2.33205,1.798481 -4.667194,4.458081 l 0.06737,-0.08487 c -2.7241,3.264741 -5.898378,8.188409 -9.231485,14.445258 -2.577822,4.839042 -5.123751,10.239792 -7.426675,15.740046 -0.594987,1.42105 -1.183014,2.86919 -1.762375,4.33737 -2.144666,6.21822 -4.327142,12.49934 -6.524596,18.20882 -2.237538,5.81364 -4.383207,10.75242 -6.434959,14.33791 -0.02384,0.0417 -0.05156,0.0809 -0.07799,0.12096 -1.323629,2.0057 -2.512605,3.55892 -3.657263,4.71464 -0.302818,0.30575 -0.608332,0.59032 -0.91757,0.85169 -0.762943,0.64484 -1.57617,1.17179 -2.451716,1.51325 -0.906741,0.35363 -1.846571,0.49411 -2.794231,0.38683 -0.958685,-0.10852 -1.804495,-0.45634 -2.539047,-0.91083 -0.748809,-0.46331 -1.415994,-1.05829 -2.015797,-1.68715 -1.256611,-1.3175 -2.543659,-3.14722 -3.75246,-4.9065 l 0.0111,0.015 c -0.804117,-1.11514 -1.615415,-2.30776 -2.414753,-3.52566 -1.935995,-2.94975 -3.844949,-6.18617 -5.516705,-9.10738 -2.732549,-4.77483 -5.327204,-9.54418 -8.568613,-15.35008 1.8e-5,3e-5 -0.113614,-0.20345 -0.113597,-0.20342 C 28.901892,109.22228 25.65441,103.48333 22.8243,98.680155 19.797807,93.543686 17.33528,89.61558 15.327202,86.763412 c -0.01211,-0.0172 -0.02327,-0.03506 -0.03342,-0.05349 -0.01015,-0.01843 -0.02057,-0.03671 -0.03189,-0.05445 -0.373756,-0.586028 -0.706748,-1.103875 -1.013543,-1.576515 -1.398068,-2.153821 -2.39096,-3.36303 -3.085208,-4.131454 -0.300735,-0.332867 -0.518165,-0.552038 -0.680285,-0.716515 -0.09449,-0.09587 -0.155254,-0.152166 -0.166695,-0.167963 -0.01519,-0.02098 0.05737,0.03775 0.284102,0.119908 0.238726,0.08651 0.638069,0.180726 1.119601,0.10398 0.427557,-0.06814 0.759513,-0.247035 0.971996,-0.430745 0.03293,-0.02847 0.0616,-0.05637 0.08638,-0.08311 0.203844,-0.219959 0.16333,-0.357427 0.09692,-0.387947 -0.124796,-0.05735 -0.416531,0.101324 -0.751614,0.731451 -0.01937,0.03643 -0.03923,0.07475 -0.05958,0.115074 -0.494574,0.979879 -1.009925,2.515818 -2.043947,5.831481 l 0.0096,-0.03411 C 9.3971037,88.25272 8.8206122,91.29432 8.3097183,95.110628 7.8134182,98.817923 7.3992266,103.10319 7.0564402,107.76204 6.313287,117.86233 5.9441384,129.20076 5.7728143,138.59766 c -0.062474,3.42661 -0.099115,6.62149 -0.1176508,9.44767 -0.050862,7.75477 -1.229e-4,14.89153 0.1030902,20.62676 0.1323585,7.35474 0.3437222,12.22589 0.5736637,14.96558 0.1900651,2.26458 0.5673666,3.56125 0.6288195,4.19541 0.023317,0.24062 0.00533,0.40659 0.00636,0.48447 a 3.2898685,3.2898685 90 0 1 -6.57915378,0.0876 z"
     id="path5830"
     inkscape:path-effect="#path-effect6375"
     inkscape:original-d="m 3.6775244,188.36135 c -0.2,-15.02 -0.8615707,-83.51 4.4184294,-102.86 3.0967132,-10.606427 2.8691442,-11.258426 9.2615702,-0.04 8.246857,12.859429 22.68,42.5 32.4,55.49 5.54,7.55 8.04,9.12 14.44,-0.21 4.23,-6.99 9.14,-19.26 13.55,-31.82 5.72,-14.3 12.29,-28.18 17.89,-35.54 8.849996,-10.69 8.529996,-4.31 10.529996,-0.69 6.89,14.7 20.9,60.87 33.32,106.25"
     inkscape:connector-curvature="0"
     sodipodi:nodetypes="ccccccccc" />
  <path
     style="fill:#000000;fill-rule:nonzero;stroke:none;stroke-width:1"
     d="m 185.88402,63.242579 c 0.0153,1.183687 0.0402,3.976221 0.26701,7.685615 0.51478,8.418606 1.93622,20.157887 5.16063,34.284146 1.33973,5.86938 2.73085,11.0185 3.94722,15.20904 0.51685,1.78064 0.99297,3.35667 1.40364,4.69285 0.57871,1.88294 1.06726,3.40529 1.41417,4.48637 0.0147,0.0458 0.0285,0.0919 0.0446,0.13721 5.01829,14.10872 10.37486,23.10325 16.33289,28.25593 2.74722,2.37586 5.57612,3.89964 8.50514,4.79425 2.7077,0.82701 5.31445,1.06312 7.83281,1.10286 0.0227,3.6e-4 0.0454,8e-4 0.0682,7.2e-4 1.3207,-0.005 2.62166,-0.10187 3.90103,-0.28909 4.05711,-0.59368 8.01836,-2.11348 11.76989,-4.62795 4.19626,-2.81255 7.89293,-6.71407 10.98086,-11.34318 2.80124,-4.19932 5.01472,-8.87476 6.5252,-13.45674 1.4155,-4.29389 2.21211,-8.51373 2.20281,-11.93403 0.46774,-11.65789 -0.0286,-19.68358 -0.94808,-26.419681 -0.96461,-7.066443 -2.32652,-12.526007 -3.41217,-18.410767 -0.001,-0.008 -0.003,-0.01594 -0.004,-0.02389 -2.02941,-10.3855 -3.63284,-18.97049 -4.29672,-23.468873 -0.59947,-4.061879 -0.48136,-5.805885 -0.79182,-7.939175 -0.21231,-1.458785 -0.58515,-3.047135 -0.70218,-3.656562 a 3.2861025,3.2861025 90 0 0 -6.45428,1.239428 c 0.11703,0.609427 0.35904,2.222902 0.70218,3.656563 0.5018,2.096548 1.25749,3.672755 2.20521,7.667758 1.04891,4.421579 2.73801,12.981961 4.69824,23.371736 1.02607,5.752507 2.37859,11.77788 3.16023,18.196758 0.78381,6.436591 1.16042,14.189661 0.58154,25.617881 -0.002,0.0362 -0.002,0.0724 -0.003,0.10862 -0.042,2.69113 -0.74282,6.32798 -2.09733,10.25646 -1.42432,4.13095 -3.47779,8.3259 -6.02481,12.04952 -2.8082,4.10545 -6.03785,7.38764 -9.51913,9.67056 -3.08906,2.02571 -6.24677,3.18455 -9.40704,3.62597 -0.98895,0.13814 -1.99757,0.20859 -3.02624,0.2083 -2.21284,-0.0662 -4.20359,-0.29465 -6.1695,-0.91679 -2.09766,-0.66384 -4.18033,-1.78583 -6.29767,-3.64794 -4.71973,-4.15079 -9.56059,-11.9569 -14.30692,-25.68691 -0.3101,-1.10763 -0.73773,-2.60028 -1.24363,-4.43821 -0.36299,-1.31873 -0.78106,-2.87613 -1.23103,-4.62909 -1.05805,-4.1218 -2.26031,-9.1984 -3.39341,-14.93939 -2.76808,-14.024806 -3.75571,-24.995005 -4.17209,-33.248345 -0.17773,-3.523014 -0.24112,-6.246751 -0.25527,-7.344394 a 3.973827,3.973827 90 0 0 -7.947,0.102458 z"
     id="path5828"
     inkscape:path-effect="#path-effect6398"
     inkscape:original-d="m 189.85752,63.19135 c 0.39,30.25 9,58 11.25,65.5 10.25,29.25 20.73,32.05 29.75,32.25 21.25,-0.02 32.7,-26.75 32.75,-38.75 1.05,-23.09 -1.73572,-31.600571 -4.05,-44.36 l -6.7,-34.89"
     inkscape:connector-curvature="0"
     sodipodi:nodetypes="cccccc" />
  <path
     style="fill:#000000;fill-rule:nonzero;stroke:none;stroke-width:1"
     d="m 396.38965,38.915004 c -0.0329,-0.03156 -0.11621,-0.117421 -0.2738,-0.257774 -0.9025,-0.803778 -4.03282,-3.254568 -9.53967,-4.812559 -3.20688,-0.907285 -6.57296,-1.325618 -9.35433,-1.181315 -0.009,4.55e-4 -0.0176,4.71e-4 -0.0264,1.41e-4 -0.009,-3.29e-4 -0.0176,-4.28e-4 -0.0264,-1.03e-4 -1.51702,0.05606 -3.28848,0.246648 -5.17006,0.528956 -1.95994,0.294066 -4.07174,0.69247 -6.21854,1.163149 -4.87296,1.068377 -9.64897,2.442925 -13.72815,3.858123 -4.71069,1.634287 -7.97271,3.132511 -10.2452,4.298981 -0.6794,0.348738 -1.30511,0.684792 -1.87975,1.007819 -1.94415,1.092883 -3.45069,2.117161 -4.56549,3.129951 -0.69898,0.635021 -1.30126,1.316278 -1.76873,2.068558 -0.50837,0.818104 -0.87325,1.748609 -0.98434,2.77409 -0.0198,0.182644 -0.0288,0.367167 -0.008,0.549726 0.0206,0.18256 0.0609,0.36222 0.0977,0.542222 0.0236,0.11569 0.048,0.230968 0.0731,0.345895 0.49193,2.246959 1.15238,4.041107 2.15861,6.531153 1.44374,3.572706 3.64262,7.752494 7.51387,12.63805 3.88515,4.903085 8.94758,9.801527 13.8956,15.448131 0.027,0.03077 0.0534,0.06202 0.0818,0.09146 2.30467,2.387986 4.6226,4.617831 6.57258,6.488193 3.60149,3.454422 6.65623,6.390973 9.15344,9.232423 2.0189,2.2972 3.52498,4.37375 4.4428,6.28137 0.88209,1.83336 1.14405,3.34662 0.96126,4.71425 -0.006,0.0472 -0.0105,0.0948 -0.0111,0.14246 -6.2e-4,0.0477 -1.9e-4,0.0953 -0.001,0.143 -0.0476,2.05266 -0.65114,4.4407 -1.88829,7.13189 -0.36548,0.79502 -0.78858,1.62091 -1.27322,2.47528 -1.87842,3.31147 -4.58353,6.87123 -7.95996,10.33637 -3.10202,3.18351 -6.56853,6.07338 -9.92561,8.27426 -1.64045,1.07546 -3.20919,1.95607 -4.64918,2.61596 -1.45993,0.66903 -2.71929,1.07999 -3.75498,1.26815 l 0.31238,-0.017 c -0.64859,0.12288 -1.25489,0.0897 -1.9383,-0.17726 -0.7998,-0.31236 -1.61573,-0.91458 -2.42161,-1.69682 -0.54832,-0.53224 -1.06937,-1.12646 -1.52177,-1.69312 -1.75396,-2.19692 -3.49072,-4.99586 -4.33472,-6.18654 a 1.5888425,1.5888425 90 0 0 -2.59244,1.83764 c 0.825,1.16387 2.66606,3.77831 4.37649,6.24409 0.42591,0.61399 0.94743,1.3698 1.47452,2.06625 0.7557,0.99852 1.70465,2.12825 2.88933,2.99318 1.08677,0.79344 2.40323,1.39103 4.02326,1.54274 0.0521,0.005 0.10452,0.006 0.15649,-7e-5 0.052,-0.006 0.10377,-0.0128 0.15589,-0.0169 1.62911,-0.12879 3.38786,-0.57537 5.19592,-1.25146 1.80169,-0.67371 3.6898,-1.58947 5.59711,-2.6913 3.89137,-2.24799 7.85519,-5.26445 11.3847,-8.62386 3.83535,-3.65052 7.04671,-7.59308 9.3266,-11.47426 0.59302,-1.00953 1.12042,-2.01 1.58112,-2.99823 1.5346,-3.29185 2.4216,-6.65271 2.38396,-9.90895 0.1359,-2.99344 -0.87728,-5.65899 -2.2932,-7.97015 -1.48684,-2.4269 -3.58744,-4.73741 -5.86149,-6.985872 -2.83923,-2.807292 -6.14395,-5.707775 -9.65336,-9.080697 -1.92107,-1.846351 -4.08343,-3.998903 -6.23112,-6.341976 -5.26328,-6.362222 -9.3075,-10.672903 -12.82485,-15.790337 -3.17945,-4.625801 -4.79677,-8.39873 -5.89444,-11.51077 -0.54718,-1.551312 -1.29815,-4.498387 -1.65699,-5.791851 -0.0279,-0.100454 -0.056,-0.201092 -0.0845,-0.301996 l 0.0894,1.091948 c -0.0343,-0.0076 -0.11122,-0.08717 -0.10193,-0.331098 0.008,-0.219186 0.0903,-0.55494 0.33241,-0.993836 0.39183,-0.710157 1.19801,-1.677833 2.73359,-2.780951 0.4454,-0.319961 0.95266,-0.651645 1.52935,-0.991708 1.906,-1.123923 4.94716,-2.564157 9.41596,-4.069438 3.88392,-1.308267 8.51006,-2.544934 13.18068,-3.431609 2.05982,-0.39104 4.05846,-0.699588 5.87873,-0.899987 1.76351,-0.19415 3.30994,-0.280992 4.53095,-0.251746 l -0.0527,3.8e-5 c 2.07734,0.194619 4.71267,0.850908 7.21317,1.921185 4.15875,1.780046 5.96654,3.832534 6.39474,4.252498 0.0984,0.09653 0.13731,0.128777 0.16429,0.154669 a 3.9312656,3.9312656 90 0 0 5.44426,-5.672692 z"
     id="path5826"
     inkscape:path-effect="#path-effect6400"
     inkscape:original-d="m 393.66752,41.75135 c -4.47,-4.29 -11.87,-6.25 -16.47,-6.29 -10.84,0.11 -40.42614,7.971426 -41.03,16.29 3.762,15.656287 12.06,22.44 22.06,34.19 11.33,12.05 23.36571,20.00057 22.61,28.7 0,14.37 -21.73,33.28 -32.46,34.55 -4.36,-0.04 -6.84,-4.74 -11.49,-11.3"
     inkscape:connector-curvature="0"
     sodipodi:nodetypes="ccccccc" />
  <path
     style="fill:#000000;fill-rule:nonzero;stroke:none;stroke-width:1"
     d="m 452.51646,17.545422 c 0.35074,-0.735143 1.36189,-3.376244 2.10444,-4.410858 0.56272,-0.784047 1.11644,-1.187619 1.75893,-1.601541 0.40075,-0.258188 0.81247,-0.512063 1.27023,-0.645191 0.45776,-0.133128 0.95523,-0.139362 1.40851,0.0083 0.45328,0.147671 0.85049,0.443017 1.15761,0.807631 0.30712,0.364614 0.52706,0.793058 0.74078,1.219193 1.83946,3.667634 4.17073,9.008677 6.89559,15.965592 2.83087,7.227597 8.48698,22.439933 11.71561,44.975762 0.007,0.04809 0.0126,0.09635 0.0171,0.144727 1.02498,11.02189 1.26833,18.974976 1.21994,26.881464 -0.0386,6.30819 -0.29601,13.43823 -0.43783,17.30691 -0.21195,5.78183 -0.39423,10.60924 -0.48003,13.00972 a 2.9617007,2.9617007 90 0 1 -5.91962,-0.21158 c 0.10726,-3.00101 0.3729,-10.01249 0.48017,-13.0135 0.13915,-3.85481 0.40419,-10.95975 0.45169,-17.1323 0.0593,-7.702663 -0.16309,-15.449893 -1.16303,-26.223407 -3.14479,-21.895731 -8.6492,-36.569886 -11.47892,-43.500791 -2.535,-6.209025 -5.6524,-12.149634 -7.17954,-15.305822 l 4.57713,1.389937 c -0.67989,0.349084 -1.3064,0.626495 -2.26682,0.721286 -1.26735,0.125084 -4.05994,-0.321284 -4.87193,-0.385541 z"
     id="path5824"
     inkscape:path-effect="#path-effect6402"
     inkscape:original-d="m 452.51646,17.545422 5.50106,-3.174072 c 6.45,13.09 14.56428,31.463418 18.64,59.91 1.91629,20.603432 1.18,31.36 0.27,56.82"
     inkscape:connector-curvature="0"
     sodipodi:nodetypes="cccc" />
  <path
     style="fill:#000000;fill-rule:nonzero;stroke:none;stroke-width:1"
     d="m 651.95057,2.4324211 c 0,0 0.0643,0.013389 0,0 -0.55978,-0.1166363 -1.79222,-0.3066246 -3.55987,-0.5950694 -1.25149,-0.204217 -2.68543,-0.4425856 -4.32558,-0.7221126 0.002,3.794e-4 -0.47873,-0.081766 -0.47651,-0.081386 -1.16466,-0.19935828 -2.58284,-0.44194498 -3.95288,-0.63801527 -1.29054,-0.18469276 -2.71976,-0.35528944 -3.95551,-0.39497816955 -0.041,-0.001315715 -0.082,-8.31363436e-4 -0.12295,-4.3244956e-4 C 632.29662,0.03216291 626.5213,-0.06797423 619.98283,1.0332891 c -6.34527,1.0687254 -13.79654,3.2941153 -21.81891,8.0071584 -0.0971,0.057021 -0.19032,0.120191 -0.28147,0.1862579 -2.73759,1.9844226 -5.81527,4.7434326 -8.87061,8.0237906 -2.76873,2.97264 -5.50901,6.361614 -8.00203,10.022796 -0.35088,0.515283 -0.70096,1.042085 -1.04904,1.579964 -5.0013,7.728399 -10.07984,18.527753 -10.03123,30.068094 5e-5,0.01237 0,0.02475 2e-4,0.03712 0.0699,4.418566 0.80317,10.021213 2.29768,15.976407 1.47572,5.880356 3.70351,12.138156 6.78954,17.890425 3.12106,5.817575 7.12196,11.121687 12.11929,15.003867 5.2456,4.07504 11.4067,6.43766 18.42127,6.41981 0.007,-2e-5 0.0149,-1e-5 0.0223,-8e-5 13.15749,-0.13397 24.22061,-3.75961 34.44514,-8.30374 8.37396,-3.72168 17.19105,-8.610078 22.6979,-11.650743 9.14946,-5.051966 16.01881,-8.725324 19.56751,-10.714272 0.50333,-0.2821 0,0 0,0 a 4.1520113,4.1520113 90 0 0 -4.29264,-7.108442 c 0,0 0.48321,-0.313652 0,0 -2.49882,1.621975 -10.64485,7.180839 -18.63538,12.001484 -5.45524,3.291112 -13.77514,8.084445 -21.89828,11.761423 -9.76329,4.41941 -19.94748,7.67071 -31.90766,7.71911 -5.48412,-0.0178 -10.27197,-1.87377 -14.4586,-5.18394 -4.06234,-3.211895 -7.491,-7.746561 -10.26727,-13.032383 -2.7368,-5.210669 -4.73578,-10.955427 -6.05327,-16.41582 -1.33395,-5.528638 -1.9303,-10.598416 -1.95183,-14.404493 0.0505,-9.60713 4.39648,-19.014036 9.06379,-26.22764 0.31795,-0.491416 0.63784,-0.973442 0.95857,-1.445643 2.28304,-3.361296 4.78892,-6.484792 7.31162,-9.227223 2.75095,-2.990579 5.43169,-5.42889 7.69502,-7.132091 7.10279,-4.236465 13.66318,-6.2914625 19.27772,-7.3300737 5.88371,-1.0884034 11.07166,-1.098296 14.49283,-1.1714353 0.83374,0.014151 1.92279,0.1312675 3.0699,0.3107613 1.23874,0.1938304 2.49367,0.4513076 3.58782,0.715537 0.14646,0.035369 0.29226,0.071465 0.43717,0.1081866 1.48259,0.3756781 2.82868,0.804681 3.9038,1.1960122 1.6167,0.5884654 2.45448,1.0252609 2.88075,1.2368056 0.044,0.021836 0,0 0,0 a 3.9528997,3.9528997 90 0 0 2.4461,-7.5178596 z"
     id="music"
     inkscape:path-effect="#path-effect6404"
     inkscape:original-d="m 650.72752,6.1913509 c -3.35,-1.09 -11.17,-2.91 -15.12,-3 -7.62,0.12 -20.62,-0.12 -35.68,8.8199991 -9.94,7.3 -26.55,27.09 -26.55,46.91 0.18,16.72 10.55,52.18 36.18,52.18 22.55,-0.16 41.08657,-10.84543 74.58657,-31.075426"
     inkscape:connector-curvature="0"
     sodipodi:nodetypes="cccccc" />
</svg>
