<?xml version="1.0" encoding="UTF-8" standalone="no"?>
<svg
   xmlns:dc="http://purl.org/dc/elements/1.1/"
   xmlns:cc="http://creativecommons.org/ns#"
   xmlns:rdf="http://www.w3.org/1999/02/22-rdf-syntax-ns#"
   xmlns:svg="http://www.w3.org/2000/svg"
   xmlns="http://www.w3.org/2000/svg"
   xmlns:sodipodi="http://sodipodi.sourceforge.net/DTD/sodipodi-0.dtd"
   xmlns:inkscape="http://www.inkscape.org/namespaces/inkscape"
   width="11.612274in"
   height="3.3036656in"
   viewBox="0 0 836.08494 237.86414"
   version="1.1"
   id="svg"
   sodipodi:docname="videos-path.svg"
   inkscape:version="0.92.3 (2405546, 2018-03-11)">
  <style
     id="style837">svg{cursor: pointer;-webkit-touch-callout: none;-webkit-user-select: none;-khtml-user-select: none;-moz-user-select: none;-ms-user-select: none;user-select: none;cursor: url("/content/selectcursor.gif"), auto;}</style>
  <metadata
     id="metadata4530">
    <rdf:RDF>
      <cc:Work
         rdf:about="">
        <dc:format>image/svg+xml</dc:format>
        <dc:type
           rdf:resource="http://purl.org/dc/dcmitype/StillImage" />
      </cc:Work>
    </rdf:RDF>
  </metadata>
  <defs
     id="defs4528">
    <inkscape:path-effect
       effect="powerstroke"
       id="path-effect4581"
       is_visible="true"
       offset_points="0.1489585,1.2214356 | 1.0744285,2.3172134 | 2.0939789,2.7919941 | 2.6017434,2.9323066"
       sort_points="true"
       interpolator_type="CentripetalCatmullRom"
       interpolator_beta="0.5"
       start_linecap_type="round"
       linejoin_type="spiro"
       miter_limit="100"
       end_linecap_type="round" />
    <inkscape:path-effect
       effect="powerstroke"
       id="path-effect4579"
       is_visible="true"
       offset_points="0.0015459818,2.9111945 | 0.35088273,2.4271046 | 0.74102045,3.0408678 | 3.5260375,2.9329979 | 2.7915353,2.6417139 | 6.1680696,2.3983385"
       sort_points="true"
       interpolator_type="CentripetalCatmullRom"
       interpolator_beta="0.5"
       start_linecap_type="round"
       linejoin_type="spiro"
       miter_limit="100"
       end_linecap_type="round" />
    <inkscape:path-effect
       effect="powerstroke"
       id="path-effect4577"
       is_visible="true"
       offset_points="0.11126152,3.3859347 | 0.9903892,2.4875118 | 1.8190943,0.82684517 | 1.9789824,0.91097335"
       sort_points="true"
       interpolator_type="CentripetalCatmullRom"
       interpolator_beta="0.5"
       start_linecap_type="round"
       linejoin_type="spiro"
       miter_limit="100"
       end_linecap_type="round" />
    <inkscape:path-effect
       effect="powerstroke"
       id="path-effect4575"
       is_visible="true"
       offset_points="0.1688001,3.2461523 | 0.97218753,2.4653746 | 1.7608468,1.1753076 | 2,0.4208468"
       sort_points="true"
       interpolator_type="CentripetalCatmullRom"
       interpolator_beta="0.5"
       start_linecap_type="round"
       linejoin_type="spiro"
       miter_limit="100.1"
       end_linecap_type="round" />
    <inkscape:path-effect
       effect="powerstroke"
       id="path-effect4573"
       is_visible="true"
       offset_points="0.23521904,1.3301371 | 0.87571374,3.2113389 | 1.06822,3.4459102 | 1.3057392,2.6509166 | 2.7048956,3.1123243 | 2.9950758,3.261014 | 3.4332082,2.5232415"
       sort_points="true"
       interpolator_type="CentripetalCatmullRom"
       interpolator_beta="0.5"
       start_linecap_type="zerowidth"
       linejoin_type="spiro"
       miter_limit="100"
       end_linecap_type="round" />
    <inkscape:path-effect
       effect="powerstroke"
       id="path-effect4571"
       is_visible="true"
       offset_points="0,3.4206527 | 0.39155403,3.002265 | 1.9548249,3.1905338 | 2.0295462,3.5514906 | 2.875556,2.9882285 | 4.215796,3.2134538 | 5.4489733,2.6732033 | 6.9973398,0.65546402 | 6.3895625,2.6605477"
       sort_points="true"
       interpolator_type="CentripetalCatmullRom"
       interpolator_beta="0.5"
       start_linecap_type="round"
       linejoin_type="spiro"
       miter_limit="100"
       end_linecap_type="round" />
    <inkscape:path-effect
       effect="powerstroke"
       id="path-effect4550"
       is_visible="true"
       offset_points="0.0041126881,4.2278045 | 0.11506393,3.5544855 | 1.3949429,3.5317983 | 2.8800958,0.56852145 | 2.3018653,2.8832946"
       sort_points="true"
       interpolator_type="CentripetalCatmullRom"
       interpolator_beta="0.5"
       start_linecap_type="round"
       linejoin_type="spiro"
       miter_limit="100"
       end_linecap_type="zerowidth" />
    <inkscape:path-effect
       effect="powerstroke"
       id="path-effect4548"
       is_visible="true"
       offset_points="0,4.0444729 | 0.16087115,3.0939176 | 1.9207876,3.1546189 | 2.0919244,3.0896784 | 4.5103945,2.2584965 | 5,0.59241795"
       sort_points="true"
       interpolator_type="CentripetalCatmullRom"
       interpolator_beta="0.5"
       start_linecap_type="round"
       linejoin_type="spiro"
       miter_limit="100"
       end_linecap_type="round" />
  </defs>
  <sodipodi:namedview
     pagecolor="#ffffff"
     bordercolor="#666666"
     borderopacity="1"
     objecttolerance="10"
     gridtolerance="10"
     guidetolerance="10"
     inkscape:pageopacity="0"
     inkscape:pageshadow="2"
     inkscape:window-width="2560"
     inkscape:window-height="1346"
     id="namedview4526"
     showgrid="false"
     inkscape:zoom="0.90986835"
     inkscape:cx="405.82686"
     inkscape:cy="333.95057"
     inkscape:window-x="-11"
     inkscape:window-y="-11"
     inkscape:window-maximized="1"
     inkscape:current-layer="svg4524" />
  <path
     style="fill:#000000;fill-rule:nonzero;stroke:#000000;stroke-width:0.75000089;stroke-miterlimit:4;stroke-dasharray:none;stroke-opacity:1"
     d="m 0.8491261,102.57272 c 0,0 -0.1443441,-0.23765 0,0 0.8962829,1.47564 3.0592758,4.56483 5.8363016,9.7221 2.1128978,3.92391 6.3699393,12.4058 11.0576503,22.69556 4.821573,10.5836 10.260796,23.43247 14.736351,36.53581 4.502112,13.17872 7.465491,25.8114 9.374084,35.90291 2.229674,11.78919 3.085264,20.50344 3.371844,23.29861 0.144978,1.41404 0.26884,2.77818 0.307603,3.20582 0.06402,0.70625 0.144567,1.42766 0.455384,2.06505 0.155409,0.3187 0.365346,0.6122 0.627063,0.85141 0.261717,0.23922 0.574754,0.42282 0.912967,0.52927 0.338213,0.10646 0.700121,0.13524 1.051489,0.0877 0.351368,-0.0476 0.69092,-0.17067 0.998397,-0.34724 0.614956,-0.35315 1.079404,-0.9129 1.51872,-1.46957 0.595386,-0.75444 1.776699,-2.28177 3.123146,-4.23654 2.820948,-4.09543 6.237844,-9.77731 9.324891,-17.96684 2.312548,-6.13489 3.988501,-12.81813 5.793395,-18.47294 0.0031,-0.01 0.0063,-0.0197 0.0094,-0.0295 6.104936,-19.67519 11.363557,-36.25005 17.334719,-51.47235 6.279528,-16.00841 13.023227,-29.66899 21.582748,-43.6971 0.0287,-0.04702 0.0575,-0.09404 0.0825,-0.143109 2.69556,-5.28618 3.66422,-7.163052 5.30362,-9.643203 0.0357,-0.05402 0.0708,-0.106944 0.10544,-0.158823 0.8912,-1.336852 1.66494,-2.350431 2.43701,-3.147386 1.23285,-1.272602 2.39757,-1.888242 3.31691,-2.130596 0.0765,-0.02018 0,0 0,0 a 0.59241795,0.59241795 90 0 0 -0.0719,-1.182656 c 0,0 0.0899,0.01007 0,0 -0.98441,-0.110248 -2.75396,-0.289862 -4.95621,0.624717 -1.39574,0.57964 -2.81863,1.538429 -4.20753,2.958224 -0.0535,0.05467 -0.10745,0.110579 -0.1619,0.167754 -2.10219,2.207406 -3.87699,5.073727 -6.54593,9.793496 -8.866649,14.211232 -15.866093,28.141952 -22.335194,44.405582 -6.133096,15.41889 -11.496751,32.17864 -17.62434,51.81862 -1.951714,5.99674 -3.568602,12.40364 -5.753193,18.15658 -2.888483,7.60659 -6.07773,12.88192 -8.700486,16.58127 -1.275716,1.79937 -2.367422,3.15273 -2.941476,3.85535 l 5.564019,1.7166 c -0.04084,-0.62165 -0.117474,-1.70128 -0.2724,-3.33815 C 51.218189,227.08726 50.241047,218.37796 47.791047,206.2667 45.713671,195.99746 42.540794,183.12706 37.830215,169.67486 33.166326,156.36684 27.606136,143.39759 22.803054,132.70173 18.03005,122.07285 14.166435,113.96051 12.247911,109.58408 9.8022644,104.00521 8.8063393,100.7943 8.1004319,98.988082 c -0.1014189,-0.259502 0,0 0,0 a 4.0444729,4.0444729 90 0 0 -7.2513058,3.584638 z"
     id="path4546"
     inkscape:path-effect="#path-effect4548"
     inkscape:original-d="m 4.474779,100.7804 c 10.050001,20.33 22.240001,45.43 30.680001,69.82 8.78,25.38 12.5,50.25 13.5,63.09 11.82,-14.73 14.36,-28.91 17.82,-39.64 12.43,-39.95 21.04,-65.89 39.44999,-95.719995 3.91,-7.28 7.46,-14 13.55,-14.37"
     inkscape:connector-curvature="0" />
  <path
     style="fill:#000000;fill-rule:nonzero;stroke:#000000;stroke-width:0.75000089;stroke-miterlimit:4;stroke-dasharray:none;stroke-opacity:1"
     d="m 198.44807,86.589987 c 0.0164,0.04359 0.0372,0.118374 0.0984,0.261348 0.3193,0.746102 1.75395,3.216953 3.19962,6.68516 1.67509,4.018594 5.11162,13.206265 7.47394,23.980105 2.3109,10.53934 3.83328,23.21534 3.69046,40.79849 -0.10608,5.59462 -0.0585,11.47292 0.0139,15.88754 0.14596,8.90251 0.10139,17.251 -0.31626,27.20791 -0.001,0.0248 -0.003,0.0495 -0.003,0.0744 -0.013,1.31747 0.13815,2.50676 0.45185,3.56555 0.32761,1.10572 0.83016,2.05849 1.48482,2.8333 0.27831,0.32938 0.57881,0.62018 0.89587,0.87256 0.44791,0.35654 0.93103,0.63536 1.4322,0.83907 0.84963,0.34533 1.70282,0.45632 2.48552,0.41954 1.68023,-0.0789 3.03334,-0.82175 3.87086,-1.4852 0.57548,-0.45588 0.96112,-0.909 1.216,-1.25905 0.013,-0.0179 0.0257,-0.0356 0.0381,-0.0529 0.42139,-0.59129 0.5051,-1.05411 0.53486,-1.25732 -0.20586,0.0932 -0.58337,0.21661 -1.17831,0.31986 -0.0173,0.003 -0.035,0.006 -0.0529,0.009 -0.34989,0.056 -0.82817,0.0866 -1.37049,0.0446 -0.84898,-0.0657 -1.75411,-0.30564 -2.352,-0.77249 -0.26515,-0.20703 -0.41684,-0.41828 -0.50237,-0.61586 -0.0493,-0.11389 -0.0756,-0.21994 -0.0981,-0.32011 -0.0146,-0.0652 -0.0318,-0.15206 -0.0471,-0.22781 -0.028,-0.13896 -0.10529,-0.49432 -0.14944,-0.87261 -0.0482,-0.41342 -0.0804,-0.99857 -0.0192,-1.80894 l -0.003,0.0744 c 0.72957,-10.0974 0.7332,-18.74648 0.74627,-27.64021 0.008,-5.35311 -0.0965,-10.40972 -0.0887,-15.76283 1e-5,-0.007 1.4e-4,-0.0132 1.5e-4,-0.0198 0.0292,-18.07507 -1.70096,-31.23389 -4.18434,-42.29247 -2.40873,-10.72616 -6.13955,-21.297809 -7.28766,-24.967288 -1.14153,-3.64846 -1.71365,-6.45863 -1.9669,-7.234146 -0.0485,-0.148549 -0.0824,-0.218931 -0.0989,-0.262653 a 4.2278045,4.2278045 90 0 0 -7.9134,2.979164 z"
     id="path4544"
     inkscape:path-effect="#path-effect4550"
     inkscape:original-d="m 202.40477,85.100405 c 8,21.249995 14.16713,38.854275 14,73.249995 -0.14001,13.28713 0.5,26.13 -0.48,43.25 -0.29143,8.37714 7.35,6.67 9.09,4.36"
     inkscape:connector-curvature="0"
     sodipodi:nodetypes="cccc" />
  <path
     style="fill:#000000;fill-rule:nonzero;stroke:#000000;stroke-width:0.75000089;stroke-miterlimit:4;stroke-dasharray:none;stroke-opacity:1"
     d="m 323.88525,77.810894 c 0,0 -0.0248,-0.136671 0,0 0.15014,0.828392 1.25327,5.88889 1.69313,10.80554 0.0896,1.001646 0.18335,2.258936 0.25035,3.723352 0.2159,4.71921 0.20575,12.295744 -1.50481,23.056944 -1.67377,10.52816 -4.18482,26.40832 -7.00605,42.91218 -1.90233,11.12837 -3.60205,20.52122 -5.0985,28.22429 -1.46432,7.53768 -2.5452,12.47594 -3.1989,15.16612 -0.47792,1.96682 -0.72986,2.62909 -0.98543,3.43205 -0.16426,0.51611 -0.31256,1.05072 -0.27135,1.59077 0.0412,0.54005 0.27291,1.06323 0.64638,1.4555 0.37347,0.39227 0.87026,0.65023 1.38751,0.81089 0.51724,0.16066 1.05669,0.23496 1.59278,0.31215 0.30826,0.0444 0.75485,0.0861 1.44126,0.0553 1.17165,-0.0526 2.82879,-0.28982 5.02727,-0.92835 2.0273,-0.58881 4.51583,-1.51948 7.46761,-2.9406 4.77024,-2.2966 10.7191,-5.86712 17.25394,-10.97727 9.33928,-7.30318 18.69046,-16.8275 26.54493,-28.1522 2.57171,-3.70795 5.07502,-7.74983 7.39033,-12.11884 3.54964,-5.94423 7.86387,-13.13251 11.09237,-19.98064 1.5767,-3.3444 2.94577,-6.7051 3.92579,-9.98843 0.98576,-3.30252 1.58605,-6.55288 1.6024,-9.66336 2.1e-4,-0.0401 -7.9e-4,-0.0801 -0.002,-0.12018 -0.0356,-1.15102 -0.37687,-2.20648 -0.81236,-3.11062 -0.32615,-0.67712 -0.72871,-1.31862 -1.16572,-1.9173 -0.16746,-0.22942 -0.34269,-0.45634 -0.52443,-0.68061 -1.30229,-1.60696 -3.0376,-3.1965 -4.91839,-4.70856 -3.78951,-3.04657 -8.59748,-6.110938 -12.61243,-8.620945 -3.98671,-2.494602 -7.40971,-4.509092 -10.60435,-6.055658 -0.37476,-0.181425 -0.74646,-0.357491 -1.11548,-0.527744 -3.72322,-1.717786 -7.18149,-2.844211 -10.70787,-2.917577 l 0.0631,0.0011 c -1.86552,-0.08045 -3.82543,0.108305 -5.71112,0.674925 -1.11465,0.334933 -2.18723,0.797236 -3.18289,1.397468 -0.75405,0.454572 -1.52849,1.035612 -2.26839,1.757029 -1.62103,1.580544 -2.81851,3.577303 -3.53924,5.912921 -1.15521,3.74361 -0.76929,7.540727 -0.7621,8.150627 7.4e-4,0.0629 -0.003,0.0839 -0.003,0.10072 a 0.65546402,0.65546402 90 0 0 1.3104,0.0371 c 4.4e-4,-0.0153 -0.002,-0.037 0.003,-0.0962 0.0544,-0.70115 0.57368,-4.11875 2.3726,-6.875602 1.07189,-1.642661 2.33568,-2.710636 3.62514,-3.448951 0.5945,-0.340402 1.17383,-0.599501 1.70837,-0.812419 0.70594,-0.281188 1.44591,-0.512962 2.21723,-0.692458 1.31197,-0.305315 2.69201,-0.453336 4.067,-0.4407 0.0211,1.93e-4 0.0421,0.0014 0.0631,0.0011 2.44886,-0.03406 5.18563,0.538452 8.49963,2.087422 0.32474,0.151787 0.65356,0.312285 0.98661,0.481624 2.86504,1.45673 6.00433,3.463374 9.84666,6.07036 3.94705,2.68225 8.36535,5.74392 11.75105,8.63933 1.68656,1.44233 3.01022,2.75347 3.89837,3.88964 0.11853,0.15163 0.22706,0.29732 0.326,0.43704 0.26359,0.37226 0.44976,0.68836 0.57504,0.94911 0.15058,0.31339 0.18441,0.50329 0.19356,0.54009 -0.007,2.3131 -0.42725,4.91556 -1.24039,7.79876 -0.81925,2.9048 -2.00561,5.9828 -3.4489,9.16813 -2.98936,6.59749 -7.05686,13.57653 -10.65022,19.58004 -0.0264,0.0442 -0.0517,0.0891 -0.0758,0.1346 -2.20554,4.16444 -4.60173,8.01773 -7.07593,11.55068 -7.52032,10.73843 -16.62919,19.66768 -25.61793,26.363 -6.30015,4.69271 -11.92051,7.83103 -16.26231,9.78429 -2.68016,1.20574 -4.83291,1.9451 -6.46863,2.40523 -1.74702,0.49143 -2.96172,0.67939 -3.65588,0.78646 -0.45701,0.0705 -0.63748,0.10649 -0.83809,0.16055 l 3.35532,4.1693 c 0.12269,-0.95385 0.14717,-1.47009 0.52939,-3.59183 0.85388,-4.74004 1.988,-10.64038 2.84188,-15.38043 1.42927,-7.89851 3.02666,-17.07124 4.91215,-28.36528 2.90218,-17.38393 5.13477,-31.6209 6.9677,-42.96782 1.80492,-11.17523 1.89997,-19.143359 1.75874,-24.180952 -0.0435,-1.551272 -0.11334,-2.894357 -0.17822,-3.95508 -0.20856,-3.40972 -1.00139,-12.388441 -0.90185,-11.278112 -0.012,-0.134192 0,0 0,0 a 3.4206527,3.4206527 90 0 0 -6.77904,0.920978 z"
     id="path4542"
     inkscape:path-effect="#path-effect4571"
     inkscape:original-d="m 327.27477,77.350405 c 1.0664,7.849445 3.005,19.000001 -0.12,38.499995 -3.125,19.49999 -10.25,65 -15.77,90.02 12.27,-0.02 44.77,-19.52 62.54,-53.09 7.73,-12.93 15.98,-27.18 16,-38.18 -0.16456,-4.61911 -10.26,-11.45 -18.39,-16.749995 -8.38,-5.46 -14.73,-9.03 -20.88,-9.07 -6.25,-0.18 -14.38,2.82 -14.73,15.179995"
     inkscape:connector-curvature="0"
     sodipodi:nodetypes="czcccccc" />
  <path
     style="fill:#000000;fill-rule:nonzero;stroke:#000000;stroke-width:0.75000089;stroke-miterlimit:4;stroke-dasharray:none;stroke-opacity:1"
     d="m 485.9844,77.279367 c 0.0983,-0.479184 0.22422,-1.427836 -0.38546,-2.718772 -0.026,-0.05509 -0.0537,-0.111546 -0.083,-0.16937 -0.4103,-0.808137 -1.04221,-1.684739 -1.84965,-2.703338 -0.79739,-1.005928 -1.33211,-1.63044 -1.91929,-2.430194 -0.32666,-0.444923 -0.53793,-0.771698 -0.69429,-1.035508 -0.2069,-0.349097 -0.30063,-0.639393 -0.35197,-0.758509 -0.17522,-0.406591 -0.35335,-0.813902 -0.58687,-1.190053 -0.23352,-0.37615 -0.52345,-0.720773 -0.87673,-0.987627 -0.35328,-0.266855 -0.76895,-0.453291 -1.20581,-0.525203 -0.43686,-0.07191 -0.89185,-0.02844 -1.30796,0.122785 -0.41611,0.151227 -0.79132,0.408294 -1.09421,0.731212 -0.30289,0.322917 -0.53388,0.709621 -0.69885,1.120478 -0.32994,0.821714 -0.39335,1.7222 -0.45024,2.605851 -0.0921,1.429913 -0.16375,2.794426 -0.21948,4.323287 -0.16594,4.552155 0.21992,7.345383 0,12.570482 -0.0968,2.299938 -0.29337,5.176029 -0.58374,8.451036 -0.6,6.767396 -1.25733,11.912786 -2.42308,22.927396 l 9.9e-4,-0.0101 c -0.89663,7.99295 -1.77549,14.07096 -2.34758,19.94609 -0.33158,3.40508 -0.55172,6.45103 -0.70024,9.14741 -0.16875,3.06345 -0.31595,6.11371 -0.40068,8.413 -0.091,2.47086 -0.15522,5.15095 -0.14101,8.85454 0,6e-4 0.002,0.35327 0.002,0.35388 0.001,0.21764 0.005,0.43647 0.0448,0.65042 0.04,0.21395 0.11962,0.41818 0.2069,0.61755 0.66828,1.52658 1.72954,2.77049 2.91212,3.79014 1.10836,0.95566 2.48004,1.84973 4.12471,2.70077 1.85298,0.95884 4.28882,1.98332 7.42346,2.98124 0.90146,0.28698 1.90498,0.58479 3.01525,0.88344 3.24415,0.87266 7.32699,1.72955 12.00909,2.29504 3.72547,0.44994 7.75249,0.70151 11.53681,0.58815 5.57259,9.9e-4 11.91085,-0.16922 17.94763,-1.41457 5.89717,-1.21654 11.50188,-3.443 16.51658,-7.44262 0.0715,-0.057 0.13766,-0.12026 0.2036,-0.18361 0.63806,-0.61298 1.16897,-1.28681 1.57023,-1.98194 0.59007,-1.02223 0.81085,-1.93517 0.86997,-2.59735 a 2.5232415,2.5232415 90 0 0 -5.02648,-0.4488 c -0.006,0.0676 -0.009,0.31482 -0.18253,0.70265 -0.11907,0.26591 -0.30825,0.57558 -0.57869,0.89107 -4.23929,3.38796 -9.04578,5.35833 -14.3284,6.46826 -5.54649,1.16536 -11.49098,1.34398 -17.02129,1.31794 -0.0243,-1.1e-4 -0.0487,3.1e-4 -0.073,9.6e-4 -3.50332,0.0933 -7.29423,-0.16185 -10.84128,-0.625 -4.43443,-0.57902 -8.26835,-1.44715 -11.2559,-2.33528 -1.02079,-0.30346 -1.93393,-0.60619 -2.74357,-0.8984 -2.83563,-1.02342 -4.83645,-2.08551 -6.23522,-3.02099 -1.24088,-0.82988 -2.09091,-1.61479 -2.6717,-2.2913 -0.6309,-0.73487 -0.97434,-1.37554 -1.15897,-1.89122 l 0.2517,1.26797 c -2e-5,0.001 0.005,-0.35128 0.005,-0.35015 0.055,-4.37165 0.0583,-5.59901 0.0796,-8.7411 0.0162,-2.38139 0.0401,-5.14904 0.15805,-8.26525 0.10059,-2.65841 0.23312,-5.599 0.45258,-8.94967 0.45368,-6.9264 0.91067,-10.74226 1.71742,-19.8989 2.9e-4,-0.003 7e-4,-0.007 9.9e-4,-0.0101 0.72578,-8.37742 1.72712,-18.767436 2.12442,-22.980096 0.29579,-3.136413 0.59838,-6.372127 0.8275,-8.518527 0.56098,-5.255421 1.26784,-8.011161 1.59464,-12.59322 0.10897,-1.527912 0.17845,-2.925074 0.22714,-4.355946 l -6.22067,1.877443 c 0.33882,0.400172 0.7747,0.762167 1.33901,1.183141 0.39182,0.292291 0.86782,0.605496 1.44478,0.941675 0.90776,0.528919 1.9362,1.038991 2.94136,1.508861 1.01708,0.475439 2.11165,0.956931 2.69547,1.191253 0.0505,0.02027 0.0995,0.03966 0.14687,0.05811 0.97152,0.378307 1.93883,0.636344 2.26807,0.839192 z"
     id="path4540"
     inkscape:path-effect="#path-effect4573"
     inkscape:original-d="m 485.9844,77.279367 c -1.06927,-2.472873 -6.14893,-5.177522 -8.05963,-7.768962 -1.09,22.18 -2.18,29.45 -4,48.359995 -1.51,15.09 -2.91,22.55 -3,46.46 3.35,8.02 24.37,12.54 37.98,12.15 12.02,0.03 23.66,-0.88 33,-8.38 0.87,-0.88 1.53,-2 1.63,-3.12"
     inkscape:connector-curvature="0"
     sodipodi:nodetypes="ccccccc" />
  <path
     style="fill:#000000;fill-rule:nonzero;stroke:#000000;stroke-width:0.75000089;stroke-miterlimit:4;stroke-dasharray:none;stroke-opacity:1"
     d="m 475.16591,138.37042 c 0.56915,-0.28385 1.94057,-0.92794 3.73164,-1.7042 3.34145,-1.44822 6.80709,-2.73618 15.44295,-5.32642 8.89631,-2.66835 18.67079,-5.4678 33.09391,-10.46693 -0.002,8.3e-4 0.87919,-0.30559 0.8768,-0.30476 0.004,-0.001 0.008,-0.003 0.0125,-0.004 0.004,-0.001 0.008,-0.003 0.0123,-0.005 2.46492,-1.10993 4.87951,-2.6985 6.61861,-4.24294 1.00242,-0.89022 1.63962,-1.63486 2.07984,-2.23063 0.1604,-0.21708 0.28665,-0.40303 0.39512,-0.56248 0.10621,-0.15612 0.20305,-0.29626 0.28986,-0.42605 0.24015,-0.35906 0.39449,-0.63362 0.43872,-0.84896 0.0198,-0.0965 0.023,-0.17131 0.0254,-0.20453 a 0.91097335,0.91097335 90 0 0 -1.81748,-0.12754 c -8e-5,0.001 -0.003,0.003 -0.002,0.0141 7.3e-4,0.009 0.0645,0.11349 -0.038,0.31291 -0.0377,0.0734 -0.0974,0.15765 -0.18734,0.24633 -0.091,0.0897 -0.21937,0.19182 -0.39057,0.30545 -0.46432,0.30819 -1.22321,0.68743 -2.30829,1.1124 -1.98838,0.77875 -4.33349,1.43625 -6.70639,1.97322 l 0.0248,-0.008 c -0.005,0.002 -0.87349,0.27272 -0.87891,0.27442 -14.61637,4.55339 -24.0079,6.90091 -33.19038,9.27639 -8.80225,2.27711 -12.67683,3.49496 -16.39829,4.99263 -2.02906,0.81657 -3.49111,1.56708 -4.14712,1.89425 a 3.3859347,3.3859347 90 0 0 3.02228,6.06004 z"
     id="path4538"
     inkscape:path-effect="#path-effect4577"
     inkscape:original-d="m 473.65477,135.3404 c 11.75,-5.86 23.25,-6.99 53.88,-17.12 4.9,-1.67822 9.62,-4.53 9.74,-6.24"
     inkscape:connector-curvature="0"
     sodipodi:nodetypes="ccc" />
  <path
     style="fill:#000000;fill-rule:nonzero;stroke:#000000;stroke-width:0.75000089;stroke-miterlimit:4;stroke-dasharray:none;stroke-opacity:1"
     d="m 473.40697,89.107189 c 1.61271,-0.449858 4.33515,-1.155239 8.68456,-2.273259 6.19998,-1.593714 10.2244,-2.565165 20.87683,-5.135958 9.40147,-2.268893 18.63523,-4.527872 28.07604,-7.138398 0.61357,-0.169663 1.23443,-0.342513 1.86194,-0.518523 l -0.17869,0.03937 c 4.34184,-0.99972 8.39107,-2.081373 12.29325,-2.857878 2.57284,-0.511977 4.78416,-0.84829 6.99342,-1.138817 3.3792,-0.44438 6.16167,-0.751645 8.08455,-0.882514 0.21883,-0.01489 0,0 0,0 a 0.4208468,0.4208468 90 0 0 0.0118,-0.84161 c 0,0 0.21947,0.02104 0,0 -1.72055,-0.16497 -4.93615,-0.534749 -8.21606,-0.623444 -2.20963,-0.05975 -4.66044,-0.02687 -7.30597,0.139613 -4.2605,0.268108 -8.22422,0.829642 -12.72675,1.424622 -0.0303,0.004 -0.0603,0.0093 -0.09,0.01677 -0.0296,0.0074 -0.0591,0.01548 -0.0887,0.0226 -0.62795,0.150623 -1.24923,0.298466 -1.86329,0.443528 -9.63645,2.276475 -18.49924,4.132918 -28.14921,6.148058 -9.85511,2.057979 -15.69782,3.302837 -21.13999,4.600687 -4.3329,1.033308 -7.3156,1.888517 -8.86814,2.321589 a 3.2461523,3.2461523 90 0 0 1.7444,6.253568 z"
     id="path4536"
     inkscape:path-effect="#path-effect4575"
     inkscape:original-d="m 472.53477,85.980405 c 16.67,-4.65 37.39,-8.47 59.76,-14.29 9.11,-1.65 14.98,-3.09 27.81,-2.91"
     inkscape:connector-curvature="0" />
  <path
     style="fill:#000000;fill-rule:nonzero;stroke:#000000;stroke-width:0.75000089;stroke-miterlimit:4;stroke-dasharray:none;stroke-opacity:1"
     d="m 659.24177,40.246321 c -0.0146,0.0057 -0.0365,0.01346 -0.0939,0.03652 -0.44713,0.179664 -3.88401,1.620945 -8.13715,3.999461 -4.67217,2.612852 -8.73625,5.420471 -12.52957,8.373923 -2.92562,2.277867 -5.71935,4.666838 -8.16159,7.029604 -3.08865,2.988128 -7.32231,7.557109 -10.79746,13.783612 -2.39812,4.296753 -5.03303,10.409377 -5.93943,17.923911 -1.33573,6.972131 -3.1273,16.371882 -3.39663,27.284232 -2.4e-4,0.009 -7.3e-4,0.019 -8.9e-4,0.0285 -0.0651,3.66131 0.16797,7.14716 0.81479,10.3551 0.69936,3.46856 1.86242,6.51026 3.5504,9.07809 1.98724,3.02308 4.53162,5.1289 7.35782,6.55118 0.53628,0.26987 1.07661,0.51211 1.6177,0.7297 3.19461,1.28467 6.60638,1.77963 9.79762,1.87988 0.0291,9.2e-4 0.0583,6.9e-4 0.0874,5.7e-4 7.02703,-0.028 13.50906,-1.72033 19.22115,-4.44967 4.84583,-2.31543 10.23872,-5.91156 15.29303,-11.29823 0.43992,-0.46883 0.87903,-0.95326 1.31609,-1.45347 3.2659,-3.73775 6.4456,-8.39466 8.851,-13.82382 2.23696,-5.04895 3.79794,-10.77956 3.91394,-16.610077 l -2.8e-4,0.01158 c 0.12137,-5.558114 -0.54485,-12.439224 -2.29984,-19.374135 -1.62949,-6.438978 -4.18242,-12.822464 -7.77773,-17.658616 -0.0393,-0.05288 -0.0788,-0.105662 -0.12251,-0.154998 -0.77829,-0.879186 -1.78421,-1.828699 -2.8012,-2.728626 -1.0641,-0.94162 -2.21462,-1.893903 -3.26535,-2.742286 -1.10798,-0.894604 -2.19356,-1.744602 -2.99269,-2.370328 -0.45364,-0.355202 -0.81645,-0.639191 -1.13434,-0.890729 -0.34902,-0.276175 -0.55921,-0.446393 -0.71612,-0.576794 -0.008,-0.0063 -0.015,-0.01301 -0.0222,-0.01982 -0.007,-0.0068 -0.0147,-0.01331 -0.0225,-0.01944 -0.19764,-0.155272 -0.37085,-0.285336 -0.52243,-0.406545 -0.0816,-0.06522 -0.1591,-0.128723 -0.23317,-0.19162 -0.24892,-0.211344 -0.40244,-0.369004 -0.48368,-0.472774 -0.0403,-0.05154 -0.0374,-0.05778 -0.0186,-0.02177 0.0223,0.04259 0.0754,0.160617 0.0992,0.344816 0.0299,0.231467 0.002,0.481877 -0.0852,0.715617 -0.10793,0.289191 -0.26619,0.448084 -0.31278,0.491742 a 2.3983385,2.3983385 90 0 0 -3.2796,-3.500338 c -0.26075,0.244311 -0.6423,0.670542 -0.87985,1.298851 -0.18308,0.484262 -0.25216,1.015141 -0.18472,1.561633 0.0561,0.454312 0.1988,0.859378 0.37233,1.206769 0.15676,0.313819 0.3442,0.591849 0.53228,0.833153 0.34266,0.439627 0.73865,0.821347 1.07164,1.124101 0.10717,0.09744 0.2113,0.189769 0.30744,0.274585 0.17662,0.155815 0.35706,0.314487 0.46414,0.420375 l -0.0447,-0.03926 c 0.21901,0.206543 0.49926,0.454542 0.84001,0.748011 0.32228,0.277563 0.69693,0.594267 1.1336,0.961652 0.77051,0.648272 1.83211,1.535832 2.86574,2.424986 0.99589,0.856692 2.05205,1.788126 3.00183,2.686777 0.87654,0.82934 1.62875,1.59942 2.15636,2.236325 2.9476,4.120478 5.17668,9.777919 6.62252,15.804878 1.55137,6.466851 2.08841,12.839859 1.93016,17.880859 -1.2e-4,0.0039 -1.8e-4,0.0077 -2.8e-4,0.01159 -0.12405,4.897977 -1.46577,9.857577 -3.47169,14.358337 -2.14917,4.8222 -4.9907,8.98835 -7.91299,12.35136 -0.39028,0.44914 -0.78208,0.88422 -1.1743,1.30541 -4.50229,4.83492 -9.27095,8.08449 -13.50133,10.18458 -4.98495,2.47469 -10.62311,4.06233 -16.76382,4.16468 -2.75924,-0.0404 -5.47613,-0.42924 -7.89371,-1.38626 -0.40911,-0.16196 -0.81204,-0.3413 -1.20706,-0.5395 -2.05101,-1.0291 -3.845,-2.54295 -5.24686,-4.74256 -1.20896,-1.89696 -2.10808,-4.27488 -2.64553,-7.21067 -0.49881,-2.72469 -0.66164,-5.79524 -0.54178,-9.16614 l -8.9e-4,0.0285 c 0.50627,-10.41705 2.50655,-19.365936 3.86263,-26.427509 0.014,-0.07312 0.0254,-0.146719 0.0342,-0.220654 0.77355,-6.540825 3.03955,-11.941986 5.12019,-15.851646 2.96322,-5.56809 6.57819,-10.100382 9.237,-13.028416 2.16205,-2.380977 4.57237,-4.681575 7.37075,-6.872489 3.47283,-2.718956 7.63204,-5.325462 12.02334,-7.491422 4.09018,-2.017434 7.36332,-3.130039 7.76956,-3.282917 0.0544,-0.02046 0.0722,-0.02807 0.0866,-0.03367 a 2.9111945,2.9111945 90 0 0 -2.106,-5.428168 z"
     id="path4534"
     inkscape:path-effect="#path-effect4579"
     inkscape:original-d="m 660.29477,42.960405 c -19.46,7.55 -40.89,25.64 -43.64,48.91 -1.64,8.549995 -3.27,16.729995 -3.64,26.909995 -0.36,13.7 3.64,25.44 20.37,25.82 25.89,-0.25 45.27,-24.88 45.72,-44.999995 0.3,-11.38 -2.83,-26.5 -9.33,-35.38 -2.6,-3.05 -8.99,-7.88 -10.5,-9.24 -0.84,-0.72 -2.73,-2.09 -1.62,-3.13"
     inkscape:connector-curvature="0" />
  <path
     style="fill:#000000;fill-rule:nonzero;stroke:#000000;stroke-width:0.75000089;stroke-miterlimit:4;stroke-dasharray:none;stroke-opacity:1"
     d="m 820.49231,26.575122 c 0.27403,-0.319833 0.83292,-1.029314 1.62066,-1.935774 0.7767,-0.893765 2.42642,-2.685931 3.72384,-4.726368 1.57193,-2.472144 2.73197,-5.399615 2.88757,-9.048796 3.1e-4,-0.0074 3e-4,-0.0148 -4e-5,-0.02219 -3.3e-4,-0.0074 -5.8e-4,-0.01479 -5.2e-4,-0.02219 0.006,-0.8495659 -0.086,-1.6438795 -0.26388,-2.3846042 -0.12251,-0.510098 -0.28771,-1.0044326 -0.49614,-1.4810072 -0.50417,-1.1527462 -1.23708,-2.1468375 -2.14035,-2.9877933 -1.72956,-1.6102353 -3.9929,-2.5783959 -6.26577,-3.17986293 -2.29524,-0.60738737 -4.72021,-0.87150512 -6.83148,-0.99607052 -2.20609,-0.13015979 -4.39047,-0.11881117 -5.65399,-0.12852704 l 0.027,-1.865e-4 c -2.99248,-0.005101 -5.86537,0.15653074 -8.57147,0.42744399 -7.11574,0.71237179 -13.172,2.1903573 -17.54959,3.5113831 -4.47632,1.3508206 -9.90158,3.3563068 -15.40988,6.2479905 -2.02893,1.0651251 -4.22784,2.3348931 -6.41949,3.8079171 -2.45393,1.649306 -5.11992,3.704375 -7.43124,6.086422 -1.59276,1.641492 -3.08597,3.510186 -4.16593,5.539046 -0.95695,1.797768 -1.65402,3.845129 -1.67958,6.016135 l 2.5e-4,-0.0181 c -0.0343,1.965545 0.33706,3.875302 1.08887,5.712375 0.72002,1.759401 1.77127,3.410224 3.0888,4.963826 2.49718,2.944623 5.9956,5.592702 10.1947,8.056285 7.89543,4.632195 18.15531,8.569287 29.28834,12.674883 10.07311,3.714721 20.76049,7.530767 28.50626,11.606634 3.77247,1.985097 6.76334,3.984332 8.75943,6.013556 0.97013,0.986228 1.65534,1.929824 2.09199,2.827552 0.41475,0.852692 0.6133,1.678256 0.61648,2.510004 -0.21057,3.682227 -1.8121,7.530522 -4.80214,11.339871 -2.93823,3.74334 -7.12253,7.3195 -12.23912,10.4344 -10.13738,6.17148 -23.41299,10.21045 -36.17108,10.21311 -0.015,0 -0.0301,10e-5 -0.0451,3.4e-4 -1.81452,0.0289 -4.29528,-0.11633 -6.99683,-0.45907 -2.75223,-0.34917 -5.62589,-0.88907 -8.21672,-1.6138 -2.71062,-0.75824 -4.90107,-1.6604 -6.37243,-2.63272 -0.74885,-0.49486 -1.21142,-0.94274 -1.47632,-1.30551 -0.25002,-0.34239 -0.30734,-0.58125 -0.31495,-0.75316 0.001,-0.0252 0.01,-0.0793 0.0506,-0.17506 0.0657,-0.15394 0.1966,-0.36725 0.42302,-0.62617 0.63746,-0.72898 1.62198,-1.36931 2.41777,-1.80532 a 2.9323066,2.9323066 90 0 0 -2.81794,-5.14324 c -0.9689,0.53085 -2.67808,1.55901 -4.00723,3.05968 -0.513,0.57921 -1.02867,1.29446 -1.40386,2.14195 -0.34529,0.77995 -0.58199,1.69755 -0.55798,2.71481 1.9e-4,0.008 4.3e-4,0.0157 6.9e-4,0.0236 0.0501,1.52553 0.5996,2.88362 1.43579,4.03492 0.79537,1.09509 1.84613,2.00215 2.9883,2.75954 2.19839,1.45778 5.05044,2.5661 8.03693,3.40509 2.92427,0.82151 6.08941,1.41458 9.06516,1.79527 2.89863,0.37081 5.65592,0.54459 7.81214,0.5147 13.8976,-0.002 28.22777,-4.36527 39.24295,-11.06689 5.58234,-3.39629 10.35608,-7.41739 13.82901,-11.83997 3.55868,-4.531777 5.79653,-9.545812 6.07086,-14.775129 0.002,-0.04414 0.004,-0.08833 0.004,-0.132535 0.0147,-1.863295 -0.43163,-3.611189 -1.21593,-5.223735 -0.78462,-1.613215 -1.89789,-3.073457 -3.20206,-4.399216 -2.62559,-2.669052 -6.24048,-5.006985 -10.23236,-7.107146 -8.18532,-4.306358 -19.34027,-8.278669 -29.2206,-11.920233 -11.21281,-4.132676 -20.9749,-7.899734 -28.34106,-12.217001 -3.89542,-2.283087 -6.77316,-4.531392 -8.67522,-6.770665 -0.98664,-1.161562 -1.67984,-2.28499 -2.12603,-3.372008 -0.45973,-1.119976 -0.67037,-2.232024 -0.652,-3.362966 1e-4,-0.006 2e-4,-0.01206 2.5e-4,-0.0181 0.008,-0.952857 0.3198,-2.065117 0.97699,-3.308096 0.73766,-1.395177 1.84133,-2.823678 3.18001,-4.211729 1.9317,-2.002938 4.24117,-3.810442 6.47522,-5.325471 1.97849,-1.341728 3.98593,-2.514214 5.86154,-3.510185 5.09136,-2.703559 10.16556,-4.620549 14.36436,-5.9242697 4.10568,-1.2748092 9.78619,-2.715691 16.45098,-3.4398688 2.53301,-0.2752295 5.2156,-0.4472113 8.00372,-0.464045 0.009,-5.43e-5 0.018,9.09e-5 0.027,-1.865e-4 1.3398,-0.041368 3.30515,-0.109277 5.34632,-0.047277 1.9426,0.059006 3.98987,0.2347661 5.83571,0.6526796 1.85768,0.4205932 3.28488,1.0358126 4.25267,1.8288881 0.48429,0.3968594 0.8542,0.8381421 1.1207,1.3367367 0.11273,0.2108908 0.21043,0.4384319 0.29092,0.6855927 0.11632,0.3572272 0.20582,0.78064 0.24207,1.285515 l -5.6e-4,-0.04438 c 0.17036,2.822814 -0.29697,5.209423 -1.26652,7.5019 -0.83733,1.979853 -2.00323,3.736661 -2.74441,4.723811 -0.66243,0.882258 -1.33799,1.604392 -1.577,1.883353 a 1.2214356,1.2214356 90 0 0 1.85508,1.589434 z"
     id="videos"
     inkscape:path-effect="#path-effect4581"
     inkscape:original-d="m 819.56477,25.780405 c 3.6567,-4.267852 6.92785,-8.454556 6.91,-14.910001 -0.2,-8.89 -13.44,-8.5200001 -19.37,-8.4500001 -29.57,0.06 -58.14,16.9900011 -58.27,28.9100011 -0.43,25.27 83.82,32.77 83.65,54.4 -0.95,18.119995 -29.58,34.869995 -56.19,34.869995 -7.89,0.12 -26.14,-2.75 -26.37,-9.64 -0.05,-1.97 1.82,-3.84 4.43,-5.27"
     inkscape:connector-curvature="0"
     sodipodi:nodetypes="cccccccc" />
</svg>
